G04 #@! TF.GenerationSoftware,KiCad,Pcbnew,(5.1.2-1)-1*
G04 #@! TF.CreationDate,2019-06-03T16:39:24-07:00*
G04 #@! TF.ProjectId,PowerDistribution,506f7765-7244-4697-9374-726962757469,rev?*
G04 #@! TF.SameCoordinates,Original*
G04 #@! TF.FileFunction,Copper,L1,Top*
G04 #@! TF.FilePolarity,Positive*
%FSLAX46Y46*%
G04 Gerber Fmt 4.6, Leading zero omitted, Abs format (unit mm)*
G04 Created by KiCad (PCBNEW (5.1.2-1)-1) date 2019-06-03 16:39:24*
%MOMM*%
%LPD*%
G04 APERTURE LIST*
%ADD10C,2.032000*%
%ADD11R,2.032000X2.032000*%
%ADD12C,1.600000*%
%ADD13O,1.700000X1.700000*%
%ADD14R,1.700000X1.700000*%
%ADD15C,0.800000*%
%ADD16C,1.000000*%
%ADD17C,0.250000*%
%ADD18C,0.254000*%
G04 APERTURE END LIST*
D10*
X129000000Y-19998720D03*
D11*
X129000000Y-15000000D03*
D10*
X129000000Y-9998720D03*
D11*
X129000000Y-5000000D03*
D10*
X129000000Y1280D03*
D11*
X129000000Y5000000D03*
D10*
X129000000Y10001280D03*
D11*
X129000000Y15000000D03*
D10*
X120250000Y-15001280D03*
D11*
X120250000Y-20000000D03*
D10*
X120250000Y-5001280D03*
D11*
X120250000Y-10000000D03*
D10*
X120250000Y4998720D03*
D11*
X120250000Y0D03*
D10*
X120285000Y14998720D03*
D11*
X120285000Y10000000D03*
D12*
X124460000Y34250000D03*
X124460000Y31750000D03*
D13*
X119380000Y34290000D03*
X119380000Y31750000D03*
X119380000Y29210000D03*
D14*
X119380000Y26670000D03*
D13*
X132080000Y38100000D03*
D14*
X129540000Y38100000D03*
D13*
X124460000Y38100000D03*
X121920000Y38100000D03*
X119380000Y38100000D03*
D14*
X116840000Y38100000D03*
D13*
X129540000Y26670000D03*
X129540000Y29210000D03*
X129540000Y31750000D03*
D14*
X129540000Y34290000D03*
D15*
X125730000Y27940000D03*
D16*
X129540000Y38100000D02*
X129540000Y34290000D01*
X125730000Y31750000D02*
X124460000Y31750000D01*
X128270000Y34290000D02*
X125730000Y31750000D01*
X129540000Y34290000D02*
X128270000Y34290000D01*
D17*
X116840000Y38100000D02*
X116840000Y31750000D01*
X116840000Y31750000D02*
X119380000Y31750000D01*
X119380000Y38100000D02*
X119380000Y34290000D01*
X121920000Y29210000D02*
X121920000Y29210000D01*
X121920000Y28575000D02*
X121920000Y38100000D01*
X122555000Y27940000D02*
X121920000Y28575000D01*
X125730000Y27940000D02*
X122555000Y27940000D01*
X127000000Y29210000D02*
X129540000Y26670000D01*
X124460000Y36830000D02*
X122555000Y34925000D01*
X124460000Y38100000D02*
X124460000Y36830000D01*
X122555000Y29845000D02*
X123190000Y29210000D01*
X122555000Y34925000D02*
X122555000Y29845000D01*
X123190000Y29210000D02*
X127000000Y29210000D01*
D18*
G36*
X138600897Y49034756D02*
G01*
X139178905Y48860245D01*
X139712014Y48576786D01*
X140179911Y48195179D01*
X140564773Y47729960D01*
X140851946Y47198846D01*
X141030486Y46622073D01*
X141098000Y45979726D01*
X141098000Y24488651D01*
X141012445Y24424605D01*
X140777940Y24296556D01*
X140527593Y24203181D01*
X140266504Y24146385D01*
X139995470Y24127000D01*
X109004530Y24127000D01*
X108733496Y24146385D01*
X108472407Y24203181D01*
X108222060Y24296556D01*
X107987555Y24424605D01*
X107902000Y24488651D01*
X107902000Y27520000D01*
X117648757Y27520000D01*
X117648757Y25820000D01*
X117665690Y25648078D01*
X117715838Y25482763D01*
X117797273Y25330408D01*
X117906867Y25196867D01*
X118040408Y25087273D01*
X118192763Y25005838D01*
X118358078Y24955690D01*
X118530000Y24938757D01*
X120230000Y24938757D01*
X120401922Y24955690D01*
X120567237Y25005838D01*
X120719592Y25087273D01*
X120853133Y25196867D01*
X120962727Y25330408D01*
X121044162Y25482763D01*
X121094310Y25648078D01*
X121111243Y25820000D01*
X121111243Y27520000D01*
X121094310Y27691922D01*
X121044162Y27857237D01*
X120962727Y28009592D01*
X120853133Y28143133D01*
X120719592Y28252727D01*
X120569498Y28332953D01*
X120651641Y28443080D01*
X120776825Y28705901D01*
X120821476Y28853110D01*
X120700155Y29083000D01*
X119507000Y29083000D01*
X119507000Y29063000D01*
X119253000Y29063000D01*
X119253000Y29083000D01*
X118059845Y29083000D01*
X117938524Y28853110D01*
X117983175Y28705901D01*
X118108359Y28443080D01*
X118190502Y28332953D01*
X118040408Y28252727D01*
X117906867Y28143133D01*
X117797273Y28009592D01*
X117715838Y27857237D01*
X117665690Y27691922D01*
X117648757Y27520000D01*
X107902000Y27520000D01*
X107902000Y38950000D01*
X115108757Y38950000D01*
X115108757Y37250000D01*
X115125690Y37078078D01*
X115175838Y36912763D01*
X115257273Y36760408D01*
X115366867Y36626867D01*
X115500408Y36517273D01*
X115652763Y36435838D01*
X115818078Y36385690D01*
X115838000Y36383728D01*
X115838001Y31799233D01*
X115833152Y31750000D01*
X115852498Y31553574D01*
X115909794Y31364696D01*
X116002836Y31190625D01*
X116128051Y31038051D01*
X116280625Y30912836D01*
X116454696Y30819794D01*
X116643574Y30762498D01*
X116790777Y30748000D01*
X116840000Y30743152D01*
X116889223Y30748000D01*
X117968198Y30748000D01*
X118152918Y30522918D01*
X118402254Y30318293D01*
X118282412Y30210269D01*
X118108359Y29976920D01*
X117983175Y29714099D01*
X117938524Y29566890D01*
X118059845Y29337000D01*
X119253000Y29337000D01*
X119253000Y29357000D01*
X119507000Y29357000D01*
X119507000Y29337000D01*
X120700155Y29337000D01*
X120821476Y29566890D01*
X120776825Y29714099D01*
X120651641Y29976920D01*
X120477588Y30210269D01*
X120357746Y30318293D01*
X120607082Y30522918D01*
X120822896Y30785888D01*
X120918000Y30963816D01*
X120918000Y29259224D01*
X120913152Y29210000D01*
X120918000Y29160776D01*
X120918000Y28624216D01*
X120913153Y28575000D01*
X120918000Y28525784D01*
X120918000Y28525778D01*
X120926145Y28443080D01*
X120932498Y28378574D01*
X120979844Y28222498D01*
X120989794Y28189697D01*
X121082836Y28015625D01*
X121208051Y27863051D01*
X121246291Y27831668D01*
X121811668Y27266291D01*
X121843051Y27228051D01*
X121995625Y27102836D01*
X122169696Y27009794D01*
X122358573Y26952498D01*
X122555000Y26933152D01*
X122604223Y26938000D01*
X124931059Y26938000D01*
X125125114Y26808337D01*
X125357513Y26712074D01*
X125604226Y26663000D01*
X125855774Y26663000D01*
X126102487Y26712074D01*
X126334886Y26808337D01*
X126544040Y26948089D01*
X126721911Y27125960D01*
X126861663Y27335114D01*
X126957926Y27567513D01*
X127002310Y27790649D01*
X127833184Y26959774D01*
X127804644Y26670000D01*
X127837988Y26331449D01*
X127936740Y26005908D01*
X128097104Y25705888D01*
X128312918Y25442918D01*
X128575888Y25227104D01*
X128875908Y25066740D01*
X129201449Y24967988D01*
X129455159Y24943000D01*
X129624841Y24943000D01*
X129878551Y24967988D01*
X130204092Y25066740D01*
X130504112Y25227104D01*
X130767082Y25442918D01*
X130982896Y25705888D01*
X131143260Y26005908D01*
X131242012Y26331449D01*
X131275356Y26670000D01*
X131242012Y27008551D01*
X131143260Y27334092D01*
X130982896Y27634112D01*
X130767082Y27897082D01*
X130714786Y27940000D01*
X130767082Y27982918D01*
X130982896Y28245888D01*
X131143260Y28545908D01*
X131242012Y28871449D01*
X131275356Y29210000D01*
X131242012Y29548551D01*
X131143260Y29874092D01*
X130982896Y30174112D01*
X130767082Y30437082D01*
X130517746Y30641707D01*
X130637588Y30749731D01*
X130811641Y30983080D01*
X130936825Y31245901D01*
X130981476Y31393110D01*
X130860155Y31623000D01*
X129667000Y31623000D01*
X129667000Y31603000D01*
X129413000Y31603000D01*
X129413000Y31623000D01*
X128219845Y31623000D01*
X128098524Y31393110D01*
X128143175Y31245901D01*
X128268359Y30983080D01*
X128442412Y30749731D01*
X128562254Y30641707D01*
X128312918Y30437082D01*
X128097104Y30174112D01*
X127936740Y29874092D01*
X127893964Y29733077D01*
X127743332Y29883709D01*
X127711949Y29921949D01*
X127559375Y30047164D01*
X127385304Y30140206D01*
X127196426Y30197502D01*
X127049223Y30212000D01*
X127049216Y30212000D01*
X127000000Y30216847D01*
X126950784Y30212000D01*
X125129152Y30212000D01*
X125254357Y30263862D01*
X125417694Y30373000D01*
X125662360Y30373000D01*
X125730000Y30366338D01*
X125999939Y30392925D01*
X126119476Y30429186D01*
X126259505Y30471663D01*
X126498721Y30599527D01*
X126708397Y30771603D01*
X126751521Y30824150D01*
X128126502Y32199131D01*
X128098524Y32106890D01*
X128219845Y31877000D01*
X129413000Y31877000D01*
X129413000Y31897000D01*
X129667000Y31897000D01*
X129667000Y31877000D01*
X130860155Y31877000D01*
X130981476Y32106890D01*
X130936825Y32254099D01*
X130811641Y32516920D01*
X130729498Y32627047D01*
X130879592Y32707273D01*
X131013133Y32816867D01*
X131122727Y32950408D01*
X131204162Y33102763D01*
X131254310Y33268078D01*
X131271243Y33440000D01*
X131271243Y35140000D01*
X131254310Y35311922D01*
X131204162Y35477237D01*
X131122727Y35629592D01*
X131013133Y35763133D01*
X130917000Y35842027D01*
X130917000Y36547973D01*
X131013133Y36626867D01*
X131122727Y36760408D01*
X131202953Y36910502D01*
X131313080Y36828359D01*
X131575901Y36703175D01*
X131723110Y36658524D01*
X131953000Y36779845D01*
X131953000Y37973000D01*
X132207000Y37973000D01*
X132207000Y36779845D01*
X132436890Y36658524D01*
X132584099Y36703175D01*
X132846920Y36828359D01*
X133080269Y37002412D01*
X133275178Y37218645D01*
X133424157Y37468748D01*
X133521481Y37743109D01*
X133400814Y37973000D01*
X132207000Y37973000D01*
X131953000Y37973000D01*
X131933000Y37973000D01*
X131933000Y38227000D01*
X131953000Y38227000D01*
X131953000Y39420155D01*
X132207000Y39420155D01*
X132207000Y38227000D01*
X133400814Y38227000D01*
X133521481Y38456891D01*
X133424157Y38731252D01*
X133275178Y38981355D01*
X133080269Y39197588D01*
X132846920Y39371641D01*
X132584099Y39496825D01*
X132436890Y39541476D01*
X132207000Y39420155D01*
X131953000Y39420155D01*
X131723110Y39541476D01*
X131575901Y39496825D01*
X131313080Y39371641D01*
X131202953Y39289498D01*
X131122727Y39439592D01*
X131013133Y39573133D01*
X130879592Y39682727D01*
X130727237Y39764162D01*
X130561922Y39814310D01*
X130390000Y39831243D01*
X128690000Y39831243D01*
X128518078Y39814310D01*
X128352763Y39764162D01*
X128200408Y39682727D01*
X128066867Y39573133D01*
X127957273Y39439592D01*
X127875838Y39287237D01*
X127825690Y39121922D01*
X127808757Y38950000D01*
X127808757Y37250000D01*
X127825690Y37078078D01*
X127875838Y36912763D01*
X127957273Y36760408D01*
X128066867Y36626867D01*
X128163000Y36547973D01*
X128163001Y35842028D01*
X128066867Y35763133D01*
X127962194Y35635588D01*
X127740495Y35568337D01*
X127501279Y35440473D01*
X127291603Y35268397D01*
X127248483Y35215855D01*
X125824578Y33791949D01*
X125886300Y34038184D01*
X125900217Y34320512D01*
X125858787Y34600130D01*
X125763603Y34866292D01*
X125696671Y34991514D01*
X125452702Y35063097D01*
X124639605Y34250000D01*
X124653748Y34235858D01*
X124474143Y34056253D01*
X124460000Y34070395D01*
X124445858Y34056253D01*
X124266253Y34235858D01*
X124280395Y34250000D01*
X124266253Y34264143D01*
X124445858Y34443748D01*
X124460000Y34429605D01*
X125273097Y35242702D01*
X125201514Y35486671D01*
X124946004Y35607571D01*
X124713015Y35665973D01*
X125133715Y36086673D01*
X125171949Y36118051D01*
X125297164Y36270625D01*
X125390206Y36444696D01*
X125412222Y36517273D01*
X125447502Y36633573D01*
X125452080Y36680057D01*
X125687082Y36872918D01*
X125902896Y37135888D01*
X126063260Y37435908D01*
X126162012Y37761449D01*
X126195356Y38100000D01*
X126162012Y38438551D01*
X126063260Y38764092D01*
X125902896Y39064112D01*
X125687082Y39327082D01*
X125424112Y39542896D01*
X125124092Y39703260D01*
X124798551Y39802012D01*
X124544841Y39827000D01*
X124375159Y39827000D01*
X124121449Y39802012D01*
X123795908Y39703260D01*
X123495888Y39542896D01*
X123232918Y39327082D01*
X123190000Y39274786D01*
X123147082Y39327082D01*
X122884112Y39542896D01*
X122584092Y39703260D01*
X122258551Y39802012D01*
X122004841Y39827000D01*
X121835159Y39827000D01*
X121581449Y39802012D01*
X121255908Y39703260D01*
X120955888Y39542896D01*
X120692918Y39327082D01*
X120650000Y39274786D01*
X120607082Y39327082D01*
X120344112Y39542896D01*
X120044092Y39703260D01*
X119718551Y39802012D01*
X119464841Y39827000D01*
X119295159Y39827000D01*
X119041449Y39802012D01*
X118715908Y39703260D01*
X118415888Y39542896D01*
X118369315Y39504675D01*
X118313133Y39573133D01*
X118179592Y39682727D01*
X118027237Y39764162D01*
X117861922Y39814310D01*
X117690000Y39831243D01*
X115990000Y39831243D01*
X115818078Y39814310D01*
X115652763Y39764162D01*
X115500408Y39682727D01*
X115366867Y39573133D01*
X115257273Y39439592D01*
X115175838Y39287237D01*
X115125690Y39121922D01*
X115108757Y38950000D01*
X107902000Y38950000D01*
X107902000Y45955887D01*
X107930246Y46243963D01*
X108523000Y46243963D01*
X108523000Y45756037D01*
X108618190Y45277486D01*
X108804911Y44826701D01*
X109075989Y44421005D01*
X109421005Y44075989D01*
X109826701Y43804911D01*
X110277486Y43618190D01*
X110756037Y43523000D01*
X111243963Y43523000D01*
X111722514Y43618190D01*
X112173299Y43804911D01*
X112578995Y44075989D01*
X112924011Y44421005D01*
X113195089Y44826701D01*
X113381810Y45277486D01*
X113477000Y45756037D01*
X113477000Y46243963D01*
X135523000Y46243963D01*
X135523000Y45756037D01*
X135618190Y45277486D01*
X135804911Y44826701D01*
X136075989Y44421005D01*
X136421005Y44075989D01*
X136826701Y43804911D01*
X137277486Y43618190D01*
X137756037Y43523000D01*
X138243963Y43523000D01*
X138722514Y43618190D01*
X139173299Y43804911D01*
X139578995Y44075989D01*
X139924011Y44421005D01*
X140195089Y44826701D01*
X140381810Y45277486D01*
X140477000Y45756037D01*
X140477000Y46243963D01*
X140381810Y46722514D01*
X140195089Y47173299D01*
X139924011Y47578995D01*
X139578995Y47924011D01*
X139173299Y48195089D01*
X138722514Y48381810D01*
X138243963Y48477000D01*
X137756037Y48477000D01*
X137277486Y48381810D01*
X136826701Y48195089D01*
X136421005Y47924011D01*
X136075989Y47578995D01*
X135804911Y47173299D01*
X135618190Y46722514D01*
X135523000Y46243963D01*
X113477000Y46243963D01*
X113381810Y46722514D01*
X113195089Y47173299D01*
X112924011Y47578995D01*
X112578995Y47924011D01*
X112173299Y48195089D01*
X111722514Y48381810D01*
X111243963Y48477000D01*
X110756037Y48477000D01*
X110277486Y48381810D01*
X109826701Y48195089D01*
X109421005Y47924011D01*
X109075989Y47578995D01*
X108804911Y47173299D01*
X108618190Y46722514D01*
X108523000Y46243963D01*
X107930246Y46243963D01*
X107965244Y46600897D01*
X108139755Y47178905D01*
X108423214Y47712014D01*
X108804821Y48179911D01*
X109270040Y48564773D01*
X109801154Y48851946D01*
X110377927Y49030486D01*
X111020274Y49098000D01*
X137955887Y49098000D01*
X138600897Y49034756D01*
X138600897Y49034756D01*
G37*
X138600897Y49034756D02*
X139178905Y48860245D01*
X139712014Y48576786D01*
X140179911Y48195179D01*
X140564773Y47729960D01*
X140851946Y47198846D01*
X141030486Y46622073D01*
X141098000Y45979726D01*
X141098000Y24488651D01*
X141012445Y24424605D01*
X140777940Y24296556D01*
X140527593Y24203181D01*
X140266504Y24146385D01*
X139995470Y24127000D01*
X109004530Y24127000D01*
X108733496Y24146385D01*
X108472407Y24203181D01*
X108222060Y24296556D01*
X107987555Y24424605D01*
X107902000Y24488651D01*
X107902000Y27520000D01*
X117648757Y27520000D01*
X117648757Y25820000D01*
X117665690Y25648078D01*
X117715838Y25482763D01*
X117797273Y25330408D01*
X117906867Y25196867D01*
X118040408Y25087273D01*
X118192763Y25005838D01*
X118358078Y24955690D01*
X118530000Y24938757D01*
X120230000Y24938757D01*
X120401922Y24955690D01*
X120567237Y25005838D01*
X120719592Y25087273D01*
X120853133Y25196867D01*
X120962727Y25330408D01*
X121044162Y25482763D01*
X121094310Y25648078D01*
X121111243Y25820000D01*
X121111243Y27520000D01*
X121094310Y27691922D01*
X121044162Y27857237D01*
X120962727Y28009592D01*
X120853133Y28143133D01*
X120719592Y28252727D01*
X120569498Y28332953D01*
X120651641Y28443080D01*
X120776825Y28705901D01*
X120821476Y28853110D01*
X120700155Y29083000D01*
X119507000Y29083000D01*
X119507000Y29063000D01*
X119253000Y29063000D01*
X119253000Y29083000D01*
X118059845Y29083000D01*
X117938524Y28853110D01*
X117983175Y28705901D01*
X118108359Y28443080D01*
X118190502Y28332953D01*
X118040408Y28252727D01*
X117906867Y28143133D01*
X117797273Y28009592D01*
X117715838Y27857237D01*
X117665690Y27691922D01*
X117648757Y27520000D01*
X107902000Y27520000D01*
X107902000Y38950000D01*
X115108757Y38950000D01*
X115108757Y37250000D01*
X115125690Y37078078D01*
X115175838Y36912763D01*
X115257273Y36760408D01*
X115366867Y36626867D01*
X115500408Y36517273D01*
X115652763Y36435838D01*
X115818078Y36385690D01*
X115838000Y36383728D01*
X115838001Y31799233D01*
X115833152Y31750000D01*
X115852498Y31553574D01*
X115909794Y31364696D01*
X116002836Y31190625D01*
X116128051Y31038051D01*
X116280625Y30912836D01*
X116454696Y30819794D01*
X116643574Y30762498D01*
X116790777Y30748000D01*
X116840000Y30743152D01*
X116889223Y30748000D01*
X117968198Y30748000D01*
X118152918Y30522918D01*
X118402254Y30318293D01*
X118282412Y30210269D01*
X118108359Y29976920D01*
X117983175Y29714099D01*
X117938524Y29566890D01*
X118059845Y29337000D01*
X119253000Y29337000D01*
X119253000Y29357000D01*
X119507000Y29357000D01*
X119507000Y29337000D01*
X120700155Y29337000D01*
X120821476Y29566890D01*
X120776825Y29714099D01*
X120651641Y29976920D01*
X120477588Y30210269D01*
X120357746Y30318293D01*
X120607082Y30522918D01*
X120822896Y30785888D01*
X120918000Y30963816D01*
X120918000Y29259224D01*
X120913152Y29210000D01*
X120918000Y29160776D01*
X120918000Y28624216D01*
X120913153Y28575000D01*
X120918000Y28525784D01*
X120918000Y28525778D01*
X120926145Y28443080D01*
X120932498Y28378574D01*
X120979844Y28222498D01*
X120989794Y28189697D01*
X121082836Y28015625D01*
X121208051Y27863051D01*
X121246291Y27831668D01*
X121811668Y27266291D01*
X121843051Y27228051D01*
X121995625Y27102836D01*
X122169696Y27009794D01*
X122358573Y26952498D01*
X122555000Y26933152D01*
X122604223Y26938000D01*
X124931059Y26938000D01*
X125125114Y26808337D01*
X125357513Y26712074D01*
X125604226Y26663000D01*
X125855774Y26663000D01*
X126102487Y26712074D01*
X126334886Y26808337D01*
X126544040Y26948089D01*
X126721911Y27125960D01*
X126861663Y27335114D01*
X126957926Y27567513D01*
X127002310Y27790649D01*
X127833184Y26959774D01*
X127804644Y26670000D01*
X127837988Y26331449D01*
X127936740Y26005908D01*
X128097104Y25705888D01*
X128312918Y25442918D01*
X128575888Y25227104D01*
X128875908Y25066740D01*
X129201449Y24967988D01*
X129455159Y24943000D01*
X129624841Y24943000D01*
X129878551Y24967988D01*
X130204092Y25066740D01*
X130504112Y25227104D01*
X130767082Y25442918D01*
X130982896Y25705888D01*
X131143260Y26005908D01*
X131242012Y26331449D01*
X131275356Y26670000D01*
X131242012Y27008551D01*
X131143260Y27334092D01*
X130982896Y27634112D01*
X130767082Y27897082D01*
X130714786Y27940000D01*
X130767082Y27982918D01*
X130982896Y28245888D01*
X131143260Y28545908D01*
X131242012Y28871449D01*
X131275356Y29210000D01*
X131242012Y29548551D01*
X131143260Y29874092D01*
X130982896Y30174112D01*
X130767082Y30437082D01*
X130517746Y30641707D01*
X130637588Y30749731D01*
X130811641Y30983080D01*
X130936825Y31245901D01*
X130981476Y31393110D01*
X130860155Y31623000D01*
X129667000Y31623000D01*
X129667000Y31603000D01*
X129413000Y31603000D01*
X129413000Y31623000D01*
X128219845Y31623000D01*
X128098524Y31393110D01*
X128143175Y31245901D01*
X128268359Y30983080D01*
X128442412Y30749731D01*
X128562254Y30641707D01*
X128312918Y30437082D01*
X128097104Y30174112D01*
X127936740Y29874092D01*
X127893964Y29733077D01*
X127743332Y29883709D01*
X127711949Y29921949D01*
X127559375Y30047164D01*
X127385304Y30140206D01*
X127196426Y30197502D01*
X127049223Y30212000D01*
X127049216Y30212000D01*
X127000000Y30216847D01*
X126950784Y30212000D01*
X125129152Y30212000D01*
X125254357Y30263862D01*
X125417694Y30373000D01*
X125662360Y30373000D01*
X125730000Y30366338D01*
X125999939Y30392925D01*
X126119476Y30429186D01*
X126259505Y30471663D01*
X126498721Y30599527D01*
X126708397Y30771603D01*
X126751521Y30824150D01*
X128126502Y32199131D01*
X128098524Y32106890D01*
X128219845Y31877000D01*
X129413000Y31877000D01*
X129413000Y31897000D01*
X129667000Y31897000D01*
X129667000Y31877000D01*
X130860155Y31877000D01*
X130981476Y32106890D01*
X130936825Y32254099D01*
X130811641Y32516920D01*
X130729498Y32627047D01*
X130879592Y32707273D01*
X131013133Y32816867D01*
X131122727Y32950408D01*
X131204162Y33102763D01*
X131254310Y33268078D01*
X131271243Y33440000D01*
X131271243Y35140000D01*
X131254310Y35311922D01*
X131204162Y35477237D01*
X131122727Y35629592D01*
X131013133Y35763133D01*
X130917000Y35842027D01*
X130917000Y36547973D01*
X131013133Y36626867D01*
X131122727Y36760408D01*
X131202953Y36910502D01*
X131313080Y36828359D01*
X131575901Y36703175D01*
X131723110Y36658524D01*
X131953000Y36779845D01*
X131953000Y37973000D01*
X132207000Y37973000D01*
X132207000Y36779845D01*
X132436890Y36658524D01*
X132584099Y36703175D01*
X132846920Y36828359D01*
X133080269Y37002412D01*
X133275178Y37218645D01*
X133424157Y37468748D01*
X133521481Y37743109D01*
X133400814Y37973000D01*
X132207000Y37973000D01*
X131953000Y37973000D01*
X131933000Y37973000D01*
X131933000Y38227000D01*
X131953000Y38227000D01*
X131953000Y39420155D01*
X132207000Y39420155D01*
X132207000Y38227000D01*
X133400814Y38227000D01*
X133521481Y38456891D01*
X133424157Y38731252D01*
X133275178Y38981355D01*
X133080269Y39197588D01*
X132846920Y39371641D01*
X132584099Y39496825D01*
X132436890Y39541476D01*
X132207000Y39420155D01*
X131953000Y39420155D01*
X131723110Y39541476D01*
X131575901Y39496825D01*
X131313080Y39371641D01*
X131202953Y39289498D01*
X131122727Y39439592D01*
X131013133Y39573133D01*
X130879592Y39682727D01*
X130727237Y39764162D01*
X130561922Y39814310D01*
X130390000Y39831243D01*
X128690000Y39831243D01*
X128518078Y39814310D01*
X128352763Y39764162D01*
X128200408Y39682727D01*
X128066867Y39573133D01*
X127957273Y39439592D01*
X127875838Y39287237D01*
X127825690Y39121922D01*
X127808757Y38950000D01*
X127808757Y37250000D01*
X127825690Y37078078D01*
X127875838Y36912763D01*
X127957273Y36760408D01*
X128066867Y36626867D01*
X128163000Y36547973D01*
X128163001Y35842028D01*
X128066867Y35763133D01*
X127962194Y35635588D01*
X127740495Y35568337D01*
X127501279Y35440473D01*
X127291603Y35268397D01*
X127248483Y35215855D01*
X125824578Y33791949D01*
X125886300Y34038184D01*
X125900217Y34320512D01*
X125858787Y34600130D01*
X125763603Y34866292D01*
X125696671Y34991514D01*
X125452702Y35063097D01*
X124639605Y34250000D01*
X124653748Y34235858D01*
X124474143Y34056253D01*
X124460000Y34070395D01*
X124445858Y34056253D01*
X124266253Y34235858D01*
X124280395Y34250000D01*
X124266253Y34264143D01*
X124445858Y34443748D01*
X124460000Y34429605D01*
X125273097Y35242702D01*
X125201514Y35486671D01*
X124946004Y35607571D01*
X124713015Y35665973D01*
X125133715Y36086673D01*
X125171949Y36118051D01*
X125297164Y36270625D01*
X125390206Y36444696D01*
X125412222Y36517273D01*
X125447502Y36633573D01*
X125452080Y36680057D01*
X125687082Y36872918D01*
X125902896Y37135888D01*
X126063260Y37435908D01*
X126162012Y37761449D01*
X126195356Y38100000D01*
X126162012Y38438551D01*
X126063260Y38764092D01*
X125902896Y39064112D01*
X125687082Y39327082D01*
X125424112Y39542896D01*
X125124092Y39703260D01*
X124798551Y39802012D01*
X124544841Y39827000D01*
X124375159Y39827000D01*
X124121449Y39802012D01*
X123795908Y39703260D01*
X123495888Y39542896D01*
X123232918Y39327082D01*
X123190000Y39274786D01*
X123147082Y39327082D01*
X122884112Y39542896D01*
X122584092Y39703260D01*
X122258551Y39802012D01*
X122004841Y39827000D01*
X121835159Y39827000D01*
X121581449Y39802012D01*
X121255908Y39703260D01*
X120955888Y39542896D01*
X120692918Y39327082D01*
X120650000Y39274786D01*
X120607082Y39327082D01*
X120344112Y39542896D01*
X120044092Y39703260D01*
X119718551Y39802012D01*
X119464841Y39827000D01*
X119295159Y39827000D01*
X119041449Y39802012D01*
X118715908Y39703260D01*
X118415888Y39542896D01*
X118369315Y39504675D01*
X118313133Y39573133D01*
X118179592Y39682727D01*
X118027237Y39764162D01*
X117861922Y39814310D01*
X117690000Y39831243D01*
X115990000Y39831243D01*
X115818078Y39814310D01*
X115652763Y39764162D01*
X115500408Y39682727D01*
X115366867Y39573133D01*
X115257273Y39439592D01*
X115175838Y39287237D01*
X115125690Y39121922D01*
X115108757Y38950000D01*
X107902000Y38950000D01*
X107902000Y45955887D01*
X107930246Y46243963D01*
X108523000Y46243963D01*
X108523000Y45756037D01*
X108618190Y45277486D01*
X108804911Y44826701D01*
X109075989Y44421005D01*
X109421005Y44075989D01*
X109826701Y43804911D01*
X110277486Y43618190D01*
X110756037Y43523000D01*
X111243963Y43523000D01*
X111722514Y43618190D01*
X112173299Y43804911D01*
X112578995Y44075989D01*
X112924011Y44421005D01*
X113195089Y44826701D01*
X113381810Y45277486D01*
X113477000Y45756037D01*
X113477000Y46243963D01*
X135523000Y46243963D01*
X135523000Y45756037D01*
X135618190Y45277486D01*
X135804911Y44826701D01*
X136075989Y44421005D01*
X136421005Y44075989D01*
X136826701Y43804911D01*
X137277486Y43618190D01*
X137756037Y43523000D01*
X138243963Y43523000D01*
X138722514Y43618190D01*
X139173299Y43804911D01*
X139578995Y44075989D01*
X139924011Y44421005D01*
X140195089Y44826701D01*
X140381810Y45277486D01*
X140477000Y45756037D01*
X140477000Y46243963D01*
X140381810Y46722514D01*
X140195089Y47173299D01*
X139924011Y47578995D01*
X139578995Y47924011D01*
X139173299Y48195089D01*
X138722514Y48381810D01*
X138243963Y48477000D01*
X137756037Y48477000D01*
X137277486Y48381810D01*
X136826701Y48195089D01*
X136421005Y47924011D01*
X136075989Y47578995D01*
X135804911Y47173299D01*
X135618190Y46722514D01*
X135523000Y46243963D01*
X113477000Y46243963D01*
X113381810Y46722514D01*
X113195089Y47173299D01*
X112924011Y47578995D01*
X112578995Y47924011D01*
X112173299Y48195089D01*
X111722514Y48381810D01*
X111243963Y48477000D01*
X110756037Y48477000D01*
X110277486Y48381810D01*
X109826701Y48195089D01*
X109421005Y47924011D01*
X109075989Y47578995D01*
X108804911Y47173299D01*
X108618190Y46722514D01*
X108523000Y46243963D01*
X107930246Y46243963D01*
X107965244Y46600897D01*
X108139755Y47178905D01*
X108423214Y47712014D01*
X108804821Y48179911D01*
X109270040Y48564773D01*
X109801154Y48851946D01*
X110377927Y49030486D01*
X111020274Y49098000D01*
X137955887Y49098000D01*
X138600897Y49034756D01*
G36*
X134873000Y-23873000D02*
G01*
X125127000Y-23873000D01*
X125127000Y-19812276D01*
X127107000Y-19812276D01*
X127107000Y-20185164D01*
X127179747Y-20550888D01*
X127322446Y-20895392D01*
X127529611Y-21205437D01*
X127793283Y-21469109D01*
X128103328Y-21676274D01*
X128447832Y-21818973D01*
X128813556Y-21891720D01*
X129186444Y-21891720D01*
X129552168Y-21818973D01*
X129896672Y-21676274D01*
X130206717Y-21469109D01*
X130470389Y-21205437D01*
X130677554Y-20895392D01*
X130820253Y-20550888D01*
X130893000Y-20185164D01*
X130893000Y-19812276D01*
X130820253Y-19446552D01*
X130677554Y-19102048D01*
X130470389Y-18792003D01*
X130206717Y-18528331D01*
X129896672Y-18321166D01*
X129552168Y-18178467D01*
X129186444Y-18105720D01*
X128813556Y-18105720D01*
X128447832Y-18178467D01*
X128103328Y-18321166D01*
X127793283Y-18528331D01*
X127529611Y-18792003D01*
X127322446Y-19102048D01*
X127179747Y-19446552D01*
X127107000Y-19812276D01*
X125127000Y-19812276D01*
X125127000Y-16016000D01*
X127345928Y-16016000D01*
X127358188Y-16140482D01*
X127394498Y-16260180D01*
X127453463Y-16370494D01*
X127532815Y-16467185D01*
X127629506Y-16546537D01*
X127739820Y-16605502D01*
X127859518Y-16641812D01*
X127984000Y-16654072D01*
X128714250Y-16651000D01*
X128873000Y-16492250D01*
X128873000Y-15127000D01*
X129127000Y-15127000D01*
X129127000Y-16492250D01*
X129285750Y-16651000D01*
X130016000Y-16654072D01*
X130140482Y-16641812D01*
X130260180Y-16605502D01*
X130370494Y-16546537D01*
X130467185Y-16467185D01*
X130546537Y-16370494D01*
X130605502Y-16260180D01*
X130641812Y-16140482D01*
X130654072Y-16016000D01*
X130651000Y-15285750D01*
X130492250Y-15127000D01*
X129127000Y-15127000D01*
X128873000Y-15127000D01*
X127507750Y-15127000D01*
X127349000Y-15285750D01*
X127345928Y-16016000D01*
X125127000Y-16016000D01*
X125127000Y-13984000D01*
X127345928Y-13984000D01*
X127349000Y-14714250D01*
X127507750Y-14873000D01*
X128873000Y-14873000D01*
X128873000Y-13507750D01*
X129127000Y-13507750D01*
X129127000Y-14873000D01*
X130492250Y-14873000D01*
X130651000Y-14714250D01*
X130654072Y-13984000D01*
X130641812Y-13859518D01*
X130605502Y-13739820D01*
X130546537Y-13629506D01*
X130467185Y-13532815D01*
X130370494Y-13453463D01*
X130260180Y-13394498D01*
X130140482Y-13358188D01*
X130016000Y-13345928D01*
X129285750Y-13349000D01*
X129127000Y-13507750D01*
X128873000Y-13507750D01*
X128714250Y-13349000D01*
X127984000Y-13345928D01*
X127859518Y-13358188D01*
X127739820Y-13394498D01*
X127629506Y-13453463D01*
X127532815Y-13532815D01*
X127453463Y-13629506D01*
X127394498Y-13739820D01*
X127358188Y-13859518D01*
X127345928Y-13984000D01*
X125127000Y-13984000D01*
X125127000Y-9812276D01*
X127107000Y-9812276D01*
X127107000Y-10185164D01*
X127179747Y-10550888D01*
X127322446Y-10895392D01*
X127529611Y-11205437D01*
X127793283Y-11469109D01*
X128103328Y-11676274D01*
X128447832Y-11818973D01*
X128813556Y-11891720D01*
X129186444Y-11891720D01*
X129552168Y-11818973D01*
X129896672Y-11676274D01*
X130206717Y-11469109D01*
X130470389Y-11205437D01*
X130677554Y-10895392D01*
X130820253Y-10550888D01*
X130893000Y-10185164D01*
X130893000Y-9812276D01*
X130820253Y-9446552D01*
X130677554Y-9102048D01*
X130470389Y-8792003D01*
X130206717Y-8528331D01*
X129896672Y-8321166D01*
X129552168Y-8178467D01*
X129186444Y-8105720D01*
X128813556Y-8105720D01*
X128447832Y-8178467D01*
X128103328Y-8321166D01*
X127793283Y-8528331D01*
X127529611Y-8792003D01*
X127322446Y-9102048D01*
X127179747Y-9446552D01*
X127107000Y-9812276D01*
X125127000Y-9812276D01*
X125127000Y-6016000D01*
X127345928Y-6016000D01*
X127358188Y-6140482D01*
X127394498Y-6260180D01*
X127453463Y-6370494D01*
X127532815Y-6467185D01*
X127629506Y-6546537D01*
X127739820Y-6605502D01*
X127859518Y-6641812D01*
X127984000Y-6654072D01*
X128714250Y-6651000D01*
X128873000Y-6492250D01*
X128873000Y-5127000D01*
X129127000Y-5127000D01*
X129127000Y-6492250D01*
X129285750Y-6651000D01*
X130016000Y-6654072D01*
X130140482Y-6641812D01*
X130260180Y-6605502D01*
X130370494Y-6546537D01*
X130467185Y-6467185D01*
X130546537Y-6370494D01*
X130605502Y-6260180D01*
X130641812Y-6140482D01*
X130654072Y-6016000D01*
X130651000Y-5285750D01*
X130492250Y-5127000D01*
X129127000Y-5127000D01*
X128873000Y-5127000D01*
X127507750Y-5127000D01*
X127349000Y-5285750D01*
X127345928Y-6016000D01*
X125127000Y-6016000D01*
X125127000Y-3984000D01*
X127345928Y-3984000D01*
X127349000Y-4714250D01*
X127507750Y-4873000D01*
X128873000Y-4873000D01*
X128873000Y-3507750D01*
X129127000Y-3507750D01*
X129127000Y-4873000D01*
X130492250Y-4873000D01*
X130651000Y-4714250D01*
X130654072Y-3984000D01*
X130641812Y-3859518D01*
X130605502Y-3739820D01*
X130546537Y-3629506D01*
X130467185Y-3532815D01*
X130370494Y-3453463D01*
X130260180Y-3394498D01*
X130140482Y-3358188D01*
X130016000Y-3345928D01*
X129285750Y-3349000D01*
X129127000Y-3507750D01*
X128873000Y-3507750D01*
X128714250Y-3349000D01*
X127984000Y-3345928D01*
X127859518Y-3358188D01*
X127739820Y-3394498D01*
X127629506Y-3453463D01*
X127532815Y-3532815D01*
X127453463Y-3629506D01*
X127394498Y-3739820D01*
X127358188Y-3859518D01*
X127345928Y-3984000D01*
X125127000Y-3984000D01*
X125127000Y187724D01*
X127107000Y187724D01*
X127107000Y-185164D01*
X127179747Y-550888D01*
X127322446Y-895392D01*
X127529611Y-1205437D01*
X127793283Y-1469109D01*
X128103328Y-1676274D01*
X128447832Y-1818973D01*
X128813556Y-1891720D01*
X129186444Y-1891720D01*
X129552168Y-1818973D01*
X129896672Y-1676274D01*
X130206717Y-1469109D01*
X130470389Y-1205437D01*
X130677554Y-895392D01*
X130820253Y-550888D01*
X130893000Y-185164D01*
X130893000Y187724D01*
X130820253Y553448D01*
X130677554Y897952D01*
X130470389Y1207997D01*
X130206717Y1471669D01*
X129896672Y1678834D01*
X129552168Y1821533D01*
X129186444Y1894280D01*
X128813556Y1894280D01*
X128447832Y1821533D01*
X128103328Y1678834D01*
X127793283Y1471669D01*
X127529611Y1207997D01*
X127322446Y897952D01*
X127179747Y553448D01*
X127107000Y187724D01*
X125127000Y187724D01*
X125127000Y3984000D01*
X127345928Y3984000D01*
X127358188Y3859518D01*
X127394498Y3739820D01*
X127453463Y3629506D01*
X127532815Y3532815D01*
X127629506Y3453463D01*
X127739820Y3394498D01*
X127859518Y3358188D01*
X127984000Y3345928D01*
X128714250Y3349000D01*
X128873000Y3507750D01*
X128873000Y4873000D01*
X129127000Y4873000D01*
X129127000Y3507750D01*
X129285750Y3349000D01*
X130016000Y3345928D01*
X130140482Y3358188D01*
X130260180Y3394498D01*
X130370494Y3453463D01*
X130467185Y3532815D01*
X130546537Y3629506D01*
X130605502Y3739820D01*
X130641812Y3859518D01*
X130654072Y3984000D01*
X130651000Y4714250D01*
X130492250Y4873000D01*
X129127000Y4873000D01*
X128873000Y4873000D01*
X127507750Y4873000D01*
X127349000Y4714250D01*
X127345928Y3984000D01*
X125127000Y3984000D01*
X125127000Y6016000D01*
X127345928Y6016000D01*
X127349000Y5285750D01*
X127507750Y5127000D01*
X128873000Y5127000D01*
X128873000Y6492250D01*
X129127000Y6492250D01*
X129127000Y5127000D01*
X130492250Y5127000D01*
X130651000Y5285750D01*
X130654072Y6016000D01*
X130641812Y6140482D01*
X130605502Y6260180D01*
X130546537Y6370494D01*
X130467185Y6467185D01*
X130370494Y6546537D01*
X130260180Y6605502D01*
X130140482Y6641812D01*
X130016000Y6654072D01*
X129285750Y6651000D01*
X129127000Y6492250D01*
X128873000Y6492250D01*
X128714250Y6651000D01*
X127984000Y6654072D01*
X127859518Y6641812D01*
X127739820Y6605502D01*
X127629506Y6546537D01*
X127532815Y6467185D01*
X127453463Y6370494D01*
X127394498Y6260180D01*
X127358188Y6140482D01*
X127345928Y6016000D01*
X125127000Y6016000D01*
X125127000Y10187724D01*
X127107000Y10187724D01*
X127107000Y9814836D01*
X127179747Y9449112D01*
X127322446Y9104608D01*
X127529611Y8794563D01*
X127793283Y8530891D01*
X128103328Y8323726D01*
X128447832Y8181027D01*
X128813556Y8108280D01*
X129186444Y8108280D01*
X129552168Y8181027D01*
X129896672Y8323726D01*
X130206717Y8530891D01*
X130470389Y8794563D01*
X130677554Y9104608D01*
X130820253Y9449112D01*
X130893000Y9814836D01*
X130893000Y10187724D01*
X130820253Y10553448D01*
X130677554Y10897952D01*
X130470389Y11207997D01*
X130206717Y11471669D01*
X129896672Y11678834D01*
X129552168Y11821533D01*
X129186444Y11894280D01*
X128813556Y11894280D01*
X128447832Y11821533D01*
X128103328Y11678834D01*
X127793283Y11471669D01*
X127529611Y11207997D01*
X127322446Y10897952D01*
X127179747Y10553448D01*
X127107000Y10187724D01*
X125127000Y10187724D01*
X125127000Y13984000D01*
X127345928Y13984000D01*
X127358188Y13859518D01*
X127394498Y13739820D01*
X127453463Y13629506D01*
X127532815Y13532815D01*
X127629506Y13453463D01*
X127739820Y13394498D01*
X127859518Y13358188D01*
X127984000Y13345928D01*
X128714250Y13349000D01*
X128873000Y13507750D01*
X128873000Y14873000D01*
X129127000Y14873000D01*
X129127000Y13507750D01*
X129285750Y13349000D01*
X130016000Y13345928D01*
X130140482Y13358188D01*
X130260180Y13394498D01*
X130370494Y13453463D01*
X130467185Y13532815D01*
X130546537Y13629506D01*
X130605502Y13739820D01*
X130641812Y13859518D01*
X130654072Y13984000D01*
X130651000Y14714250D01*
X130492250Y14873000D01*
X129127000Y14873000D01*
X128873000Y14873000D01*
X127507750Y14873000D01*
X127349000Y14714250D01*
X127345928Y13984000D01*
X125127000Y13984000D01*
X125127000Y16016000D01*
X127345928Y16016000D01*
X127349000Y15285750D01*
X127507750Y15127000D01*
X128873000Y15127000D01*
X128873000Y16492250D01*
X129127000Y16492250D01*
X129127000Y15127000D01*
X130492250Y15127000D01*
X130651000Y15285750D01*
X130654072Y16016000D01*
X130641812Y16140482D01*
X130605502Y16260180D01*
X130546537Y16370494D01*
X130467185Y16467185D01*
X130370494Y16546537D01*
X130260180Y16605502D01*
X130140482Y16641812D01*
X130016000Y16654072D01*
X129285750Y16651000D01*
X129127000Y16492250D01*
X128873000Y16492250D01*
X128714250Y16651000D01*
X127984000Y16654072D01*
X127859518Y16641812D01*
X127739820Y16605502D01*
X127629506Y16546537D01*
X127532815Y16467185D01*
X127453463Y16370494D01*
X127394498Y16260180D01*
X127358188Y16140482D01*
X127345928Y16016000D01*
X125127000Y16016000D01*
X125127000Y18873000D01*
X134873000Y18873000D01*
X134873000Y-23873000D01*
X134873000Y-23873000D01*
G37*
X134873000Y-23873000D02*
X125127000Y-23873000D01*
X125127000Y-19812276D01*
X127107000Y-19812276D01*
X127107000Y-20185164D01*
X127179747Y-20550888D01*
X127322446Y-20895392D01*
X127529611Y-21205437D01*
X127793283Y-21469109D01*
X128103328Y-21676274D01*
X128447832Y-21818973D01*
X128813556Y-21891720D01*
X129186444Y-21891720D01*
X129552168Y-21818973D01*
X129896672Y-21676274D01*
X130206717Y-21469109D01*
X130470389Y-21205437D01*
X130677554Y-20895392D01*
X130820253Y-20550888D01*
X130893000Y-20185164D01*
X130893000Y-19812276D01*
X130820253Y-19446552D01*
X130677554Y-19102048D01*
X130470389Y-18792003D01*
X130206717Y-18528331D01*
X129896672Y-18321166D01*
X129552168Y-18178467D01*
X129186444Y-18105720D01*
X128813556Y-18105720D01*
X128447832Y-18178467D01*
X128103328Y-18321166D01*
X127793283Y-18528331D01*
X127529611Y-18792003D01*
X127322446Y-19102048D01*
X127179747Y-19446552D01*
X127107000Y-19812276D01*
X125127000Y-19812276D01*
X125127000Y-16016000D01*
X127345928Y-16016000D01*
X127358188Y-16140482D01*
X127394498Y-16260180D01*
X127453463Y-16370494D01*
X127532815Y-16467185D01*
X127629506Y-16546537D01*
X127739820Y-16605502D01*
X127859518Y-16641812D01*
X127984000Y-16654072D01*
X128714250Y-16651000D01*
X128873000Y-16492250D01*
X128873000Y-15127000D01*
X129127000Y-15127000D01*
X129127000Y-16492250D01*
X129285750Y-16651000D01*
X130016000Y-16654072D01*
X130140482Y-16641812D01*
X130260180Y-16605502D01*
X130370494Y-16546537D01*
X130467185Y-16467185D01*
X130546537Y-16370494D01*
X130605502Y-16260180D01*
X130641812Y-16140482D01*
X130654072Y-16016000D01*
X130651000Y-15285750D01*
X130492250Y-15127000D01*
X129127000Y-15127000D01*
X128873000Y-15127000D01*
X127507750Y-15127000D01*
X127349000Y-15285750D01*
X127345928Y-16016000D01*
X125127000Y-16016000D01*
X125127000Y-13984000D01*
X127345928Y-13984000D01*
X127349000Y-14714250D01*
X127507750Y-14873000D01*
X128873000Y-14873000D01*
X128873000Y-13507750D01*
X129127000Y-13507750D01*
X129127000Y-14873000D01*
X130492250Y-14873000D01*
X130651000Y-14714250D01*
X130654072Y-13984000D01*
X130641812Y-13859518D01*
X130605502Y-13739820D01*
X130546537Y-13629506D01*
X130467185Y-13532815D01*
X130370494Y-13453463D01*
X130260180Y-13394498D01*
X130140482Y-13358188D01*
X130016000Y-13345928D01*
X129285750Y-13349000D01*
X129127000Y-13507750D01*
X128873000Y-13507750D01*
X128714250Y-13349000D01*
X127984000Y-13345928D01*
X127859518Y-13358188D01*
X127739820Y-13394498D01*
X127629506Y-13453463D01*
X127532815Y-13532815D01*
X127453463Y-13629506D01*
X127394498Y-13739820D01*
X127358188Y-13859518D01*
X127345928Y-13984000D01*
X125127000Y-13984000D01*
X125127000Y-9812276D01*
X127107000Y-9812276D01*
X127107000Y-10185164D01*
X127179747Y-10550888D01*
X127322446Y-10895392D01*
X127529611Y-11205437D01*
X127793283Y-11469109D01*
X128103328Y-11676274D01*
X128447832Y-11818973D01*
X128813556Y-11891720D01*
X129186444Y-11891720D01*
X129552168Y-11818973D01*
X129896672Y-11676274D01*
X130206717Y-11469109D01*
X130470389Y-11205437D01*
X130677554Y-10895392D01*
X130820253Y-10550888D01*
X130893000Y-10185164D01*
X130893000Y-9812276D01*
X130820253Y-9446552D01*
X130677554Y-9102048D01*
X130470389Y-8792003D01*
X130206717Y-8528331D01*
X129896672Y-8321166D01*
X129552168Y-8178467D01*
X129186444Y-8105720D01*
X128813556Y-8105720D01*
X128447832Y-8178467D01*
X128103328Y-8321166D01*
X127793283Y-8528331D01*
X127529611Y-8792003D01*
X127322446Y-9102048D01*
X127179747Y-9446552D01*
X127107000Y-9812276D01*
X125127000Y-9812276D01*
X125127000Y-6016000D01*
X127345928Y-6016000D01*
X127358188Y-6140482D01*
X127394498Y-6260180D01*
X127453463Y-6370494D01*
X127532815Y-6467185D01*
X127629506Y-6546537D01*
X127739820Y-6605502D01*
X127859518Y-6641812D01*
X127984000Y-6654072D01*
X128714250Y-6651000D01*
X128873000Y-6492250D01*
X128873000Y-5127000D01*
X129127000Y-5127000D01*
X129127000Y-6492250D01*
X129285750Y-6651000D01*
X130016000Y-6654072D01*
X130140482Y-6641812D01*
X130260180Y-6605502D01*
X130370494Y-6546537D01*
X130467185Y-6467185D01*
X130546537Y-6370494D01*
X130605502Y-6260180D01*
X130641812Y-6140482D01*
X130654072Y-6016000D01*
X130651000Y-5285750D01*
X130492250Y-5127000D01*
X129127000Y-5127000D01*
X128873000Y-5127000D01*
X127507750Y-5127000D01*
X127349000Y-5285750D01*
X127345928Y-6016000D01*
X125127000Y-6016000D01*
X125127000Y-3984000D01*
X127345928Y-3984000D01*
X127349000Y-4714250D01*
X127507750Y-4873000D01*
X128873000Y-4873000D01*
X128873000Y-3507750D01*
X129127000Y-3507750D01*
X129127000Y-4873000D01*
X130492250Y-4873000D01*
X130651000Y-4714250D01*
X130654072Y-3984000D01*
X130641812Y-3859518D01*
X130605502Y-3739820D01*
X130546537Y-3629506D01*
X130467185Y-3532815D01*
X130370494Y-3453463D01*
X130260180Y-3394498D01*
X130140482Y-3358188D01*
X130016000Y-3345928D01*
X129285750Y-3349000D01*
X129127000Y-3507750D01*
X128873000Y-3507750D01*
X128714250Y-3349000D01*
X127984000Y-3345928D01*
X127859518Y-3358188D01*
X127739820Y-3394498D01*
X127629506Y-3453463D01*
X127532815Y-3532815D01*
X127453463Y-3629506D01*
X127394498Y-3739820D01*
X127358188Y-3859518D01*
X127345928Y-3984000D01*
X125127000Y-3984000D01*
X125127000Y187724D01*
X127107000Y187724D01*
X127107000Y-185164D01*
X127179747Y-550888D01*
X127322446Y-895392D01*
X127529611Y-1205437D01*
X127793283Y-1469109D01*
X128103328Y-1676274D01*
X128447832Y-1818973D01*
X128813556Y-1891720D01*
X129186444Y-1891720D01*
X129552168Y-1818973D01*
X129896672Y-1676274D01*
X130206717Y-1469109D01*
X130470389Y-1205437D01*
X130677554Y-895392D01*
X130820253Y-550888D01*
X130893000Y-185164D01*
X130893000Y187724D01*
X130820253Y553448D01*
X130677554Y897952D01*
X130470389Y1207997D01*
X130206717Y1471669D01*
X129896672Y1678834D01*
X129552168Y1821533D01*
X129186444Y1894280D01*
X128813556Y1894280D01*
X128447832Y1821533D01*
X128103328Y1678834D01*
X127793283Y1471669D01*
X127529611Y1207997D01*
X127322446Y897952D01*
X127179747Y553448D01*
X127107000Y187724D01*
X125127000Y187724D01*
X125127000Y3984000D01*
X127345928Y3984000D01*
X127358188Y3859518D01*
X127394498Y3739820D01*
X127453463Y3629506D01*
X127532815Y3532815D01*
X127629506Y3453463D01*
X127739820Y3394498D01*
X127859518Y3358188D01*
X127984000Y3345928D01*
X128714250Y3349000D01*
X128873000Y3507750D01*
X128873000Y4873000D01*
X129127000Y4873000D01*
X129127000Y3507750D01*
X129285750Y3349000D01*
X130016000Y3345928D01*
X130140482Y3358188D01*
X130260180Y3394498D01*
X130370494Y3453463D01*
X130467185Y3532815D01*
X130546537Y3629506D01*
X130605502Y3739820D01*
X130641812Y3859518D01*
X130654072Y3984000D01*
X130651000Y4714250D01*
X130492250Y4873000D01*
X129127000Y4873000D01*
X128873000Y4873000D01*
X127507750Y4873000D01*
X127349000Y4714250D01*
X127345928Y3984000D01*
X125127000Y3984000D01*
X125127000Y6016000D01*
X127345928Y6016000D01*
X127349000Y5285750D01*
X127507750Y5127000D01*
X128873000Y5127000D01*
X128873000Y6492250D01*
X129127000Y6492250D01*
X129127000Y5127000D01*
X130492250Y5127000D01*
X130651000Y5285750D01*
X130654072Y6016000D01*
X130641812Y6140482D01*
X130605502Y6260180D01*
X130546537Y6370494D01*
X130467185Y6467185D01*
X130370494Y6546537D01*
X130260180Y6605502D01*
X130140482Y6641812D01*
X130016000Y6654072D01*
X129285750Y6651000D01*
X129127000Y6492250D01*
X128873000Y6492250D01*
X128714250Y6651000D01*
X127984000Y6654072D01*
X127859518Y6641812D01*
X127739820Y6605502D01*
X127629506Y6546537D01*
X127532815Y6467185D01*
X127453463Y6370494D01*
X127394498Y6260180D01*
X127358188Y6140482D01*
X127345928Y6016000D01*
X125127000Y6016000D01*
X125127000Y10187724D01*
X127107000Y10187724D01*
X127107000Y9814836D01*
X127179747Y9449112D01*
X127322446Y9104608D01*
X127529611Y8794563D01*
X127793283Y8530891D01*
X128103328Y8323726D01*
X128447832Y8181027D01*
X128813556Y8108280D01*
X129186444Y8108280D01*
X129552168Y8181027D01*
X129896672Y8323726D01*
X130206717Y8530891D01*
X130470389Y8794563D01*
X130677554Y9104608D01*
X130820253Y9449112D01*
X130893000Y9814836D01*
X130893000Y10187724D01*
X130820253Y10553448D01*
X130677554Y10897952D01*
X130470389Y11207997D01*
X130206717Y11471669D01*
X129896672Y11678834D01*
X129552168Y11821533D01*
X129186444Y11894280D01*
X128813556Y11894280D01*
X128447832Y11821533D01*
X128103328Y11678834D01*
X127793283Y11471669D01*
X127529611Y11207997D01*
X127322446Y10897952D01*
X127179747Y10553448D01*
X127107000Y10187724D01*
X125127000Y10187724D01*
X125127000Y13984000D01*
X127345928Y13984000D01*
X127358188Y13859518D01*
X127394498Y13739820D01*
X127453463Y13629506D01*
X127532815Y13532815D01*
X127629506Y13453463D01*
X127739820Y13394498D01*
X127859518Y13358188D01*
X127984000Y13345928D01*
X128714250Y13349000D01*
X128873000Y13507750D01*
X128873000Y14873000D01*
X129127000Y14873000D01*
X129127000Y13507750D01*
X129285750Y13349000D01*
X130016000Y13345928D01*
X130140482Y13358188D01*
X130260180Y13394498D01*
X130370494Y13453463D01*
X130467185Y13532815D01*
X130546537Y13629506D01*
X130605502Y13739820D01*
X130641812Y13859518D01*
X130654072Y13984000D01*
X130651000Y14714250D01*
X130492250Y14873000D01*
X129127000Y14873000D01*
X128873000Y14873000D01*
X127507750Y14873000D01*
X127349000Y14714250D01*
X127345928Y13984000D01*
X125127000Y13984000D01*
X125127000Y16016000D01*
X127345928Y16016000D01*
X127349000Y15285750D01*
X127507750Y15127000D01*
X128873000Y15127000D01*
X128873000Y16492250D01*
X129127000Y16492250D01*
X129127000Y15127000D01*
X130492250Y15127000D01*
X130651000Y15285750D01*
X130654072Y16016000D01*
X130641812Y16140482D01*
X130605502Y16260180D01*
X130546537Y16370494D01*
X130467185Y16467185D01*
X130370494Y16546537D01*
X130260180Y16605502D01*
X130140482Y16641812D01*
X130016000Y16654072D01*
X129285750Y16651000D01*
X129127000Y16492250D01*
X128873000Y16492250D01*
X128714250Y16651000D01*
X127984000Y16654072D01*
X127859518Y16641812D01*
X127739820Y16605502D01*
X127629506Y16546537D01*
X127532815Y16467185D01*
X127453463Y16370494D01*
X127394498Y16260180D01*
X127358188Y16140482D01*
X127345928Y16016000D01*
X125127000Y16016000D01*
X125127000Y18873000D01*
X134873000Y18873000D01*
X134873000Y-23873000D01*
G36*
X123873000Y-23873000D02*
G01*
X114127000Y-23873000D01*
X114127000Y-18984000D01*
X118352757Y-18984000D01*
X118352757Y-21016000D01*
X118369690Y-21187922D01*
X118419838Y-21353237D01*
X118501273Y-21505592D01*
X118610867Y-21639133D01*
X118744408Y-21748727D01*
X118896763Y-21830162D01*
X119062078Y-21880310D01*
X119234000Y-21897243D01*
X121266000Y-21897243D01*
X121437922Y-21880310D01*
X121603237Y-21830162D01*
X121755592Y-21748727D01*
X121889133Y-21639133D01*
X121998727Y-21505592D01*
X122080162Y-21353237D01*
X122130310Y-21187922D01*
X122147243Y-21016000D01*
X122147243Y-18984000D01*
X122130310Y-18812078D01*
X122080162Y-18646763D01*
X121998727Y-18494408D01*
X121889133Y-18360867D01*
X121755592Y-18251273D01*
X121603237Y-18169838D01*
X121437922Y-18119690D01*
X121266000Y-18102757D01*
X119234000Y-18102757D01*
X119062078Y-18119690D01*
X118896763Y-18169838D01*
X118744408Y-18251273D01*
X118610867Y-18360867D01*
X118501273Y-18494408D01*
X118419838Y-18646763D01*
X118369690Y-18812078D01*
X118352757Y-18984000D01*
X114127000Y-18984000D01*
X114127000Y-16148103D01*
X119282782Y-16148103D01*
X119380478Y-16414140D01*
X119672821Y-16556628D01*
X119987344Y-16639344D01*
X120311962Y-16659111D01*
X120634198Y-16615168D01*
X120941670Y-16509204D01*
X121119522Y-16414140D01*
X121217218Y-16148103D01*
X120250000Y-15180885D01*
X119282782Y-16148103D01*
X114127000Y-16148103D01*
X114127000Y-15063242D01*
X118592169Y-15063242D01*
X118636112Y-15385478D01*
X118742076Y-15692950D01*
X118837140Y-15870802D01*
X119103177Y-15968498D01*
X120070395Y-15001280D01*
X120429605Y-15001280D01*
X121396823Y-15968498D01*
X121662860Y-15870802D01*
X121805348Y-15578459D01*
X121888064Y-15263936D01*
X121907831Y-14939318D01*
X121863888Y-14617082D01*
X121757924Y-14309610D01*
X121662860Y-14131758D01*
X121396823Y-14034062D01*
X120429605Y-15001280D01*
X120070395Y-15001280D01*
X119103177Y-14034062D01*
X118837140Y-14131758D01*
X118694652Y-14424101D01*
X118611936Y-14738624D01*
X118592169Y-15063242D01*
X114127000Y-15063242D01*
X114127000Y-13854457D01*
X119282782Y-13854457D01*
X120250000Y-14821675D01*
X121217218Y-13854457D01*
X121119522Y-13588420D01*
X120827179Y-13445932D01*
X120512656Y-13363216D01*
X120188038Y-13343449D01*
X119865802Y-13387392D01*
X119558330Y-13493356D01*
X119380478Y-13588420D01*
X119282782Y-13854457D01*
X114127000Y-13854457D01*
X114127000Y-8984000D01*
X118352757Y-8984000D01*
X118352757Y-11016000D01*
X118369690Y-11187922D01*
X118419838Y-11353237D01*
X118501273Y-11505592D01*
X118610867Y-11639133D01*
X118744408Y-11748727D01*
X118896763Y-11830162D01*
X119062078Y-11880310D01*
X119234000Y-11897243D01*
X121266000Y-11897243D01*
X121437922Y-11880310D01*
X121603237Y-11830162D01*
X121755592Y-11748727D01*
X121889133Y-11639133D01*
X121998727Y-11505592D01*
X122080162Y-11353237D01*
X122130310Y-11187922D01*
X122147243Y-11016000D01*
X122147243Y-8984000D01*
X122130310Y-8812078D01*
X122080162Y-8646763D01*
X121998727Y-8494408D01*
X121889133Y-8360867D01*
X121755592Y-8251273D01*
X121603237Y-8169838D01*
X121437922Y-8119690D01*
X121266000Y-8102757D01*
X119234000Y-8102757D01*
X119062078Y-8119690D01*
X118896763Y-8169838D01*
X118744408Y-8251273D01*
X118610867Y-8360867D01*
X118501273Y-8494408D01*
X118419838Y-8646763D01*
X118369690Y-8812078D01*
X118352757Y-8984000D01*
X114127000Y-8984000D01*
X114127000Y-6148103D01*
X119282782Y-6148103D01*
X119380478Y-6414140D01*
X119672821Y-6556628D01*
X119987344Y-6639344D01*
X120311962Y-6659111D01*
X120634198Y-6615168D01*
X120941670Y-6509204D01*
X121119522Y-6414140D01*
X121217218Y-6148103D01*
X120250000Y-5180885D01*
X119282782Y-6148103D01*
X114127000Y-6148103D01*
X114127000Y-5063242D01*
X118592169Y-5063242D01*
X118636112Y-5385478D01*
X118742076Y-5692950D01*
X118837140Y-5870802D01*
X119103177Y-5968498D01*
X120070395Y-5001280D01*
X120429605Y-5001280D01*
X121396823Y-5968498D01*
X121662860Y-5870802D01*
X121805348Y-5578459D01*
X121888064Y-5263936D01*
X121907831Y-4939318D01*
X121863888Y-4617082D01*
X121757924Y-4309610D01*
X121662860Y-4131758D01*
X121396823Y-4034062D01*
X120429605Y-5001280D01*
X120070395Y-5001280D01*
X119103177Y-4034062D01*
X118837140Y-4131758D01*
X118694652Y-4424101D01*
X118611936Y-4738624D01*
X118592169Y-5063242D01*
X114127000Y-5063242D01*
X114127000Y-3854457D01*
X119282782Y-3854457D01*
X120250000Y-4821675D01*
X121217218Y-3854457D01*
X121119522Y-3588420D01*
X120827179Y-3445932D01*
X120512656Y-3363216D01*
X120188038Y-3343449D01*
X119865802Y-3387392D01*
X119558330Y-3493356D01*
X119380478Y-3588420D01*
X119282782Y-3854457D01*
X114127000Y-3854457D01*
X114127000Y1016000D01*
X118352757Y1016000D01*
X118352757Y-1016000D01*
X118369690Y-1187922D01*
X118419838Y-1353237D01*
X118501273Y-1505592D01*
X118610867Y-1639133D01*
X118744408Y-1748727D01*
X118896763Y-1830162D01*
X119062078Y-1880310D01*
X119234000Y-1897243D01*
X121266000Y-1897243D01*
X121437922Y-1880310D01*
X121603237Y-1830162D01*
X121755592Y-1748727D01*
X121889133Y-1639133D01*
X121998727Y-1505592D01*
X122080162Y-1353237D01*
X122130310Y-1187922D01*
X122147243Y-1016000D01*
X122147243Y1016000D01*
X122130310Y1187922D01*
X122080162Y1353237D01*
X121998727Y1505592D01*
X121889133Y1639133D01*
X121755592Y1748727D01*
X121603237Y1830162D01*
X121437922Y1880310D01*
X121266000Y1897243D01*
X119234000Y1897243D01*
X119062078Y1880310D01*
X118896763Y1830162D01*
X118744408Y1748727D01*
X118610867Y1639133D01*
X118501273Y1505592D01*
X118419838Y1353237D01*
X118369690Y1187922D01*
X118352757Y1016000D01*
X114127000Y1016000D01*
X114127000Y3851897D01*
X119282782Y3851897D01*
X119380478Y3585860D01*
X119672821Y3443372D01*
X119987344Y3360656D01*
X120311962Y3340889D01*
X120634198Y3384832D01*
X120941670Y3490796D01*
X121119522Y3585860D01*
X121217218Y3851897D01*
X120250000Y4819115D01*
X119282782Y3851897D01*
X114127000Y3851897D01*
X114127000Y4936758D01*
X118592169Y4936758D01*
X118636112Y4614522D01*
X118742076Y4307050D01*
X118837140Y4129198D01*
X119103177Y4031502D01*
X120070395Y4998720D01*
X120429605Y4998720D01*
X121396823Y4031502D01*
X121662860Y4129198D01*
X121805348Y4421541D01*
X121888064Y4736064D01*
X121907831Y5060682D01*
X121863888Y5382918D01*
X121757924Y5690390D01*
X121662860Y5868242D01*
X121396823Y5965938D01*
X120429605Y4998720D01*
X120070395Y4998720D01*
X119103177Y5965938D01*
X118837140Y5868242D01*
X118694652Y5575899D01*
X118611936Y5261376D01*
X118592169Y4936758D01*
X114127000Y4936758D01*
X114127000Y6145543D01*
X119282782Y6145543D01*
X120250000Y5178325D01*
X121217218Y6145543D01*
X121119522Y6411580D01*
X120827179Y6554068D01*
X120512656Y6636784D01*
X120188038Y6656551D01*
X119865802Y6612608D01*
X119558330Y6506644D01*
X119380478Y6411580D01*
X119282782Y6145543D01*
X114127000Y6145543D01*
X114127000Y11016000D01*
X118387757Y11016000D01*
X118387757Y8984000D01*
X118404690Y8812078D01*
X118454838Y8646763D01*
X118536273Y8494408D01*
X118645867Y8360867D01*
X118779408Y8251273D01*
X118931763Y8169838D01*
X119097078Y8119690D01*
X119269000Y8102757D01*
X121301000Y8102757D01*
X121472922Y8119690D01*
X121638237Y8169838D01*
X121790592Y8251273D01*
X121924133Y8360867D01*
X122033727Y8494408D01*
X122115162Y8646763D01*
X122165310Y8812078D01*
X122182243Y8984000D01*
X122182243Y11016000D01*
X122165310Y11187922D01*
X122115162Y11353237D01*
X122033727Y11505592D01*
X121924133Y11639133D01*
X121790592Y11748727D01*
X121638237Y11830162D01*
X121472922Y11880310D01*
X121301000Y11897243D01*
X119269000Y11897243D01*
X119097078Y11880310D01*
X118931763Y11830162D01*
X118779408Y11748727D01*
X118645867Y11639133D01*
X118536273Y11505592D01*
X118454838Y11353237D01*
X118404690Y11187922D01*
X118387757Y11016000D01*
X114127000Y11016000D01*
X114127000Y13851897D01*
X119317782Y13851897D01*
X119415478Y13585860D01*
X119707821Y13443372D01*
X120022344Y13360656D01*
X120346962Y13340889D01*
X120669198Y13384832D01*
X120976670Y13490796D01*
X121154522Y13585860D01*
X121252218Y13851897D01*
X120285000Y14819115D01*
X119317782Y13851897D01*
X114127000Y13851897D01*
X114127000Y14936758D01*
X118627169Y14936758D01*
X118671112Y14614522D01*
X118777076Y14307050D01*
X118872140Y14129198D01*
X119138177Y14031502D01*
X120105395Y14998720D01*
X120464605Y14998720D01*
X121431823Y14031502D01*
X121697860Y14129198D01*
X121840348Y14421541D01*
X121923064Y14736064D01*
X121942831Y15060682D01*
X121898888Y15382918D01*
X121792924Y15690390D01*
X121697860Y15868242D01*
X121431823Y15965938D01*
X120464605Y14998720D01*
X120105395Y14998720D01*
X119138177Y15965938D01*
X118872140Y15868242D01*
X118729652Y15575899D01*
X118646936Y15261376D01*
X118627169Y14936758D01*
X114127000Y14936758D01*
X114127000Y16145543D01*
X119317782Y16145543D01*
X120285000Y15178325D01*
X121252218Y16145543D01*
X121154522Y16411580D01*
X120862179Y16554068D01*
X120547656Y16636784D01*
X120223038Y16656551D01*
X119900802Y16612608D01*
X119593330Y16506644D01*
X119415478Y16411580D01*
X119317782Y16145543D01*
X114127000Y16145543D01*
X114127000Y18873000D01*
X123873000Y18873000D01*
X123873000Y-23873000D01*
X123873000Y-23873000D01*
G37*
X123873000Y-23873000D02*
X114127000Y-23873000D01*
X114127000Y-18984000D01*
X118352757Y-18984000D01*
X118352757Y-21016000D01*
X118369690Y-21187922D01*
X118419838Y-21353237D01*
X118501273Y-21505592D01*
X118610867Y-21639133D01*
X118744408Y-21748727D01*
X118896763Y-21830162D01*
X119062078Y-21880310D01*
X119234000Y-21897243D01*
X121266000Y-21897243D01*
X121437922Y-21880310D01*
X121603237Y-21830162D01*
X121755592Y-21748727D01*
X121889133Y-21639133D01*
X121998727Y-21505592D01*
X122080162Y-21353237D01*
X122130310Y-21187922D01*
X122147243Y-21016000D01*
X122147243Y-18984000D01*
X122130310Y-18812078D01*
X122080162Y-18646763D01*
X121998727Y-18494408D01*
X121889133Y-18360867D01*
X121755592Y-18251273D01*
X121603237Y-18169838D01*
X121437922Y-18119690D01*
X121266000Y-18102757D01*
X119234000Y-18102757D01*
X119062078Y-18119690D01*
X118896763Y-18169838D01*
X118744408Y-18251273D01*
X118610867Y-18360867D01*
X118501273Y-18494408D01*
X118419838Y-18646763D01*
X118369690Y-18812078D01*
X118352757Y-18984000D01*
X114127000Y-18984000D01*
X114127000Y-16148103D01*
X119282782Y-16148103D01*
X119380478Y-16414140D01*
X119672821Y-16556628D01*
X119987344Y-16639344D01*
X120311962Y-16659111D01*
X120634198Y-16615168D01*
X120941670Y-16509204D01*
X121119522Y-16414140D01*
X121217218Y-16148103D01*
X120250000Y-15180885D01*
X119282782Y-16148103D01*
X114127000Y-16148103D01*
X114127000Y-15063242D01*
X118592169Y-15063242D01*
X118636112Y-15385478D01*
X118742076Y-15692950D01*
X118837140Y-15870802D01*
X119103177Y-15968498D01*
X120070395Y-15001280D01*
X120429605Y-15001280D01*
X121396823Y-15968498D01*
X121662860Y-15870802D01*
X121805348Y-15578459D01*
X121888064Y-15263936D01*
X121907831Y-14939318D01*
X121863888Y-14617082D01*
X121757924Y-14309610D01*
X121662860Y-14131758D01*
X121396823Y-14034062D01*
X120429605Y-15001280D01*
X120070395Y-15001280D01*
X119103177Y-14034062D01*
X118837140Y-14131758D01*
X118694652Y-14424101D01*
X118611936Y-14738624D01*
X118592169Y-15063242D01*
X114127000Y-15063242D01*
X114127000Y-13854457D01*
X119282782Y-13854457D01*
X120250000Y-14821675D01*
X121217218Y-13854457D01*
X121119522Y-13588420D01*
X120827179Y-13445932D01*
X120512656Y-13363216D01*
X120188038Y-13343449D01*
X119865802Y-13387392D01*
X119558330Y-13493356D01*
X119380478Y-13588420D01*
X119282782Y-13854457D01*
X114127000Y-13854457D01*
X114127000Y-8984000D01*
X118352757Y-8984000D01*
X118352757Y-11016000D01*
X118369690Y-11187922D01*
X118419838Y-11353237D01*
X118501273Y-11505592D01*
X118610867Y-11639133D01*
X118744408Y-11748727D01*
X118896763Y-11830162D01*
X119062078Y-11880310D01*
X119234000Y-11897243D01*
X121266000Y-11897243D01*
X121437922Y-11880310D01*
X121603237Y-11830162D01*
X121755592Y-11748727D01*
X121889133Y-11639133D01*
X121998727Y-11505592D01*
X122080162Y-11353237D01*
X122130310Y-11187922D01*
X122147243Y-11016000D01*
X122147243Y-8984000D01*
X122130310Y-8812078D01*
X122080162Y-8646763D01*
X121998727Y-8494408D01*
X121889133Y-8360867D01*
X121755592Y-8251273D01*
X121603237Y-8169838D01*
X121437922Y-8119690D01*
X121266000Y-8102757D01*
X119234000Y-8102757D01*
X119062078Y-8119690D01*
X118896763Y-8169838D01*
X118744408Y-8251273D01*
X118610867Y-8360867D01*
X118501273Y-8494408D01*
X118419838Y-8646763D01*
X118369690Y-8812078D01*
X118352757Y-8984000D01*
X114127000Y-8984000D01*
X114127000Y-6148103D01*
X119282782Y-6148103D01*
X119380478Y-6414140D01*
X119672821Y-6556628D01*
X119987344Y-6639344D01*
X120311962Y-6659111D01*
X120634198Y-6615168D01*
X120941670Y-6509204D01*
X121119522Y-6414140D01*
X121217218Y-6148103D01*
X120250000Y-5180885D01*
X119282782Y-6148103D01*
X114127000Y-6148103D01*
X114127000Y-5063242D01*
X118592169Y-5063242D01*
X118636112Y-5385478D01*
X118742076Y-5692950D01*
X118837140Y-5870802D01*
X119103177Y-5968498D01*
X120070395Y-5001280D01*
X120429605Y-5001280D01*
X121396823Y-5968498D01*
X121662860Y-5870802D01*
X121805348Y-5578459D01*
X121888064Y-5263936D01*
X121907831Y-4939318D01*
X121863888Y-4617082D01*
X121757924Y-4309610D01*
X121662860Y-4131758D01*
X121396823Y-4034062D01*
X120429605Y-5001280D01*
X120070395Y-5001280D01*
X119103177Y-4034062D01*
X118837140Y-4131758D01*
X118694652Y-4424101D01*
X118611936Y-4738624D01*
X118592169Y-5063242D01*
X114127000Y-5063242D01*
X114127000Y-3854457D01*
X119282782Y-3854457D01*
X120250000Y-4821675D01*
X121217218Y-3854457D01*
X121119522Y-3588420D01*
X120827179Y-3445932D01*
X120512656Y-3363216D01*
X120188038Y-3343449D01*
X119865802Y-3387392D01*
X119558330Y-3493356D01*
X119380478Y-3588420D01*
X119282782Y-3854457D01*
X114127000Y-3854457D01*
X114127000Y1016000D01*
X118352757Y1016000D01*
X118352757Y-1016000D01*
X118369690Y-1187922D01*
X118419838Y-1353237D01*
X118501273Y-1505592D01*
X118610867Y-1639133D01*
X118744408Y-1748727D01*
X118896763Y-1830162D01*
X119062078Y-1880310D01*
X119234000Y-1897243D01*
X121266000Y-1897243D01*
X121437922Y-1880310D01*
X121603237Y-1830162D01*
X121755592Y-1748727D01*
X121889133Y-1639133D01*
X121998727Y-1505592D01*
X122080162Y-1353237D01*
X122130310Y-1187922D01*
X122147243Y-1016000D01*
X122147243Y1016000D01*
X122130310Y1187922D01*
X122080162Y1353237D01*
X121998727Y1505592D01*
X121889133Y1639133D01*
X121755592Y1748727D01*
X121603237Y1830162D01*
X121437922Y1880310D01*
X121266000Y1897243D01*
X119234000Y1897243D01*
X119062078Y1880310D01*
X118896763Y1830162D01*
X118744408Y1748727D01*
X118610867Y1639133D01*
X118501273Y1505592D01*
X118419838Y1353237D01*
X118369690Y1187922D01*
X118352757Y1016000D01*
X114127000Y1016000D01*
X114127000Y3851897D01*
X119282782Y3851897D01*
X119380478Y3585860D01*
X119672821Y3443372D01*
X119987344Y3360656D01*
X120311962Y3340889D01*
X120634198Y3384832D01*
X120941670Y3490796D01*
X121119522Y3585860D01*
X121217218Y3851897D01*
X120250000Y4819115D01*
X119282782Y3851897D01*
X114127000Y3851897D01*
X114127000Y4936758D01*
X118592169Y4936758D01*
X118636112Y4614522D01*
X118742076Y4307050D01*
X118837140Y4129198D01*
X119103177Y4031502D01*
X120070395Y4998720D01*
X120429605Y4998720D01*
X121396823Y4031502D01*
X121662860Y4129198D01*
X121805348Y4421541D01*
X121888064Y4736064D01*
X121907831Y5060682D01*
X121863888Y5382918D01*
X121757924Y5690390D01*
X121662860Y5868242D01*
X121396823Y5965938D01*
X120429605Y4998720D01*
X120070395Y4998720D01*
X119103177Y5965938D01*
X118837140Y5868242D01*
X118694652Y5575899D01*
X118611936Y5261376D01*
X118592169Y4936758D01*
X114127000Y4936758D01*
X114127000Y6145543D01*
X119282782Y6145543D01*
X120250000Y5178325D01*
X121217218Y6145543D01*
X121119522Y6411580D01*
X120827179Y6554068D01*
X120512656Y6636784D01*
X120188038Y6656551D01*
X119865802Y6612608D01*
X119558330Y6506644D01*
X119380478Y6411580D01*
X119282782Y6145543D01*
X114127000Y6145543D01*
X114127000Y11016000D01*
X118387757Y11016000D01*
X118387757Y8984000D01*
X118404690Y8812078D01*
X118454838Y8646763D01*
X118536273Y8494408D01*
X118645867Y8360867D01*
X118779408Y8251273D01*
X118931763Y8169838D01*
X119097078Y8119690D01*
X119269000Y8102757D01*
X121301000Y8102757D01*
X121472922Y8119690D01*
X121638237Y8169838D01*
X121790592Y8251273D01*
X121924133Y8360867D01*
X122033727Y8494408D01*
X122115162Y8646763D01*
X122165310Y8812078D01*
X122182243Y8984000D01*
X122182243Y11016000D01*
X122165310Y11187922D01*
X122115162Y11353237D01*
X122033727Y11505592D01*
X121924133Y11639133D01*
X121790592Y11748727D01*
X121638237Y11830162D01*
X121472922Y11880310D01*
X121301000Y11897243D01*
X119269000Y11897243D01*
X119097078Y11880310D01*
X118931763Y11830162D01*
X118779408Y11748727D01*
X118645867Y11639133D01*
X118536273Y11505592D01*
X118454838Y11353237D01*
X118404690Y11187922D01*
X118387757Y11016000D01*
X114127000Y11016000D01*
X114127000Y13851897D01*
X119317782Y13851897D01*
X119415478Y13585860D01*
X119707821Y13443372D01*
X120022344Y13360656D01*
X120346962Y13340889D01*
X120669198Y13384832D01*
X120976670Y13490796D01*
X121154522Y13585860D01*
X121252218Y13851897D01*
X120285000Y14819115D01*
X119317782Y13851897D01*
X114127000Y13851897D01*
X114127000Y14936758D01*
X118627169Y14936758D01*
X118671112Y14614522D01*
X118777076Y14307050D01*
X118872140Y14129198D01*
X119138177Y14031502D01*
X120105395Y14998720D01*
X120464605Y14998720D01*
X121431823Y14031502D01*
X121697860Y14129198D01*
X121840348Y14421541D01*
X121923064Y14736064D01*
X121942831Y15060682D01*
X121898888Y15382918D01*
X121792924Y15690390D01*
X121697860Y15868242D01*
X121431823Y15965938D01*
X120464605Y14998720D01*
X120105395Y14998720D01*
X119138177Y15965938D01*
X118872140Y15868242D01*
X118729652Y15575899D01*
X118646936Y15261376D01*
X118627169Y14936758D01*
X114127000Y14936758D01*
X114127000Y16145543D01*
X119317782Y16145543D01*
X120285000Y15178325D01*
X121252218Y16145543D01*
X121154522Y16411580D01*
X120862179Y16554068D01*
X120547656Y16636784D01*
X120223038Y16656551D01*
X119900802Y16612608D01*
X119593330Y16506644D01*
X119415478Y16411580D01*
X119317782Y16145543D01*
X114127000Y16145543D01*
X114127000Y18873000D01*
X123873000Y18873000D01*
X123873000Y-23873000D01*
M02*
