M48
; DRILL file {KiCad (5.1.2-1)-1} date Monday, June 03, 2019 at 04:38:28 PM
; FORMAT={-:-/ absolute / inch / decimal}
; #@! TF.CreationDate,2019-06-03T16:38:28-07:00
; #@! TF.GenerationSoftware,Kicad,Pcbnew,(5.1.2-1)-1
; #@! TF.FileFunction,Plated,1,2,PTH
FMAT,2
INCH
T1C0.0157
T2C0.0315
T3C0.0394
T4C0.0511
%
G90
G05
T1
X4.95Y1.1
T2
X4.9Y1.3484
X4.9Y1.25
T3
X5.1Y1.5
X5.2Y1.5
X4.6Y1.5
X4.7Y1.5
X4.8Y1.5
X4.9Y1.5
X5.1Y1.35
X5.1Y1.25
X5.1Y1.15
X5.1Y1.05
X4.7Y1.35
X4.7Y1.25
X4.7Y1.15
X4.7Y1.05
T4
X5.0787Y0.5906
X5.0787Y0.3938
X4.7343Y-0.5906
X4.7343Y-0.7874
X4.7356Y0.5905
X4.7356Y0.3937
X4.7343Y-0.1969
X4.7343Y-0.3937
X5.0787Y0.1969
X5.0787Y0.0001
X5.0787Y-0.1969
X5.0787Y-0.3937
X4.7343Y0.1968
X4.7343Y0.0
X5.0787Y-0.5906
X5.0787Y-0.7874
T0
M30
