G04 #@! TF.GenerationSoftware,KiCad,Pcbnew,(5.1.2-1)-1*
G04 #@! TF.CreationDate,2019-06-03T16:39:24-07:00*
G04 #@! TF.ProjectId,PowerDistribution,506f7765-7244-4697-9374-726962757469,rev?*
G04 #@! TF.SameCoordinates,Original*
G04 #@! TF.FileFunction,Soldermask,Bot*
G04 #@! TF.FilePolarity,Negative*
%FSLAX46Y46*%
G04 Gerber Fmt 4.6, Leading zero omitted, Abs format (unit mm)*
G04 Created by KiCad (PCBNEW (5.1.2-1)-1) date 2019-06-03 16:39:24*
%MOMM*%
%LPD*%
G04 APERTURE LIST*
%ADD10C,0.100000*%
G04 APERTURE END LIST*
D10*
G36*
X138375256Y-24391298D02*
G01*
X138481579Y-24412447D01*
X138782042Y-24536903D01*
X139052451Y-24717585D01*
X139282415Y-24947549D01*
X139463097Y-25217958D01*
X139587553Y-25518421D01*
X139651000Y-25837391D01*
X139651000Y-26162609D01*
X139587553Y-26481579D01*
X139463097Y-26782042D01*
X139282415Y-27052451D01*
X139052451Y-27282415D01*
X138782042Y-27463097D01*
X138481579Y-27587553D01*
X138375256Y-27608702D01*
X138162611Y-27651000D01*
X137837389Y-27651000D01*
X137624744Y-27608702D01*
X137518421Y-27587553D01*
X137217958Y-27463097D01*
X136947549Y-27282415D01*
X136717585Y-27052451D01*
X136536903Y-26782042D01*
X136412447Y-26481579D01*
X136349000Y-26162609D01*
X136349000Y-25837391D01*
X136412447Y-25518421D01*
X136536903Y-25217958D01*
X136717585Y-24947549D01*
X136947549Y-24717585D01*
X137217958Y-24536903D01*
X137518421Y-24412447D01*
X137624744Y-24391298D01*
X137837389Y-24349000D01*
X138162611Y-24349000D01*
X138375256Y-24391298D01*
X138375256Y-24391298D01*
G37*
G36*
X111375256Y-24391298D02*
G01*
X111481579Y-24412447D01*
X111782042Y-24536903D01*
X112052451Y-24717585D01*
X112282415Y-24947549D01*
X112463097Y-25217958D01*
X112587553Y-25518421D01*
X112651000Y-25837391D01*
X112651000Y-26162609D01*
X112587553Y-26481579D01*
X112463097Y-26782042D01*
X112282415Y-27052451D01*
X112052451Y-27282415D01*
X111782042Y-27463097D01*
X111481579Y-27587553D01*
X111375256Y-27608702D01*
X111162611Y-27651000D01*
X110837389Y-27651000D01*
X110624744Y-27608702D01*
X110518421Y-27587553D01*
X110217958Y-27463097D01*
X109947549Y-27282415D01*
X109717585Y-27052451D01*
X109536903Y-26782042D01*
X109412447Y-26481579D01*
X109349000Y-26162609D01*
X109349000Y-25837391D01*
X109412447Y-25518421D01*
X109536903Y-25217958D01*
X109717585Y-24947549D01*
X109947549Y-24717585D01*
X110217958Y-24536903D01*
X110518421Y-24412447D01*
X110624744Y-24391298D01*
X110837389Y-24349000D01*
X111162611Y-24349000D01*
X111375256Y-24391298D01*
X111375256Y-24391298D01*
G37*
G36*
X121367600Y-21117600D02*
G01*
X119132400Y-21117600D01*
X119132400Y-18882400D01*
X121367600Y-18882400D01*
X121367600Y-21117600D01*
X121367600Y-21117600D01*
G37*
G36*
X129140800Y-18887232D02*
G01*
X129325992Y-18924068D01*
X129529382Y-19008315D01*
X129712429Y-19130623D01*
X129868097Y-19286291D01*
X129990405Y-19469338D01*
X130074652Y-19672728D01*
X130117600Y-19888646D01*
X130117600Y-20108794D01*
X130074652Y-20324712D01*
X129990405Y-20528102D01*
X129868097Y-20711149D01*
X129712429Y-20866817D01*
X129529382Y-20989125D01*
X129325992Y-21073372D01*
X129140800Y-21110208D01*
X129110075Y-21116320D01*
X128889925Y-21116320D01*
X128859200Y-21110208D01*
X128674008Y-21073372D01*
X128470618Y-20989125D01*
X128287571Y-20866817D01*
X128131903Y-20711149D01*
X128009595Y-20528102D01*
X127925348Y-20324712D01*
X127882400Y-20108794D01*
X127882400Y-19888646D01*
X127925348Y-19672728D01*
X128009595Y-19469338D01*
X128131903Y-19286291D01*
X128287571Y-19130623D01*
X128470618Y-19008315D01*
X128674008Y-18924068D01*
X128859200Y-18887232D01*
X128889925Y-18881120D01*
X129110075Y-18881120D01*
X129140800Y-18887232D01*
X129140800Y-18887232D01*
G37*
G36*
X120390800Y-13889792D02*
G01*
X120575992Y-13926628D01*
X120779382Y-14010875D01*
X120962429Y-14133183D01*
X121118097Y-14288851D01*
X121240405Y-14471898D01*
X121324652Y-14675288D01*
X121367600Y-14891206D01*
X121367600Y-15111354D01*
X121324652Y-15327272D01*
X121240405Y-15530662D01*
X121118097Y-15713709D01*
X120962429Y-15869377D01*
X120779382Y-15991685D01*
X120575992Y-16075932D01*
X120390800Y-16112768D01*
X120360075Y-16118880D01*
X120139925Y-16118880D01*
X120109200Y-16112768D01*
X119924008Y-16075932D01*
X119720618Y-15991685D01*
X119537571Y-15869377D01*
X119381903Y-15713709D01*
X119259595Y-15530662D01*
X119175348Y-15327272D01*
X119132400Y-15111354D01*
X119132400Y-14891206D01*
X119175348Y-14675288D01*
X119259595Y-14471898D01*
X119381903Y-14288851D01*
X119537571Y-14133183D01*
X119720618Y-14010875D01*
X119924008Y-13926628D01*
X120109200Y-13889792D01*
X120139925Y-13883680D01*
X120360075Y-13883680D01*
X120390800Y-13889792D01*
X120390800Y-13889792D01*
G37*
G36*
X130117600Y-16117600D02*
G01*
X127882400Y-16117600D01*
X127882400Y-13882400D01*
X130117600Y-13882400D01*
X130117600Y-16117600D01*
X130117600Y-16117600D01*
G37*
G36*
X121367600Y-11117600D02*
G01*
X119132400Y-11117600D01*
X119132400Y-8882400D01*
X121367600Y-8882400D01*
X121367600Y-11117600D01*
X121367600Y-11117600D01*
G37*
G36*
X129140800Y-8887232D02*
G01*
X129325992Y-8924068D01*
X129529382Y-9008315D01*
X129712429Y-9130623D01*
X129868097Y-9286291D01*
X129990405Y-9469338D01*
X130074652Y-9672728D01*
X130117600Y-9888646D01*
X130117600Y-10108794D01*
X130074652Y-10324712D01*
X129990405Y-10528102D01*
X129868097Y-10711149D01*
X129712429Y-10866817D01*
X129529382Y-10989125D01*
X129325992Y-11073372D01*
X129140800Y-11110208D01*
X129110075Y-11116320D01*
X128889925Y-11116320D01*
X128859200Y-11110208D01*
X128674008Y-11073372D01*
X128470618Y-10989125D01*
X128287571Y-10866817D01*
X128131903Y-10711149D01*
X128009595Y-10528102D01*
X127925348Y-10324712D01*
X127882400Y-10108794D01*
X127882400Y-9888646D01*
X127925348Y-9672728D01*
X128009595Y-9469338D01*
X128131903Y-9286291D01*
X128287571Y-9130623D01*
X128470618Y-9008315D01*
X128674008Y-8924068D01*
X128859200Y-8887232D01*
X128889925Y-8881120D01*
X129110075Y-8881120D01*
X129140800Y-8887232D01*
X129140800Y-8887232D01*
G37*
G36*
X120390800Y-3889792D02*
G01*
X120575992Y-3926628D01*
X120779382Y-4010875D01*
X120962429Y-4133183D01*
X121118097Y-4288851D01*
X121240405Y-4471898D01*
X121324652Y-4675288D01*
X121367600Y-4891206D01*
X121367600Y-5111354D01*
X121324652Y-5327272D01*
X121240405Y-5530662D01*
X121118097Y-5713709D01*
X120962429Y-5869377D01*
X120779382Y-5991685D01*
X120575992Y-6075932D01*
X120390800Y-6112768D01*
X120360075Y-6118880D01*
X120139925Y-6118880D01*
X120109200Y-6112768D01*
X119924008Y-6075932D01*
X119720618Y-5991685D01*
X119537571Y-5869377D01*
X119381903Y-5713709D01*
X119259595Y-5530662D01*
X119175348Y-5327272D01*
X119132400Y-5111354D01*
X119132400Y-4891206D01*
X119175348Y-4675288D01*
X119259595Y-4471898D01*
X119381903Y-4288851D01*
X119537571Y-4133183D01*
X119720618Y-4010875D01*
X119924008Y-3926628D01*
X120109200Y-3889792D01*
X120139925Y-3883680D01*
X120360075Y-3883680D01*
X120390800Y-3889792D01*
X120390800Y-3889792D01*
G37*
G36*
X130117600Y-6117600D02*
G01*
X127882400Y-6117600D01*
X127882400Y-3882400D01*
X130117600Y-3882400D01*
X130117600Y-6117600D01*
X130117600Y-6117600D01*
G37*
G36*
X121367600Y-1117600D02*
G01*
X119132400Y-1117600D01*
X119132400Y1117600D01*
X121367600Y1117600D01*
X121367600Y-1117600D01*
X121367600Y-1117600D01*
G37*
G36*
X129140800Y1112768D02*
G01*
X129325992Y1075932D01*
X129529382Y991685D01*
X129712429Y869377D01*
X129868097Y713709D01*
X129990405Y530662D01*
X130074652Y327272D01*
X130117600Y111354D01*
X130117600Y-108794D01*
X130074652Y-324712D01*
X129990405Y-528102D01*
X129868097Y-711149D01*
X129712429Y-866817D01*
X129529382Y-989125D01*
X129325992Y-1073372D01*
X129140800Y-1110208D01*
X129110075Y-1116320D01*
X128889925Y-1116320D01*
X128859200Y-1110208D01*
X128674008Y-1073372D01*
X128470618Y-989125D01*
X128287571Y-866817D01*
X128131903Y-711149D01*
X128009595Y-528102D01*
X127925348Y-324712D01*
X127882400Y-108794D01*
X127882400Y111354D01*
X127925348Y327272D01*
X128009595Y530662D01*
X128131903Y713709D01*
X128287571Y869377D01*
X128470618Y991685D01*
X128674008Y1075932D01*
X128859200Y1112768D01*
X128889925Y1118880D01*
X129110075Y1118880D01*
X129140800Y1112768D01*
X129140800Y1112768D01*
G37*
G36*
X120390800Y6110208D02*
G01*
X120575992Y6073372D01*
X120779382Y5989125D01*
X120962429Y5866817D01*
X121118097Y5711149D01*
X121240405Y5528102D01*
X121324652Y5324712D01*
X121367600Y5108794D01*
X121367600Y4888646D01*
X121324652Y4672728D01*
X121240405Y4469338D01*
X121118097Y4286291D01*
X120962429Y4130623D01*
X120779382Y4008315D01*
X120575992Y3924068D01*
X120390800Y3887232D01*
X120360075Y3881120D01*
X120139925Y3881120D01*
X120109200Y3887232D01*
X119924008Y3924068D01*
X119720618Y4008315D01*
X119537571Y4130623D01*
X119381903Y4286291D01*
X119259595Y4469338D01*
X119175348Y4672728D01*
X119132400Y4888646D01*
X119132400Y5108794D01*
X119175348Y5324712D01*
X119259595Y5528102D01*
X119381903Y5711149D01*
X119537571Y5866817D01*
X119720618Y5989125D01*
X119924008Y6073372D01*
X120109200Y6110208D01*
X120139925Y6116320D01*
X120360075Y6116320D01*
X120390800Y6110208D01*
X120390800Y6110208D01*
G37*
G36*
X130117600Y3882400D02*
G01*
X127882400Y3882400D01*
X127882400Y6117600D01*
X130117600Y6117600D01*
X130117600Y3882400D01*
X130117600Y3882400D01*
G37*
G36*
X121402600Y8882400D02*
G01*
X119167400Y8882400D01*
X119167400Y11117600D01*
X121402600Y11117600D01*
X121402600Y8882400D01*
X121402600Y8882400D01*
G37*
G36*
X129140800Y11112768D02*
G01*
X129325992Y11075932D01*
X129529382Y10991685D01*
X129712429Y10869377D01*
X129868097Y10713709D01*
X129990405Y10530662D01*
X130074652Y10327272D01*
X130117600Y10111354D01*
X130117600Y9891206D01*
X130074652Y9675288D01*
X129990405Y9471898D01*
X129868097Y9288851D01*
X129712429Y9133183D01*
X129529382Y9010875D01*
X129325992Y8926628D01*
X129140800Y8889792D01*
X129110075Y8883680D01*
X128889925Y8883680D01*
X128859200Y8889792D01*
X128674008Y8926628D01*
X128470618Y9010875D01*
X128287571Y9133183D01*
X128131903Y9288851D01*
X128009595Y9471898D01*
X127925348Y9675288D01*
X127882400Y9891206D01*
X127882400Y10111354D01*
X127925348Y10327272D01*
X128009595Y10530662D01*
X128131903Y10713709D01*
X128287571Y10869377D01*
X128470618Y10991685D01*
X128674008Y11075932D01*
X128859200Y11112768D01*
X128889925Y11118880D01*
X129110075Y11118880D01*
X129140800Y11112768D01*
X129140800Y11112768D01*
G37*
G36*
X120425800Y16110208D02*
G01*
X120610992Y16073372D01*
X120814382Y15989125D01*
X120997429Y15866817D01*
X121153097Y15711149D01*
X121275405Y15528102D01*
X121359652Y15324712D01*
X121402600Y15108794D01*
X121402600Y14888646D01*
X121359652Y14672728D01*
X121275405Y14469338D01*
X121153097Y14286291D01*
X120997429Y14130623D01*
X120814382Y14008315D01*
X120610992Y13924068D01*
X120425800Y13887232D01*
X120395075Y13881120D01*
X120174925Y13881120D01*
X120144200Y13887232D01*
X119959008Y13924068D01*
X119755618Y14008315D01*
X119572571Y14130623D01*
X119416903Y14286291D01*
X119294595Y14469338D01*
X119210348Y14672728D01*
X119167400Y14888646D01*
X119167400Y15108794D01*
X119210348Y15324712D01*
X119294595Y15528102D01*
X119416903Y15711149D01*
X119572571Y15866817D01*
X119755618Y15989125D01*
X119959008Y16073372D01*
X120144200Y16110208D01*
X120174925Y16116320D01*
X120395075Y16116320D01*
X120425800Y16110208D01*
X120425800Y16110208D01*
G37*
G36*
X130117600Y13882400D02*
G01*
X127882400Y13882400D01*
X127882400Y16117600D01*
X130117600Y16117600D01*
X130117600Y13882400D01*
X130117600Y13882400D01*
G37*
G36*
X120281000Y25769000D02*
G01*
X118479000Y25769000D01*
X118479000Y27571000D01*
X120281000Y27571000D01*
X120281000Y25769000D01*
X120281000Y25769000D01*
G37*
G36*
X129650442Y27564482D02*
G01*
X129716627Y27557963D01*
X129886466Y27506443D01*
X130042991Y27422778D01*
X130078729Y27393448D01*
X130180186Y27310186D01*
X130263448Y27208729D01*
X130292778Y27172991D01*
X130376443Y27016466D01*
X130427963Y26846627D01*
X130445359Y26670000D01*
X130427963Y26493373D01*
X130376443Y26323534D01*
X130292778Y26167009D01*
X130263448Y26131271D01*
X130180186Y26029814D01*
X130078729Y25946552D01*
X130042991Y25917222D01*
X129886466Y25833557D01*
X129716627Y25782037D01*
X129650442Y25775518D01*
X129584260Y25769000D01*
X129495740Y25769000D01*
X129429557Y25775519D01*
X129363373Y25782037D01*
X129193534Y25833557D01*
X129037009Y25917222D01*
X129001271Y25946552D01*
X128899814Y26029814D01*
X128816552Y26131271D01*
X128787222Y26167009D01*
X128703557Y26323534D01*
X128652037Y26493373D01*
X128634641Y26670000D01*
X128652037Y26846627D01*
X128703557Y27016466D01*
X128787222Y27172991D01*
X128816552Y27208729D01*
X128899814Y27310186D01*
X129001271Y27393448D01*
X129037009Y27422778D01*
X129193534Y27506443D01*
X129363373Y27557963D01*
X129429558Y27564482D01*
X129495740Y27571000D01*
X129584260Y27571000D01*
X129650442Y27564482D01*
X129650442Y27564482D01*
G37*
G36*
X119490442Y30104482D02*
G01*
X119556627Y30097963D01*
X119726466Y30046443D01*
X119882991Y29962778D01*
X119918729Y29933448D01*
X120020186Y29850186D01*
X120103448Y29748729D01*
X120132778Y29712991D01*
X120216443Y29556466D01*
X120267963Y29386627D01*
X120285359Y29210000D01*
X120267963Y29033373D01*
X120216443Y28863534D01*
X120132778Y28707009D01*
X120103448Y28671271D01*
X120020186Y28569814D01*
X119918729Y28486552D01*
X119882991Y28457222D01*
X119726466Y28373557D01*
X119556627Y28322037D01*
X119490442Y28315518D01*
X119424260Y28309000D01*
X119335740Y28309000D01*
X119269558Y28315518D01*
X119203373Y28322037D01*
X119033534Y28373557D01*
X118877009Y28457222D01*
X118841271Y28486552D01*
X118739814Y28569814D01*
X118656552Y28671271D01*
X118627222Y28707009D01*
X118543557Y28863534D01*
X118492037Y29033373D01*
X118474641Y29210000D01*
X118492037Y29386627D01*
X118543557Y29556466D01*
X118627222Y29712991D01*
X118656552Y29748729D01*
X118739814Y29850186D01*
X118841271Y29933448D01*
X118877009Y29962778D01*
X119033534Y30046443D01*
X119203373Y30097963D01*
X119269558Y30104482D01*
X119335740Y30111000D01*
X119424260Y30111000D01*
X119490442Y30104482D01*
X119490442Y30104482D01*
G37*
G36*
X129650442Y30104482D02*
G01*
X129716627Y30097963D01*
X129886466Y30046443D01*
X130042991Y29962778D01*
X130078729Y29933448D01*
X130180186Y29850186D01*
X130263448Y29748729D01*
X130292778Y29712991D01*
X130376443Y29556466D01*
X130427963Y29386627D01*
X130445359Y29210000D01*
X130427963Y29033373D01*
X130376443Y28863534D01*
X130292778Y28707009D01*
X130263448Y28671271D01*
X130180186Y28569814D01*
X130078729Y28486552D01*
X130042991Y28457222D01*
X129886466Y28373557D01*
X129716627Y28322037D01*
X129650442Y28315518D01*
X129584260Y28309000D01*
X129495740Y28309000D01*
X129429558Y28315518D01*
X129363373Y28322037D01*
X129193534Y28373557D01*
X129037009Y28457222D01*
X129001271Y28486552D01*
X128899814Y28569814D01*
X128816552Y28671271D01*
X128787222Y28707009D01*
X128703557Y28863534D01*
X128652037Y29033373D01*
X128634641Y29210000D01*
X128652037Y29386627D01*
X128703557Y29556466D01*
X128787222Y29712991D01*
X128816552Y29748729D01*
X128899814Y29850186D01*
X129001271Y29933448D01*
X129037009Y29962778D01*
X129193534Y30046443D01*
X129363373Y30097963D01*
X129429558Y30104482D01*
X129495740Y30111000D01*
X129584260Y30111000D01*
X129650442Y30104482D01*
X129650442Y30104482D01*
G37*
G36*
X119490442Y32644482D02*
G01*
X119556627Y32637963D01*
X119726466Y32586443D01*
X119882991Y32502778D01*
X119918729Y32473448D01*
X120020186Y32390186D01*
X120100369Y32292481D01*
X120132778Y32252991D01*
X120216443Y32096466D01*
X120267963Y31926627D01*
X120285359Y31750000D01*
X120267963Y31573373D01*
X120216443Y31403534D01*
X120132778Y31247009D01*
X120103448Y31211271D01*
X120020186Y31109814D01*
X119918729Y31026552D01*
X119882991Y30997222D01*
X119726466Y30913557D01*
X119556627Y30862037D01*
X119490443Y30855519D01*
X119424260Y30849000D01*
X119335740Y30849000D01*
X119269557Y30855519D01*
X119203373Y30862037D01*
X119033534Y30913557D01*
X118877009Y30997222D01*
X118841271Y31026552D01*
X118739814Y31109814D01*
X118656552Y31211271D01*
X118627222Y31247009D01*
X118543557Y31403534D01*
X118492037Y31573373D01*
X118474641Y31750000D01*
X118492037Y31926627D01*
X118543557Y32096466D01*
X118627222Y32252991D01*
X118659631Y32292481D01*
X118739814Y32390186D01*
X118841271Y32473448D01*
X118877009Y32502778D01*
X119033534Y32586443D01*
X119203373Y32637963D01*
X119269558Y32644482D01*
X119335740Y32651000D01*
X119424260Y32651000D01*
X119490442Y32644482D01*
X119490442Y32644482D01*
G37*
G36*
X129650442Y32644482D02*
G01*
X129716627Y32637963D01*
X129886466Y32586443D01*
X130042991Y32502778D01*
X130078729Y32473448D01*
X130180186Y32390186D01*
X130260369Y32292481D01*
X130292778Y32252991D01*
X130376443Y32096466D01*
X130427963Y31926627D01*
X130445359Y31750000D01*
X130427963Y31573373D01*
X130376443Y31403534D01*
X130292778Y31247009D01*
X130263448Y31211271D01*
X130180186Y31109814D01*
X130078729Y31026552D01*
X130042991Y30997222D01*
X129886466Y30913557D01*
X129716627Y30862037D01*
X129650443Y30855519D01*
X129584260Y30849000D01*
X129495740Y30849000D01*
X129429557Y30855519D01*
X129363373Y30862037D01*
X129193534Y30913557D01*
X129037009Y30997222D01*
X129001271Y31026552D01*
X128899814Y31109814D01*
X128816552Y31211271D01*
X128787222Y31247009D01*
X128703557Y31403534D01*
X128652037Y31573373D01*
X128634641Y31750000D01*
X128652037Y31926627D01*
X128703557Y32096466D01*
X128787222Y32252991D01*
X128819631Y32292481D01*
X128899814Y32390186D01*
X129001271Y32473448D01*
X129037009Y32502778D01*
X129193534Y32586443D01*
X129363373Y32637963D01*
X129429558Y32644482D01*
X129495740Y32651000D01*
X129584260Y32651000D01*
X129650442Y32644482D01*
X129650442Y32644482D01*
G37*
G36*
X124708228Y32568297D02*
G01*
X124863100Y32504147D01*
X125002481Y32411015D01*
X125121015Y32292481D01*
X125214147Y32153100D01*
X125278297Y31998228D01*
X125311000Y31833816D01*
X125311000Y31666184D01*
X125278297Y31501772D01*
X125214147Y31346900D01*
X125121015Y31207519D01*
X125002481Y31088985D01*
X124863100Y30995853D01*
X124708228Y30931703D01*
X124543816Y30899000D01*
X124376184Y30899000D01*
X124211772Y30931703D01*
X124056900Y30995853D01*
X123917519Y31088985D01*
X123798985Y31207519D01*
X123705853Y31346900D01*
X123641703Y31501772D01*
X123609000Y31666184D01*
X123609000Y31833816D01*
X123641703Y31998228D01*
X123705853Y32153100D01*
X123798985Y32292481D01*
X123917519Y32411015D01*
X124056900Y32504147D01*
X124211772Y32568297D01*
X124376184Y32601000D01*
X124543816Y32601000D01*
X124708228Y32568297D01*
X124708228Y32568297D01*
G37*
G36*
X130441000Y33389000D02*
G01*
X128639000Y33389000D01*
X128639000Y35191000D01*
X130441000Y35191000D01*
X130441000Y33389000D01*
X130441000Y33389000D01*
G37*
G36*
X119490442Y35184482D02*
G01*
X119556627Y35177963D01*
X119726466Y35126443D01*
X119882991Y35042778D01*
X119918729Y35013448D01*
X120020186Y34930186D01*
X120103448Y34828729D01*
X120132778Y34792991D01*
X120132779Y34792989D01*
X120207554Y34653097D01*
X120216443Y34636466D01*
X120267963Y34466627D01*
X120285359Y34290000D01*
X120267963Y34113373D01*
X120216443Y33943534D01*
X120132778Y33787009D01*
X120103448Y33751271D01*
X120020186Y33649814D01*
X119918729Y33566552D01*
X119882991Y33537222D01*
X119726466Y33453557D01*
X119556627Y33402037D01*
X119490442Y33395518D01*
X119424260Y33389000D01*
X119335740Y33389000D01*
X119269558Y33395518D01*
X119203373Y33402037D01*
X119033534Y33453557D01*
X118877009Y33537222D01*
X118841271Y33566552D01*
X118739814Y33649814D01*
X118656552Y33751271D01*
X118627222Y33787009D01*
X118543557Y33943534D01*
X118492037Y34113373D01*
X118474641Y34290000D01*
X118492037Y34466627D01*
X118543557Y34636466D01*
X118552447Y34653097D01*
X118627221Y34792989D01*
X118627222Y34792991D01*
X118656552Y34828729D01*
X118739814Y34930186D01*
X118841271Y35013448D01*
X118877009Y35042778D01*
X119033534Y35126443D01*
X119203373Y35177963D01*
X119269558Y35184482D01*
X119335740Y35191000D01*
X119424260Y35191000D01*
X119490442Y35184482D01*
X119490442Y35184482D01*
G37*
G36*
X124708228Y35068297D02*
G01*
X124863100Y35004147D01*
X125002481Y34911015D01*
X125121015Y34792481D01*
X125214147Y34653100D01*
X125278297Y34498228D01*
X125311000Y34333816D01*
X125311000Y34166184D01*
X125278297Y34001772D01*
X125214147Y33846900D01*
X125121015Y33707519D01*
X125002481Y33588985D01*
X124863100Y33495853D01*
X124708228Y33431703D01*
X124543816Y33399000D01*
X124376184Y33399000D01*
X124211772Y33431703D01*
X124056900Y33495853D01*
X123917519Y33588985D01*
X123798985Y33707519D01*
X123705853Y33846900D01*
X123641703Y34001772D01*
X123609000Y34166184D01*
X123609000Y34333816D01*
X123641703Y34498228D01*
X123705853Y34653100D01*
X123798985Y34792481D01*
X123917519Y34911015D01*
X124056900Y35004147D01*
X124211772Y35068297D01*
X124376184Y35101000D01*
X124543816Y35101000D01*
X124708228Y35068297D01*
X124708228Y35068297D01*
G37*
G36*
X132190443Y38994481D02*
G01*
X132256627Y38987963D01*
X132426466Y38936443D01*
X132582991Y38852778D01*
X132618729Y38823448D01*
X132720186Y38740186D01*
X132803448Y38638729D01*
X132832778Y38602991D01*
X132916443Y38446466D01*
X132967963Y38276627D01*
X132985359Y38100000D01*
X132967963Y37923373D01*
X132916443Y37753534D01*
X132832778Y37597009D01*
X132803448Y37561271D01*
X132720186Y37459814D01*
X132618729Y37376552D01*
X132582991Y37347222D01*
X132426466Y37263557D01*
X132256627Y37212037D01*
X132190442Y37205518D01*
X132124260Y37199000D01*
X132035740Y37199000D01*
X131969558Y37205518D01*
X131903373Y37212037D01*
X131733534Y37263557D01*
X131577009Y37347222D01*
X131541271Y37376552D01*
X131439814Y37459814D01*
X131356552Y37561271D01*
X131327222Y37597009D01*
X131243557Y37753534D01*
X131192037Y37923373D01*
X131174641Y38100000D01*
X131192037Y38276627D01*
X131243557Y38446466D01*
X131327222Y38602991D01*
X131356552Y38638729D01*
X131439814Y38740186D01*
X131541271Y38823448D01*
X131577009Y38852778D01*
X131733534Y38936443D01*
X131903373Y38987963D01*
X131969557Y38994481D01*
X132035740Y39001000D01*
X132124260Y39001000D01*
X132190443Y38994481D01*
X132190443Y38994481D01*
G37*
G36*
X130441000Y37199000D02*
G01*
X128639000Y37199000D01*
X128639000Y39001000D01*
X130441000Y39001000D01*
X130441000Y37199000D01*
X130441000Y37199000D01*
G37*
G36*
X124570443Y38994481D02*
G01*
X124636627Y38987963D01*
X124806466Y38936443D01*
X124962991Y38852778D01*
X124998729Y38823448D01*
X125100186Y38740186D01*
X125183448Y38638729D01*
X125212778Y38602991D01*
X125296443Y38446466D01*
X125347963Y38276627D01*
X125365359Y38100000D01*
X125347963Y37923373D01*
X125296443Y37753534D01*
X125212778Y37597009D01*
X125183448Y37561271D01*
X125100186Y37459814D01*
X124998729Y37376552D01*
X124962991Y37347222D01*
X124806466Y37263557D01*
X124636627Y37212037D01*
X124570442Y37205518D01*
X124504260Y37199000D01*
X124415740Y37199000D01*
X124349558Y37205518D01*
X124283373Y37212037D01*
X124113534Y37263557D01*
X123957009Y37347222D01*
X123921271Y37376552D01*
X123819814Y37459814D01*
X123736552Y37561271D01*
X123707222Y37597009D01*
X123623557Y37753534D01*
X123572037Y37923373D01*
X123554641Y38100000D01*
X123572037Y38276627D01*
X123623557Y38446466D01*
X123707222Y38602991D01*
X123736552Y38638729D01*
X123819814Y38740186D01*
X123921271Y38823448D01*
X123957009Y38852778D01*
X124113534Y38936443D01*
X124283373Y38987963D01*
X124349557Y38994481D01*
X124415740Y39001000D01*
X124504260Y39001000D01*
X124570443Y38994481D01*
X124570443Y38994481D01*
G37*
G36*
X122030443Y38994481D02*
G01*
X122096627Y38987963D01*
X122266466Y38936443D01*
X122422991Y38852778D01*
X122458729Y38823448D01*
X122560186Y38740186D01*
X122643448Y38638729D01*
X122672778Y38602991D01*
X122756443Y38446466D01*
X122807963Y38276627D01*
X122825359Y38100000D01*
X122807963Y37923373D01*
X122756443Y37753534D01*
X122672778Y37597009D01*
X122643448Y37561271D01*
X122560186Y37459814D01*
X122458729Y37376552D01*
X122422991Y37347222D01*
X122266466Y37263557D01*
X122096627Y37212037D01*
X122030442Y37205518D01*
X121964260Y37199000D01*
X121875740Y37199000D01*
X121809558Y37205518D01*
X121743373Y37212037D01*
X121573534Y37263557D01*
X121417009Y37347222D01*
X121381271Y37376552D01*
X121279814Y37459814D01*
X121196552Y37561271D01*
X121167222Y37597009D01*
X121083557Y37753534D01*
X121032037Y37923373D01*
X121014641Y38100000D01*
X121032037Y38276627D01*
X121083557Y38446466D01*
X121167222Y38602991D01*
X121196552Y38638729D01*
X121279814Y38740186D01*
X121381271Y38823448D01*
X121417009Y38852778D01*
X121573534Y38936443D01*
X121743373Y38987963D01*
X121809557Y38994481D01*
X121875740Y39001000D01*
X121964260Y39001000D01*
X122030443Y38994481D01*
X122030443Y38994481D01*
G37*
G36*
X119490443Y38994481D02*
G01*
X119556627Y38987963D01*
X119726466Y38936443D01*
X119882991Y38852778D01*
X119918729Y38823448D01*
X120020186Y38740186D01*
X120103448Y38638729D01*
X120132778Y38602991D01*
X120216443Y38446466D01*
X120267963Y38276627D01*
X120285359Y38100000D01*
X120267963Y37923373D01*
X120216443Y37753534D01*
X120132778Y37597009D01*
X120103448Y37561271D01*
X120020186Y37459814D01*
X119918729Y37376552D01*
X119882991Y37347222D01*
X119726466Y37263557D01*
X119556627Y37212037D01*
X119490442Y37205518D01*
X119424260Y37199000D01*
X119335740Y37199000D01*
X119269558Y37205518D01*
X119203373Y37212037D01*
X119033534Y37263557D01*
X118877009Y37347222D01*
X118841271Y37376552D01*
X118739814Y37459814D01*
X118656552Y37561271D01*
X118627222Y37597009D01*
X118543557Y37753534D01*
X118492037Y37923373D01*
X118474641Y38100000D01*
X118492037Y38276627D01*
X118543557Y38446466D01*
X118627222Y38602991D01*
X118656552Y38638729D01*
X118739814Y38740186D01*
X118841271Y38823448D01*
X118877009Y38852778D01*
X119033534Y38936443D01*
X119203373Y38987963D01*
X119269557Y38994481D01*
X119335740Y39001000D01*
X119424260Y39001000D01*
X119490443Y38994481D01*
X119490443Y38994481D01*
G37*
G36*
X117741000Y37199000D02*
G01*
X115939000Y37199000D01*
X115939000Y39001000D01*
X117741000Y39001000D01*
X117741000Y37199000D01*
X117741000Y37199000D01*
G37*
G36*
X111375256Y47608702D02*
G01*
X111481579Y47587553D01*
X111782042Y47463097D01*
X112052451Y47282415D01*
X112282415Y47052451D01*
X112463097Y46782042D01*
X112587553Y46481579D01*
X112651000Y46162609D01*
X112651000Y45837391D01*
X112587553Y45518421D01*
X112463097Y45217958D01*
X112282415Y44947549D01*
X112052451Y44717585D01*
X111782042Y44536903D01*
X111481579Y44412447D01*
X111375256Y44391298D01*
X111162611Y44349000D01*
X110837389Y44349000D01*
X110624744Y44391298D01*
X110518421Y44412447D01*
X110217958Y44536903D01*
X109947549Y44717585D01*
X109717585Y44947549D01*
X109536903Y45217958D01*
X109412447Y45518421D01*
X109349000Y45837391D01*
X109349000Y46162609D01*
X109412447Y46481579D01*
X109536903Y46782042D01*
X109717585Y47052451D01*
X109947549Y47282415D01*
X110217958Y47463097D01*
X110518421Y47587553D01*
X110624744Y47608702D01*
X110837389Y47651000D01*
X111162611Y47651000D01*
X111375256Y47608702D01*
X111375256Y47608702D01*
G37*
G36*
X138375256Y47608702D02*
G01*
X138481579Y47587553D01*
X138782042Y47463097D01*
X139052451Y47282415D01*
X139282415Y47052451D01*
X139463097Y46782042D01*
X139587553Y46481579D01*
X139651000Y46162609D01*
X139651000Y45837391D01*
X139587553Y45518421D01*
X139463097Y45217958D01*
X139282415Y44947549D01*
X139052451Y44717585D01*
X138782042Y44536903D01*
X138481579Y44412447D01*
X138375256Y44391298D01*
X138162611Y44349000D01*
X137837389Y44349000D01*
X137624744Y44391298D01*
X137518421Y44412447D01*
X137217958Y44536903D01*
X136947549Y44717585D01*
X136717585Y44947549D01*
X136536903Y45217958D01*
X136412447Y45518421D01*
X136349000Y45837391D01*
X136349000Y46162609D01*
X136412447Y46481579D01*
X136536903Y46782042D01*
X136717585Y47052451D01*
X136947549Y47282415D01*
X137217958Y47463097D01*
X137518421Y47587553D01*
X137624744Y47608702D01*
X137837389Y47651000D01*
X138162611Y47651000D01*
X138375256Y47608702D01*
X138375256Y47608702D01*
G37*
M02*
