G04 #@! TF.GenerationSoftware,KiCad,Pcbnew,(5.1.2-1)-1*
G04 #@! TF.CreationDate,2019-06-03T16:39:24-07:00*
G04 #@! TF.ProjectId,PowerDistribution,506f7765-7244-4697-9374-726962757469,rev?*
G04 #@! TF.SameCoordinates,Original*
G04 #@! TF.FileFunction,Legend,Top*
G04 #@! TF.FilePolarity,Positive*
%FSLAX46Y46*%
G04 Gerber Fmt 4.6, Leading zero omitted, Abs format (unit mm)*
G04 Created by KiCad (PCBNEW (5.1.2-1)-1) date 2019-06-03 16:39:24*
%MOMM*%
%LPD*%
G04 APERTURE LIST*
%ADD10C,0.120000*%
%ADD11C,0.150000*%
%ADD12C,0.203200*%
%ADD13C,0.127000*%
G04 APERTURE END LIST*
D10*
X111000000Y7500000D02*
X138000000Y7500000D01*
X111000000Y-12500000D02*
X138000000Y-12500000D01*
X111000000Y-2500000D02*
X138000000Y-2500000D01*
X109000000Y19000000D02*
X135000000Y19000000D01*
X109000000Y-24000000D02*
X109000000Y19000000D01*
X140000000Y-24000000D02*
X109000000Y-24000000D01*
X140000000Y19000000D02*
X140000000Y-24000000D01*
X135000000Y19000000D02*
X140000000Y19000000D01*
D11*
X137092857Y10092857D02*
X137278571Y10030952D01*
X137340476Y9969047D01*
X137402380Y9845238D01*
X137402380Y9659523D01*
X137340476Y9535714D01*
X137278571Y9473809D01*
X137154761Y9411904D01*
X136659523Y9411904D01*
X136659523Y10711904D01*
X137092857Y10711904D01*
X137216666Y10650000D01*
X137278571Y10588095D01*
X137340476Y10464285D01*
X137340476Y10340476D01*
X137278571Y10216666D01*
X137216666Y10154761D01*
X137092857Y10092857D01*
X136659523Y10092857D01*
X137092857Y92857D02*
X137278571Y30952D01*
X137340476Y-30952D01*
X137402380Y-154761D01*
X137402380Y-340476D01*
X137340476Y-464285D01*
X137278571Y-526190D01*
X137154761Y-588095D01*
X136659523Y-588095D01*
X136659523Y711904D01*
X137092857Y711904D01*
X137216666Y650000D01*
X137278571Y588095D01*
X137340476Y464285D01*
X137340476Y340476D01*
X137278571Y216666D01*
X137216666Y154761D01*
X137092857Y92857D01*
X136659523Y92857D01*
X137092857Y-9907142D02*
X137278571Y-9969047D01*
X137340476Y-10030952D01*
X137402380Y-10154761D01*
X137402380Y-10340476D01*
X137340476Y-10464285D01*
X137278571Y-10526190D01*
X137154761Y-10588095D01*
X136659523Y-10588095D01*
X136659523Y-9288095D01*
X137092857Y-9288095D01*
X137216666Y-9350000D01*
X137278571Y-9411904D01*
X137340476Y-9535714D01*
X137340476Y-9659523D01*
X137278571Y-9783333D01*
X137216666Y-9845238D01*
X137092857Y-9907142D01*
X136659523Y-9907142D01*
X137092857Y-19907142D02*
X137278571Y-19969047D01*
X137340476Y-20030952D01*
X137402380Y-20154761D01*
X137402380Y-20340476D01*
X137340476Y-20464285D01*
X137278571Y-20526190D01*
X137154761Y-20588095D01*
X136659523Y-20588095D01*
X136659523Y-19288095D01*
X137092857Y-19288095D01*
X137216666Y-19350000D01*
X137278571Y-19411904D01*
X137340476Y-19535714D01*
X137340476Y-19659523D01*
X137278571Y-19783333D01*
X137216666Y-19845238D01*
X137092857Y-19907142D01*
X136659523Y-19907142D01*
X112092857Y-19907142D02*
X112278571Y-19969047D01*
X112340476Y-20030952D01*
X112402380Y-20154761D01*
X112402380Y-20340476D01*
X112340476Y-20464285D01*
X112278571Y-20526190D01*
X112154761Y-20588095D01*
X111659523Y-20588095D01*
X111659523Y-19288095D01*
X112092857Y-19288095D01*
X112216666Y-19350000D01*
X112278571Y-19411904D01*
X112340476Y-19535714D01*
X112340476Y-19659523D01*
X112278571Y-19783333D01*
X112216666Y-19845238D01*
X112092857Y-19907142D01*
X111659523Y-19907142D01*
X112092857Y-9907142D02*
X112278571Y-9969047D01*
X112340476Y-10030952D01*
X112402380Y-10154761D01*
X112402380Y-10340476D01*
X112340476Y-10464285D01*
X112278571Y-10526190D01*
X112154761Y-10588095D01*
X111659523Y-10588095D01*
X111659523Y-9288095D01*
X112092857Y-9288095D01*
X112216666Y-9350000D01*
X112278571Y-9411904D01*
X112340476Y-9535714D01*
X112340476Y-9659523D01*
X112278571Y-9783333D01*
X112216666Y-9845238D01*
X112092857Y-9907142D01*
X111659523Y-9907142D01*
X112092857Y92857D02*
X112278571Y30952D01*
X112340476Y-30952D01*
X112402380Y-154761D01*
X112402380Y-340476D01*
X112340476Y-464285D01*
X112278571Y-526190D01*
X112154761Y-588095D01*
X111659523Y-588095D01*
X111659523Y711904D01*
X112092857Y711904D01*
X112216666Y650000D01*
X112278571Y588095D01*
X112340476Y464285D01*
X112340476Y340476D01*
X112278571Y216666D01*
X112216666Y154761D01*
X112092857Y92857D01*
X111659523Y92857D01*
X136690476Y-15216666D02*
X137309523Y-15216666D01*
X136566666Y-15588095D02*
X137000000Y-14288095D01*
X137433333Y-15588095D01*
X136690476Y-5216666D02*
X137309523Y-5216666D01*
X136566666Y-5588095D02*
X137000000Y-4288095D01*
X137433333Y-5588095D01*
X136690476Y4783333D02*
X137309523Y4783333D01*
X136566666Y4411904D02*
X137000000Y5711904D01*
X137433333Y4411904D01*
X136690476Y14783333D02*
X137309523Y14783333D01*
X136566666Y14411904D02*
X137000000Y15711904D01*
X137433333Y14411904D01*
X111690476Y-15216666D02*
X112309523Y-15216666D01*
X111566666Y-15588095D02*
X112000000Y-14288095D01*
X112433333Y-15588095D01*
X111690476Y-5216666D02*
X112309523Y-5216666D01*
X111566666Y-5588095D02*
X112000000Y-4288095D01*
X112433333Y-5588095D01*
X111690476Y4783333D02*
X112309523Y4783333D01*
X111566666Y4411904D02*
X112000000Y5711904D01*
X112433333Y4411904D01*
X112092857Y10092857D02*
X112278571Y10030952D01*
X112340476Y9969047D01*
X112402380Y9845238D01*
X112402380Y9659523D01*
X112340476Y9535714D01*
X112278571Y9473809D01*
X112154761Y9411904D01*
X111659523Y9411904D01*
X111659523Y10711904D01*
X112092857Y10711904D01*
X112216666Y10650000D01*
X112278571Y10588095D01*
X112340476Y10464285D01*
X112340476Y10340476D01*
X112278571Y10216666D01*
X112216666Y10154761D01*
X112092857Y10092857D01*
X111659523Y10092857D01*
X111690476Y14783333D02*
X112309523Y14783333D01*
X111566666Y14411904D02*
X112000000Y15711904D01*
X112433333Y14411904D01*
X113047619Y22622619D02*
X113285714Y21622619D01*
X113476190Y22336904D01*
X113666666Y21622619D01*
X113904761Y22622619D01*
X114142857Y22622619D02*
X114714285Y22622619D01*
X114428571Y21622619D02*
X114428571Y22622619D01*
X115809523Y21622619D02*
X115809523Y22622619D01*
X116142857Y21908333D01*
X116476190Y22622619D01*
X116476190Y21622619D01*
X117095238Y21622619D02*
X117000000Y21670238D01*
X116952380Y21717857D01*
X116904761Y21813095D01*
X116904761Y22098809D01*
X116952380Y22194047D01*
X117000000Y22241666D01*
X117095238Y22289285D01*
X117238095Y22289285D01*
X117333333Y22241666D01*
X117380952Y22194047D01*
X117428571Y22098809D01*
X117428571Y21813095D01*
X117380952Y21717857D01*
X117333333Y21670238D01*
X117238095Y21622619D01*
X117095238Y21622619D01*
X117714285Y22289285D02*
X118095238Y22289285D01*
X117857142Y22622619D02*
X117857142Y21765476D01*
X117904761Y21670238D01*
X118000000Y21622619D01*
X118095238Y21622619D01*
X118571428Y21622619D02*
X118476190Y21670238D01*
X118428571Y21717857D01*
X118380952Y21813095D01*
X118380952Y22098809D01*
X118428571Y22194047D01*
X118476190Y22241666D01*
X118571428Y22289285D01*
X118714285Y22289285D01*
X118809523Y22241666D01*
X118857142Y22194047D01*
X118904761Y22098809D01*
X118904761Y21813095D01*
X118857142Y21717857D01*
X118809523Y21670238D01*
X118714285Y21622619D01*
X118571428Y21622619D01*
X119333333Y21622619D02*
X119333333Y22289285D01*
X119333333Y22098809D02*
X119380952Y22194047D01*
X119428571Y22241666D01*
X119523809Y22289285D01*
X119619047Y22289285D01*
X120714285Y21622619D02*
X120714285Y22622619D01*
X120952380Y22622619D01*
X121095238Y22575000D01*
X121190476Y22479761D01*
X121238095Y22384523D01*
X121285714Y22194047D01*
X121285714Y22051190D01*
X121238095Y21860714D01*
X121190476Y21765476D01*
X121095238Y21670238D01*
X120952380Y21622619D01*
X120714285Y21622619D01*
X121714285Y21622619D02*
X121714285Y22289285D01*
X121714285Y22622619D02*
X121666666Y22575000D01*
X121714285Y22527380D01*
X121761904Y22575000D01*
X121714285Y22622619D01*
X121714285Y22527380D01*
X122142857Y21670238D02*
X122238095Y21622619D01*
X122428571Y21622619D01*
X122523809Y21670238D01*
X122571428Y21765476D01*
X122571428Y21813095D01*
X122523809Y21908333D01*
X122428571Y21955952D01*
X122285714Y21955952D01*
X122190476Y22003571D01*
X122142857Y22098809D01*
X122142857Y22146428D01*
X122190476Y22241666D01*
X122285714Y22289285D01*
X122428571Y22289285D01*
X122523809Y22241666D01*
X122857142Y22289285D02*
X123238095Y22289285D01*
X123000000Y22622619D02*
X123000000Y21765476D01*
X123047619Y21670238D01*
X123142857Y21622619D01*
X123238095Y21622619D01*
X123571428Y21622619D02*
X123571428Y22289285D01*
X123571428Y22098809D02*
X123619047Y22194047D01*
X123666666Y22241666D01*
X123761904Y22289285D01*
X123857142Y22289285D01*
X124190476Y21622619D02*
X124190476Y22289285D01*
X124190476Y22622619D02*
X124142857Y22575000D01*
X124190476Y22527380D01*
X124238095Y22575000D01*
X124190476Y22622619D01*
X124190476Y22527380D01*
X124666666Y21622619D02*
X124666666Y22622619D01*
X124666666Y22241666D02*
X124761904Y22289285D01*
X124952380Y22289285D01*
X125047619Y22241666D01*
X125095238Y22194047D01*
X125142857Y22098809D01*
X125142857Y21813095D01*
X125095238Y21717857D01*
X125047619Y21670238D01*
X124952380Y21622619D01*
X124761904Y21622619D01*
X124666666Y21670238D01*
X126000000Y22289285D02*
X126000000Y21622619D01*
X125571428Y22289285D02*
X125571428Y21765476D01*
X125619047Y21670238D01*
X125714285Y21622619D01*
X125857142Y21622619D01*
X125952380Y21670238D01*
X126000000Y21717857D01*
X126333333Y22289285D02*
X126714285Y22289285D01*
X126476190Y22622619D02*
X126476190Y21765476D01*
X126523809Y21670238D01*
X126619047Y21622619D01*
X126714285Y21622619D01*
X127047619Y21622619D02*
X127047619Y22289285D01*
X127047619Y22622619D02*
X127000000Y22575000D01*
X127047619Y22527380D01*
X127095238Y22575000D01*
X127047619Y22622619D01*
X127047619Y22527380D01*
X127666666Y21622619D02*
X127571428Y21670238D01*
X127523809Y21717857D01*
X127476190Y21813095D01*
X127476190Y22098809D01*
X127523809Y22194047D01*
X127571428Y22241666D01*
X127666666Y22289285D01*
X127809523Y22289285D01*
X127904761Y22241666D01*
X127952380Y22194047D01*
X128000000Y22098809D01*
X128000000Y21813095D01*
X127952380Y21717857D01*
X127904761Y21670238D01*
X127809523Y21622619D01*
X127666666Y21622619D01*
X128428571Y22289285D02*
X128428571Y21622619D01*
X128428571Y22194047D02*
X128476190Y22241666D01*
X128571428Y22289285D01*
X128714285Y22289285D01*
X128809523Y22241666D01*
X128857142Y22146428D01*
X128857142Y21622619D01*
X129380952Y21670238D02*
X129380952Y21622619D01*
X129333333Y21527380D01*
X129285714Y21479761D01*
X131142857Y21622619D02*
X130809523Y22098809D01*
X130571428Y21622619D02*
X130571428Y22622619D01*
X130952380Y22622619D01*
X131047619Y22575000D01*
X131095238Y22527380D01*
X131142857Y22432142D01*
X131142857Y22289285D01*
X131095238Y22194047D01*
X131047619Y22146428D01*
X130952380Y22098809D01*
X130571428Y22098809D01*
X131952380Y21670238D02*
X131857142Y21622619D01*
X131666666Y21622619D01*
X131571428Y21670238D01*
X131523809Y21765476D01*
X131523809Y22146428D01*
X131571428Y22241666D01*
X131666666Y22289285D01*
X131857142Y22289285D01*
X131952380Y22241666D01*
X132000000Y22146428D01*
X132000000Y22051190D01*
X131523809Y21955952D01*
X132333333Y22289285D02*
X132571428Y21622619D01*
X132809523Y22289285D01*
X134476190Y21622619D02*
X133904761Y21622619D01*
X134190476Y21622619D02*
X134190476Y22622619D01*
X134095238Y22479761D01*
X134000000Y22384523D01*
X133904761Y22336904D01*
X134904761Y21717857D02*
X134952380Y21670238D01*
X134904761Y21622619D01*
X134857142Y21670238D01*
X134904761Y21717857D01*
X134904761Y21622619D01*
X135571428Y22622619D02*
X135666666Y22622619D01*
X135761904Y22575000D01*
X135809523Y22527380D01*
X135857142Y22432142D01*
X135904761Y22241666D01*
X135904761Y22003571D01*
X135857142Y21813095D01*
X135809523Y21717857D01*
X135761904Y21670238D01*
X135666666Y21622619D01*
X135571428Y21622619D01*
X135476190Y21670238D01*
X135428571Y21717857D01*
X135380952Y21813095D01*
X135333333Y22003571D01*
X135333333Y22241666D01*
X135380952Y22432142D01*
X135428571Y22527380D01*
X135476190Y22575000D01*
X135571428Y22622619D01*
X115357142Y20067857D02*
X115309523Y20020238D01*
X115166666Y19972619D01*
X115071428Y19972619D01*
X114928571Y20020238D01*
X114833333Y20115476D01*
X114785714Y20210714D01*
X114738095Y20401190D01*
X114738095Y20544047D01*
X114785714Y20734523D01*
X114833333Y20829761D01*
X114928571Y20925000D01*
X115071428Y20972619D01*
X115166666Y20972619D01*
X115309523Y20925000D01*
X115357142Y20877380D01*
X115785714Y19972619D02*
X115785714Y20972619D01*
X116214285Y19972619D02*
X116214285Y20496428D01*
X116166666Y20591666D01*
X116071428Y20639285D01*
X115928571Y20639285D01*
X115833333Y20591666D01*
X115785714Y20544047D01*
X116690476Y19972619D02*
X116690476Y20639285D01*
X116690476Y20448809D02*
X116738095Y20544047D01*
X116785714Y20591666D01*
X116880952Y20639285D01*
X116976190Y20639285D01*
X117309523Y19972619D02*
X117309523Y20639285D01*
X117309523Y20972619D02*
X117261904Y20925000D01*
X117309523Y20877380D01*
X117357142Y20925000D01*
X117309523Y20972619D01*
X117309523Y20877380D01*
X117738095Y20020238D02*
X117833333Y19972619D01*
X118023809Y19972619D01*
X118119047Y20020238D01*
X118166666Y20115476D01*
X118166666Y20163095D01*
X118119047Y20258333D01*
X118023809Y20305952D01*
X117880952Y20305952D01*
X117785714Y20353571D01*
X117738095Y20448809D01*
X117738095Y20496428D01*
X117785714Y20591666D01*
X117880952Y20639285D01*
X118023809Y20639285D01*
X118119047Y20591666D01*
X119309523Y20258333D02*
X119785714Y20258333D01*
X119214285Y19972619D02*
X119547619Y20972619D01*
X119880952Y19972619D01*
X120357142Y19972619D02*
X120261904Y20020238D01*
X120214285Y20115476D01*
X120214285Y20972619D01*
X120738095Y19972619D02*
X120738095Y20972619D01*
X120738095Y20591666D02*
X120833333Y20639285D01*
X121023809Y20639285D01*
X121119047Y20591666D01*
X121166666Y20544047D01*
X121214285Y20448809D01*
X121214285Y20163095D01*
X121166666Y20067857D01*
X121119047Y20020238D01*
X121023809Y19972619D01*
X120833333Y19972619D01*
X120738095Y20020238D01*
X122023809Y20020238D02*
X121928571Y19972619D01*
X121738095Y19972619D01*
X121642857Y20020238D01*
X121595238Y20115476D01*
X121595238Y20496428D01*
X121642857Y20591666D01*
X121738095Y20639285D01*
X121928571Y20639285D01*
X122023809Y20591666D01*
X122071428Y20496428D01*
X122071428Y20401190D01*
X121595238Y20305952D01*
X122500000Y19972619D02*
X122500000Y20639285D01*
X122500000Y20448809D02*
X122547619Y20544047D01*
X122595238Y20591666D01*
X122690476Y20639285D01*
X122785714Y20639285D01*
X122976190Y20639285D02*
X123357142Y20639285D01*
X123119047Y20972619D02*
X123119047Y20115476D01*
X123166666Y20020238D01*
X123261904Y19972619D01*
X123357142Y19972619D01*
X123642857Y20020238D02*
X123738095Y19972619D01*
X123928571Y19972619D01*
X124023809Y20020238D01*
X124071428Y20115476D01*
X124071428Y20163095D01*
X124023809Y20258333D01*
X123928571Y20305952D01*
X123785714Y20305952D01*
X123690476Y20353571D01*
X123642857Y20448809D01*
X123642857Y20496428D01*
X123690476Y20591666D01*
X123785714Y20639285D01*
X123928571Y20639285D01*
X124023809Y20591666D01*
X124642857Y19972619D02*
X124547619Y20020238D01*
X124500000Y20067857D01*
X124452380Y20163095D01*
X124452380Y20448809D01*
X124500000Y20544047D01*
X124547619Y20591666D01*
X124642857Y20639285D01*
X124785714Y20639285D01*
X124880952Y20591666D01*
X124928571Y20544047D01*
X124976190Y20448809D01*
X124976190Y20163095D01*
X124928571Y20067857D01*
X124880952Y20020238D01*
X124785714Y19972619D01*
X124642857Y19972619D01*
X125404761Y20639285D02*
X125404761Y19972619D01*
X125404761Y20544047D02*
X125452380Y20591666D01*
X125547619Y20639285D01*
X125690476Y20639285D01*
X125785714Y20591666D01*
X125833333Y20496428D01*
X125833333Y19972619D01*
X126357142Y20020238D02*
X126357142Y19972619D01*
X126309523Y19877380D01*
X126261904Y19829761D01*
X127833333Y20972619D02*
X127833333Y20258333D01*
X127785714Y20115476D01*
X127690476Y20020238D01*
X127547619Y19972619D01*
X127452380Y19972619D01*
X128738095Y20639285D02*
X128738095Y19972619D01*
X128309523Y20639285D02*
X128309523Y20115476D01*
X128357142Y20020238D01*
X128452380Y19972619D01*
X128595238Y19972619D01*
X128690476Y20020238D01*
X128738095Y20067857D01*
X129214285Y20639285D02*
X129214285Y19972619D01*
X129214285Y20544047D02*
X129261904Y20591666D01*
X129357142Y20639285D01*
X129500000Y20639285D01*
X129595238Y20591666D01*
X129642857Y20496428D01*
X129642857Y19972619D01*
X130833333Y20877380D02*
X130880952Y20925000D01*
X130976190Y20972619D01*
X131214285Y20972619D01*
X131309523Y20925000D01*
X131357142Y20877380D01*
X131404761Y20782142D01*
X131404761Y20686904D01*
X131357142Y20544047D01*
X130785714Y19972619D01*
X131404761Y19972619D01*
X132023809Y20972619D02*
X132119047Y20972619D01*
X132214285Y20925000D01*
X132261904Y20877380D01*
X132309523Y20782142D01*
X132357142Y20591666D01*
X132357142Y20353571D01*
X132309523Y20163095D01*
X132261904Y20067857D01*
X132214285Y20020238D01*
X132119047Y19972619D01*
X132023809Y19972619D01*
X131928571Y20020238D01*
X131880952Y20067857D01*
X131833333Y20163095D01*
X131785714Y20353571D01*
X131785714Y20591666D01*
X131833333Y20782142D01*
X131880952Y20877380D01*
X131928571Y20925000D01*
X132023809Y20972619D01*
X133309523Y19972619D02*
X132738095Y19972619D01*
X133023809Y19972619D02*
X133023809Y20972619D01*
X132928571Y20829761D01*
X132833333Y20734523D01*
X132738095Y20686904D01*
X133785714Y19972619D02*
X133976190Y19972619D01*
X134071428Y20020238D01*
X134119047Y20067857D01*
X134214285Y20210714D01*
X134261904Y20401190D01*
X134261904Y20782142D01*
X134214285Y20877380D01*
X134166666Y20925000D01*
X134071428Y20972619D01*
X133880952Y20972619D01*
X133785714Y20925000D01*
X133738095Y20877380D01*
X133690476Y20782142D01*
X133690476Y20544047D01*
X133738095Y20448809D01*
X133785714Y20401190D01*
X133880952Y20353571D01*
X134071428Y20353571D01*
X134166666Y20401190D01*
X134214285Y20448809D01*
X134261904Y20544047D01*
X139565476Y-6363095D02*
X138315476Y-6363095D01*
X139208333Y-5946428D01*
X138315476Y-5529761D01*
X139565476Y-5529761D01*
X139565476Y-4755952D02*
X139505952Y-4875000D01*
X139446428Y-4934523D01*
X139327380Y-4994047D01*
X138970238Y-4994047D01*
X138851190Y-4934523D01*
X138791666Y-4875000D01*
X138732142Y-4755952D01*
X138732142Y-4577380D01*
X138791666Y-4458333D01*
X138851190Y-4398809D01*
X138970238Y-4339285D01*
X139327380Y-4339285D01*
X139446428Y-4398809D01*
X139505952Y-4458333D01*
X139565476Y-4577380D01*
X139565476Y-4755952D01*
X138732142Y-3982142D02*
X138732142Y-3505952D01*
X138315476Y-3803571D02*
X139386904Y-3803571D01*
X139505952Y-3744047D01*
X139565476Y-3625000D01*
X139565476Y-3505952D01*
X139565476Y-2910714D02*
X139505952Y-3029761D01*
X139446428Y-3089285D01*
X139327380Y-3148809D01*
X138970238Y-3148809D01*
X138851190Y-3089285D01*
X138791666Y-3029761D01*
X138732142Y-2910714D01*
X138732142Y-2732142D01*
X138791666Y-2613095D01*
X138851190Y-2553571D01*
X138970238Y-2494047D01*
X139327380Y-2494047D01*
X139446428Y-2553571D01*
X139505952Y-2613095D01*
X139565476Y-2732142D01*
X139565476Y-2910714D01*
X139565476Y-1958333D02*
X138732142Y-1958333D01*
X138970238Y-1958333D02*
X138851190Y-1898809D01*
X138791666Y-1839285D01*
X138732142Y-1720238D01*
X138732142Y-1601190D01*
X138434523Y-291666D02*
X138375000Y-232142D01*
X138315476Y-113095D01*
X138315476Y184523D01*
X138375000Y303571D01*
X138434523Y363095D01*
X138553571Y422619D01*
X138672619Y422619D01*
X138851190Y363095D01*
X139565476Y-351190D01*
X139565476Y422619D01*
X110560952Y-6363095D02*
X109320952Y-6363095D01*
X110206666Y-5946428D01*
X109320952Y-5529761D01*
X110560952Y-5529761D01*
X110560952Y-4755952D02*
X110501904Y-4875000D01*
X110442857Y-4934523D01*
X110324761Y-4994047D01*
X109970476Y-4994047D01*
X109852380Y-4934523D01*
X109793333Y-4875000D01*
X109734285Y-4755952D01*
X109734285Y-4577380D01*
X109793333Y-4458333D01*
X109852380Y-4398809D01*
X109970476Y-4339285D01*
X110324761Y-4339285D01*
X110442857Y-4398809D01*
X110501904Y-4458333D01*
X110560952Y-4577380D01*
X110560952Y-4755952D01*
X109734285Y-3982142D02*
X109734285Y-3505952D01*
X109320952Y-3803571D02*
X110383809Y-3803571D01*
X110501904Y-3744047D01*
X110560952Y-3625000D01*
X110560952Y-3505952D01*
X110560952Y-2910714D02*
X110501904Y-3029761D01*
X110442857Y-3089285D01*
X110324761Y-3148809D01*
X109970476Y-3148809D01*
X109852380Y-3089285D01*
X109793333Y-3029761D01*
X109734285Y-2910714D01*
X109734285Y-2732142D01*
X109793333Y-2613095D01*
X109852380Y-2553571D01*
X109970476Y-2494047D01*
X110324761Y-2494047D01*
X110442857Y-2553571D01*
X110501904Y-2613095D01*
X110560952Y-2732142D01*
X110560952Y-2910714D01*
X110560952Y-1958333D02*
X109734285Y-1958333D01*
X109970476Y-1958333D02*
X109852380Y-1898809D01*
X109793333Y-1839285D01*
X109734285Y-1720238D01*
X109734285Y-1601190D01*
X110560952Y422619D02*
X110560952Y-291666D01*
X110560952Y65476D02*
X109320952Y65476D01*
X109498095Y-53571D01*
X109616190Y-172619D01*
X109675238Y-291666D01*
X123797619Y46214285D02*
X123750000Y46261904D01*
X123702380Y46357142D01*
X123702380Y46595238D01*
X123750000Y46690476D01*
X123797619Y46738095D01*
X123892857Y46785714D01*
X123988095Y46785714D01*
X124130952Y46738095D01*
X124702380Y46166666D01*
X124702380Y46785714D01*
X124178571Y47547619D02*
X124226190Y47690476D01*
X124273809Y47738095D01*
X124369047Y47785714D01*
X124511904Y47785714D01*
X124607142Y47738095D01*
X124654761Y47690476D01*
X124702380Y47595238D01*
X124702380Y47214285D01*
X123702380Y47214285D01*
X123702380Y47547619D01*
X123750000Y47642857D01*
X123797619Y47690476D01*
X123892857Y47738095D01*
X123988095Y47738095D01*
X124083333Y47690476D01*
X124130952Y47642857D01*
X124178571Y47547619D01*
X124178571Y47214285D01*
X121297619Y46285714D02*
X121250000Y46333333D01*
X121202380Y46428571D01*
X121202380Y46666666D01*
X121250000Y46761904D01*
X121297619Y46809523D01*
X121392857Y46857142D01*
X121488095Y46857142D01*
X121630952Y46809523D01*
X122202380Y46238095D01*
X122202380Y46857142D01*
X121916666Y47238095D02*
X121916666Y47714285D01*
X122202380Y47142857D02*
X121202380Y47476190D01*
X122202380Y47809523D01*
X119702380Y46785714D02*
X119702380Y46214285D01*
X119702380Y46500000D02*
X118702380Y46500000D01*
X118845238Y46404761D01*
X118940476Y46309523D01*
X118988095Y46214285D01*
X119178571Y47547619D02*
X119226190Y47690476D01*
X119273809Y47738095D01*
X119369047Y47785714D01*
X119511904Y47785714D01*
X119607142Y47738095D01*
X119654761Y47690476D01*
X119702380Y47595238D01*
X119702380Y47214285D01*
X118702380Y47214285D01*
X118702380Y47547619D01*
X118750000Y47642857D01*
X118797619Y47690476D01*
X118892857Y47738095D01*
X118988095Y47738095D01*
X119083333Y47690476D01*
X119130952Y47642857D01*
X119178571Y47547619D01*
X119178571Y47214285D01*
X115107142Y47047619D02*
X114535714Y47047619D01*
X114821428Y47047619D02*
X114821428Y48047619D01*
X114726190Y47904761D01*
X114630952Y47809523D01*
X114535714Y47761904D01*
X115488095Y47333333D02*
X115964285Y47333333D01*
X115392857Y47047619D02*
X115726190Y48047619D01*
X116059523Y47047619D01*
X108892857Y25178571D02*
X109654761Y25178571D01*
X109273809Y24797619D02*
X109273809Y25559523D01*
X110607142Y25797619D02*
X110130952Y25797619D01*
X110083333Y25321428D01*
X110130952Y25369047D01*
X110226190Y25416666D01*
X110464285Y25416666D01*
X110559523Y25369047D01*
X110607142Y25321428D01*
X110654761Y25226190D01*
X110654761Y24988095D01*
X110607142Y24892857D01*
X110559523Y24845238D01*
X110464285Y24797619D01*
X110226190Y24797619D01*
X110130952Y24845238D01*
X110083333Y24892857D01*
X137392857Y35428571D02*
X138154761Y35428571D01*
X137773809Y35047619D02*
X137773809Y35809523D01*
X139107142Y36047619D02*
X138630952Y36047619D01*
X138583333Y35571428D01*
X138630952Y35619047D01*
X138726190Y35666666D01*
X138964285Y35666666D01*
X139059523Y35619047D01*
X139107142Y35571428D01*
X139154761Y35476190D01*
X139154761Y35238095D01*
X139107142Y35142857D01*
X139059523Y35095238D01*
X138964285Y35047619D01*
X138726190Y35047619D01*
X138630952Y35095238D01*
X138583333Y35142857D01*
X137714285Y27315476D02*
X137761904Y27375000D01*
X137857142Y27434523D01*
X138095238Y27434523D01*
X138190476Y27375000D01*
X138238095Y27315476D01*
X138285714Y27196428D01*
X138285714Y27077380D01*
X138238095Y26898809D01*
X137666666Y26184523D01*
X138285714Y26184523D01*
X139047619Y26839285D02*
X139190476Y26779761D01*
X139238095Y26720238D01*
X139285714Y26601190D01*
X139285714Y26422619D01*
X139238095Y26303571D01*
X139190476Y26244047D01*
X139095238Y26184523D01*
X138714285Y26184523D01*
X138714285Y27434523D01*
X139047619Y27434523D01*
X139142857Y27375000D01*
X139190476Y27315476D01*
X139238095Y27196428D01*
X139238095Y27077380D01*
X139190476Y26958333D01*
X139142857Y26898809D01*
X139047619Y26839285D01*
X138714285Y26839285D01*
X137785714Y29815476D02*
X137833333Y29875000D01*
X137928571Y29934523D01*
X138166666Y29934523D01*
X138261904Y29875000D01*
X138309523Y29815476D01*
X138357142Y29696428D01*
X138357142Y29577380D01*
X138309523Y29398809D01*
X137738095Y28684523D01*
X138357142Y28684523D01*
X138738095Y29041666D02*
X139214285Y29041666D01*
X138642857Y28684523D02*
X138976190Y29934523D01*
X139309523Y28684523D01*
X110035714Y33934523D02*
X109464285Y33934523D01*
X109750000Y33934523D02*
X109750000Y35184523D01*
X109654761Y35005952D01*
X109559523Y34886904D01*
X109464285Y34827380D01*
X110797619Y34589285D02*
X110940476Y34529761D01*
X110988095Y34470238D01*
X111035714Y34351190D01*
X111035714Y34172619D01*
X110988095Y34053571D01*
X110940476Y33994047D01*
X110845238Y33934523D01*
X110464285Y33934523D01*
X110464285Y35184523D01*
X110797619Y35184523D01*
X110892857Y35125000D01*
X110940476Y35065476D01*
X110988095Y34946428D01*
X110988095Y34827380D01*
X110940476Y34708333D01*
X110892857Y34648809D01*
X110797619Y34589285D01*
X110464285Y34589285D01*
X110107142Y31434523D02*
X109535714Y31434523D01*
X109821428Y31434523D02*
X109821428Y32684523D01*
X109726190Y32505952D01*
X109630952Y32386904D01*
X109535714Y32327380D01*
X110488095Y31791666D02*
X110964285Y31791666D01*
X110392857Y31434523D02*
X110726190Y32684523D01*
X111059523Y31434523D01*
X110488095Y29750000D02*
X110392857Y29797619D01*
X110250000Y29797619D01*
X110107142Y29750000D01*
X110011904Y29654761D01*
X109964285Y29559523D01*
X109916666Y29369047D01*
X109916666Y29226190D01*
X109964285Y29035714D01*
X110011904Y28940476D01*
X110107142Y28845238D01*
X110250000Y28797619D01*
X110345238Y28797619D01*
X110488095Y28845238D01*
X110535714Y28892857D01*
X110535714Y29226190D01*
X110345238Y29226190D01*
X110964285Y28797619D02*
X110964285Y29797619D01*
X111535714Y28797619D01*
X111535714Y29797619D01*
X112011904Y28797619D02*
X112011904Y29797619D01*
X112250000Y29797619D01*
X112392857Y29750000D01*
X112488095Y29654761D01*
X112535714Y29559523D01*
X112583333Y29369047D01*
X112583333Y29226190D01*
X112535714Y29035714D01*
X112488095Y28940476D01*
X112392857Y28845238D01*
X112250000Y28797619D01*
X112011904Y28797619D01*
X136988095Y32250000D02*
X136892857Y32297619D01*
X136750000Y32297619D01*
X136607142Y32250000D01*
X136511904Y32154761D01*
X136464285Y32059523D01*
X136416666Y31869047D01*
X136416666Y31726190D01*
X136464285Y31535714D01*
X136511904Y31440476D01*
X136607142Y31345238D01*
X136750000Y31297619D01*
X136845238Y31297619D01*
X136988095Y31345238D01*
X137035714Y31392857D01*
X137035714Y31726190D01*
X136845238Y31726190D01*
X137464285Y31297619D02*
X137464285Y32297619D01*
X138035714Y31297619D01*
X138035714Y32297619D01*
X138511904Y31297619D02*
X138511904Y32297619D01*
X138750000Y32297619D01*
X138892857Y32250000D01*
X138988095Y32154761D01*
X139035714Y32059523D01*
X139083333Y31869047D01*
X139083333Y31726190D01*
X139035714Y31535714D01*
X138988095Y31440476D01*
X138892857Y31345238D01*
X138750000Y31297619D01*
X138511904Y31297619D01*
X133000000Y45738095D02*
X132952380Y45642857D01*
X132952380Y45500000D01*
X133000000Y45357142D01*
X133095238Y45261904D01*
X133190476Y45214285D01*
X133380952Y45166666D01*
X133523809Y45166666D01*
X133714285Y45214285D01*
X133809523Y45261904D01*
X133904761Y45357142D01*
X133952380Y45500000D01*
X133952380Y45595238D01*
X133904761Y45738095D01*
X133857142Y45785714D01*
X133523809Y45785714D01*
X133523809Y45595238D01*
X133952380Y46214285D02*
X132952380Y46214285D01*
X133952380Y46785714D01*
X132952380Y46785714D01*
X133952380Y47261904D02*
X132952380Y47261904D01*
X132952380Y47500000D01*
X133000000Y47642857D01*
X133095238Y47738095D01*
X133190476Y47785714D01*
X133380952Y47833333D01*
X133523809Y47833333D01*
X133714285Y47785714D01*
X133809523Y47738095D01*
X133904761Y47642857D01*
X133952380Y47500000D01*
X133952380Y47261904D01*
X128071428Y45261904D02*
X128071428Y46023809D01*
X128452380Y45642857D02*
X127690476Y45642857D01*
X127452380Y46976190D02*
X127452380Y46500000D01*
X127928571Y46452380D01*
X127880952Y46500000D01*
X127833333Y46595238D01*
X127833333Y46833333D01*
X127880952Y46928571D01*
X127928571Y46976190D01*
X128023809Y47023809D01*
X128261904Y47023809D01*
X128357142Y46976190D01*
X128404761Y46928571D01*
X128452380Y46833333D01*
X128452380Y46595238D01*
X128404761Y46500000D01*
X128357142Y46452380D01*
X127785714Y47357142D02*
X128452380Y47595238D01*
X127785714Y47833333D01*
D12*
X126701300Y-23097520D02*
X126701300Y-11901200D01*
X126701300Y-11901200D02*
X133198620Y-11901200D01*
X125700540Y-11901200D02*
X126701300Y-11901200D01*
X125700540Y-23097520D02*
X125700540Y-11901200D01*
X126701300Y-23097520D02*
X125700540Y-23097520D01*
X133198620Y-23097520D02*
X126701300Y-23097520D01*
X133198620Y-11901200D02*
X133198620Y-23097520D01*
X126701300Y-13097520D02*
X126701300Y-1901200D01*
X126701300Y-1901200D02*
X133198620Y-1901200D01*
X125700540Y-1901200D02*
X126701300Y-1901200D01*
X125700540Y-13097520D02*
X125700540Y-1901200D01*
X126701300Y-13097520D02*
X125700540Y-13097520D01*
X133198620Y-13097520D02*
X126701300Y-13097520D01*
X133198620Y-1901200D02*
X133198620Y-13097520D01*
X126701300Y-3097520D02*
X126701300Y8098800D01*
X126701300Y8098800D02*
X133198620Y8098800D01*
X125700540Y8098800D02*
X126701300Y8098800D01*
X125700540Y-3097520D02*
X125700540Y8098800D01*
X126701300Y-3097520D02*
X125700540Y-3097520D01*
X133198620Y-3097520D02*
X126701300Y-3097520D01*
X133198620Y8098800D02*
X133198620Y-3097520D01*
X126701300Y6902480D02*
X126701300Y18098800D01*
X126701300Y18098800D02*
X133198620Y18098800D01*
X125700540Y18098800D02*
X126701300Y18098800D01*
X125700540Y6902480D02*
X125700540Y18098800D01*
X126701300Y6902480D02*
X125700540Y6902480D01*
X133198620Y6902480D02*
X126701300Y6902480D01*
X133198620Y18098800D02*
X133198620Y6902480D01*
X122548700Y-11902480D02*
X122548700Y-23098800D01*
X122548700Y-23098800D02*
X116051380Y-23098800D01*
X123549460Y-23098800D02*
X122548700Y-23098800D01*
X123549460Y-11902480D02*
X123549460Y-23098800D01*
X122548700Y-11902480D02*
X123549460Y-11902480D01*
X116051380Y-11902480D02*
X122548700Y-11902480D01*
X116051380Y-23098800D02*
X116051380Y-11902480D01*
X122548700Y-1902480D02*
X122548700Y-13098800D01*
X122548700Y-13098800D02*
X116051380Y-13098800D01*
X123549460Y-13098800D02*
X122548700Y-13098800D01*
X123549460Y-1902480D02*
X123549460Y-13098800D01*
X122548700Y-1902480D02*
X123549460Y-1902480D01*
X116051380Y-1902480D02*
X122548700Y-1902480D01*
X116051380Y-13098800D02*
X116051380Y-1902480D01*
X122548700Y8097520D02*
X122548700Y-3098800D01*
X122548700Y-3098800D02*
X116051380Y-3098800D01*
X123549460Y-3098800D02*
X122548700Y-3098800D01*
X123549460Y8097520D02*
X123549460Y-3098800D01*
X122548700Y8097520D02*
X123549460Y8097520D01*
X116051380Y8097520D02*
X122548700Y8097520D01*
X116051380Y-3098800D02*
X116051380Y8097520D01*
X122583700Y18097520D02*
X122583700Y6901200D01*
X122583700Y6901200D02*
X116086380Y6901200D01*
X123584460Y6901200D02*
X122583700Y6901200D01*
X123584460Y18097520D02*
X123584460Y6901200D01*
X122583700Y18097520D02*
X123584460Y18097520D01*
X116086380Y18097520D02*
X122583700Y18097520D01*
X116086380Y6901200D02*
X116086380Y18097520D01*
D10*
X125385000Y34820000D02*
X125630000Y34820000D01*
X123290000Y34820000D02*
X123535000Y34820000D01*
X125385000Y31180000D02*
X125630000Y31180000D01*
X123290000Y31180000D02*
X123535000Y31180000D01*
X125630000Y31180000D02*
X125630000Y34820000D01*
X123290000Y31180000D02*
X123290000Y34820000D01*
X120650000Y25400000D02*
X119380000Y25400000D01*
X120650000Y26670000D02*
X120650000Y25400000D01*
X118337071Y34670000D02*
X117940000Y34670000D01*
X118337071Y33910000D02*
X117940000Y33910000D01*
X109280000Y34670000D02*
X115280000Y34670000D01*
X109280000Y33910000D02*
X109280000Y34670000D01*
X115280000Y33910000D02*
X109280000Y33910000D01*
X117940000Y33020000D02*
X115280000Y33020000D01*
X118337071Y32130000D02*
X117940000Y32130000D01*
X118337071Y31370000D02*
X117940000Y31370000D01*
X109280000Y32130000D02*
X115280000Y32130000D01*
X109280000Y31370000D02*
X109280000Y32130000D01*
X115280000Y31370000D02*
X109280000Y31370000D01*
X117940000Y30480000D02*
X115280000Y30480000D01*
X118337071Y29590000D02*
X117940000Y29590000D01*
X118337071Y28830000D02*
X117940000Y28830000D01*
X109280000Y29590000D02*
X115280000Y29590000D01*
X109280000Y28830000D02*
X109280000Y29590000D01*
X115280000Y28830000D02*
X109280000Y28830000D01*
X117940000Y27940000D02*
X115280000Y27940000D01*
X118270000Y27050000D02*
X117940000Y27050000D01*
X118270000Y26290000D02*
X117940000Y26290000D01*
X115280000Y26950000D02*
X109280000Y26950000D01*
X115280000Y26830000D02*
X109280000Y26830000D01*
X115280000Y26710000D02*
X109280000Y26710000D01*
X115280000Y26590000D02*
X109280000Y26590000D01*
X115280000Y26470000D02*
X109280000Y26470000D01*
X115280000Y26350000D02*
X109280000Y26350000D01*
X109280000Y27050000D02*
X115280000Y27050000D01*
X109280000Y26290000D02*
X109280000Y27050000D01*
X115280000Y26290000D02*
X109280000Y26290000D01*
X115280000Y25340000D02*
X117940000Y25340000D01*
X115280000Y35620000D02*
X115280000Y25340000D01*
X117940000Y35620000D02*
X115280000Y35620000D01*
X117940000Y25340000D02*
X117940000Y35620000D01*
X128270000Y36830000D02*
X128270000Y38100000D01*
X129540000Y36830000D02*
X128270000Y36830000D01*
X132460000Y39142929D02*
X132460000Y39540000D01*
X131700000Y39142929D02*
X131700000Y39540000D01*
X132460000Y48200000D02*
X132460000Y42200000D01*
X131700000Y48200000D02*
X132460000Y48200000D01*
X131700000Y42200000D02*
X131700000Y48200000D01*
X130810000Y39540000D02*
X130810000Y42200000D01*
X129920000Y39210000D02*
X129920000Y39540000D01*
X129160000Y39210000D02*
X129160000Y39540000D01*
X129820000Y42200000D02*
X129820000Y48200000D01*
X129700000Y42200000D02*
X129700000Y48200000D01*
X129580000Y42200000D02*
X129580000Y48200000D01*
X129460000Y42200000D02*
X129460000Y48200000D01*
X129340000Y42200000D02*
X129340000Y48200000D01*
X129220000Y42200000D02*
X129220000Y48200000D01*
X129920000Y48200000D02*
X129920000Y42200000D01*
X129160000Y48200000D02*
X129920000Y48200000D01*
X129160000Y42200000D02*
X129160000Y48200000D01*
X128210000Y42200000D02*
X128210000Y39540000D01*
X133410000Y42200000D02*
X128210000Y42200000D01*
X133410000Y39540000D02*
X133410000Y42200000D01*
X128210000Y39540000D02*
X133410000Y39540000D01*
X115570000Y36830000D02*
X115570000Y38100000D01*
X116840000Y36830000D02*
X115570000Y36830000D01*
X124840000Y39142929D02*
X124840000Y39540000D01*
X124080000Y39142929D02*
X124080000Y39540000D01*
X124840000Y48200000D02*
X124840000Y42200000D01*
X124080000Y48200000D02*
X124840000Y48200000D01*
X124080000Y42200000D02*
X124080000Y48200000D01*
X123190000Y39540000D02*
X123190000Y42200000D01*
X122300000Y39142929D02*
X122300000Y39540000D01*
X121540000Y39142929D02*
X121540000Y39540000D01*
X122300000Y48200000D02*
X122300000Y42200000D01*
X121540000Y48200000D02*
X122300000Y48200000D01*
X121540000Y42200000D02*
X121540000Y48200000D01*
X120650000Y39540000D02*
X120650000Y42200000D01*
X119760000Y39142929D02*
X119760000Y39540000D01*
X119000000Y39142929D02*
X119000000Y39540000D01*
X119760000Y48200000D02*
X119760000Y42200000D01*
X119000000Y48200000D02*
X119760000Y48200000D01*
X119000000Y42200000D02*
X119000000Y48200000D01*
X118110000Y39540000D02*
X118110000Y42200000D01*
X117220000Y39210000D02*
X117220000Y39540000D01*
X116460000Y39210000D02*
X116460000Y39540000D01*
X117120000Y42200000D02*
X117120000Y48200000D01*
X117000000Y42200000D02*
X117000000Y48200000D01*
X116880000Y42200000D02*
X116880000Y48200000D01*
X116760000Y42200000D02*
X116760000Y48200000D01*
X116640000Y42200000D02*
X116640000Y48200000D01*
X116520000Y42200000D02*
X116520000Y48200000D01*
X117220000Y48200000D02*
X117220000Y42200000D01*
X116460000Y48200000D02*
X117220000Y48200000D01*
X116460000Y42200000D02*
X116460000Y48200000D01*
X115510000Y42200000D02*
X115510000Y39540000D01*
X125790000Y42200000D02*
X115510000Y42200000D01*
X125790000Y39540000D02*
X125790000Y42200000D01*
X115510000Y39540000D02*
X125790000Y39540000D01*
X128270000Y35560000D02*
X129540000Y35560000D01*
X128270000Y34290000D02*
X128270000Y35560000D01*
X130582929Y26290000D02*
X130980000Y26290000D01*
X130582929Y27050000D02*
X130980000Y27050000D01*
X139640000Y26290000D02*
X133640000Y26290000D01*
X139640000Y27050000D02*
X139640000Y26290000D01*
X133640000Y27050000D02*
X139640000Y27050000D01*
X130980000Y27940000D02*
X133640000Y27940000D01*
X130582929Y28830000D02*
X130980000Y28830000D01*
X130582929Y29590000D02*
X130980000Y29590000D01*
X139640000Y28830000D02*
X133640000Y28830000D01*
X139640000Y29590000D02*
X139640000Y28830000D01*
X133640000Y29590000D02*
X139640000Y29590000D01*
X130980000Y30480000D02*
X133640000Y30480000D01*
X130582929Y31370000D02*
X130980000Y31370000D01*
X130582929Y32130000D02*
X130980000Y32130000D01*
X139640000Y31370000D02*
X133640000Y31370000D01*
X139640000Y32130000D02*
X139640000Y31370000D01*
X133640000Y32130000D02*
X139640000Y32130000D01*
X130980000Y33020000D02*
X133640000Y33020000D01*
X130650000Y33910000D02*
X130980000Y33910000D01*
X130650000Y34670000D02*
X130980000Y34670000D01*
X133640000Y34010000D02*
X139640000Y34010000D01*
X133640000Y34130000D02*
X139640000Y34130000D01*
X133640000Y34250000D02*
X139640000Y34250000D01*
X133640000Y34370000D02*
X139640000Y34370000D01*
X133640000Y34490000D02*
X139640000Y34490000D01*
X133640000Y34610000D02*
X139640000Y34610000D01*
X139640000Y33910000D02*
X133640000Y33910000D01*
X139640000Y34670000D02*
X139640000Y33910000D01*
X133640000Y34670000D02*
X139640000Y34670000D01*
X133640000Y35620000D02*
X130980000Y35620000D01*
X133640000Y25340000D02*
X133640000Y35620000D01*
X130980000Y25340000D02*
X133640000Y25340000D01*
X130980000Y35620000D02*
X130980000Y25340000D01*
D13*
X131506514Y-14666171D02*
X131506514Y-15101600D01*
X131477485Y-15188685D01*
X131419428Y-15246742D01*
X131332342Y-15275771D01*
X131274285Y-15275771D01*
X132116114Y-15275771D02*
X131767771Y-15275771D01*
X131941942Y-15275771D02*
X131941942Y-14666171D01*
X131883885Y-14753257D01*
X131825828Y-14811314D01*
X131767771Y-14840342D01*
X132696685Y-15275771D02*
X132348342Y-15275771D01*
X132522514Y-15275771D02*
X132522514Y-14666171D01*
X132464457Y-14753257D01*
X132406400Y-14811314D01*
X132348342Y-14840342D01*
X131506514Y-4666171D02*
X131506514Y-5101600D01*
X131477485Y-5188685D01*
X131419428Y-5246742D01*
X131332342Y-5275771D01*
X131274285Y-5275771D01*
X132116114Y-5275771D02*
X131767771Y-5275771D01*
X131941942Y-5275771D02*
X131941942Y-4666171D01*
X131883885Y-4753257D01*
X131825828Y-4811314D01*
X131767771Y-4840342D01*
X132493485Y-4666171D02*
X132551542Y-4666171D01*
X132609600Y-4695200D01*
X132638628Y-4724228D01*
X132667657Y-4782285D01*
X132696685Y-4898400D01*
X132696685Y-5043542D01*
X132667657Y-5159657D01*
X132638628Y-5217714D01*
X132609600Y-5246742D01*
X132551542Y-5275771D01*
X132493485Y-5275771D01*
X132435428Y-5246742D01*
X132406400Y-5217714D01*
X132377371Y-5159657D01*
X132348342Y-5043542D01*
X132348342Y-4898400D01*
X132377371Y-4782285D01*
X132406400Y-4724228D01*
X132435428Y-4695200D01*
X132493485Y-4666171D01*
X131796800Y5333828D02*
X131796800Y4898400D01*
X131767771Y4811314D01*
X131709714Y4753257D01*
X131622628Y4724228D01*
X131564571Y4724228D01*
X132116114Y4724228D02*
X132232228Y4724228D01*
X132290285Y4753257D01*
X132319314Y4782285D01*
X132377371Y4869371D01*
X132406400Y4985485D01*
X132406400Y5217714D01*
X132377371Y5275771D01*
X132348342Y5304800D01*
X132290285Y5333828D01*
X132174171Y5333828D01*
X132116114Y5304800D01*
X132087085Y5275771D01*
X132058057Y5217714D01*
X132058057Y5072571D01*
X132087085Y5014514D01*
X132116114Y4985485D01*
X132174171Y4956457D01*
X132290285Y4956457D01*
X132348342Y4985485D01*
X132377371Y5014514D01*
X132406400Y5072571D01*
X131796800Y15333828D02*
X131796800Y14898400D01*
X131767771Y14811314D01*
X131709714Y14753257D01*
X131622628Y14724228D01*
X131564571Y14724228D01*
X132174171Y15072571D02*
X132116114Y15101600D01*
X132087085Y15130628D01*
X132058057Y15188685D01*
X132058057Y15217714D01*
X132087085Y15275771D01*
X132116114Y15304800D01*
X132174171Y15333828D01*
X132290285Y15333828D01*
X132348342Y15304800D01*
X132377371Y15275771D01*
X132406400Y15217714D01*
X132406400Y15188685D01*
X132377371Y15130628D01*
X132348342Y15101600D01*
X132290285Y15072571D01*
X132174171Y15072571D01*
X132116114Y15043542D01*
X132087085Y15014514D01*
X132058057Y14956457D01*
X132058057Y14840342D01*
X132087085Y14782285D01*
X132116114Y14753257D01*
X132174171Y14724228D01*
X132290285Y14724228D01*
X132348342Y14753257D01*
X132377371Y14782285D01*
X132406400Y14840342D01*
X132406400Y14956457D01*
X132377371Y15014514D01*
X132348342Y15043542D01*
X132290285Y15072571D01*
X117296800Y-19666171D02*
X117296800Y-20101600D01*
X117267771Y-20188685D01*
X117209714Y-20246742D01*
X117122628Y-20275771D01*
X117064571Y-20275771D01*
X117877371Y-19666171D02*
X117587085Y-19666171D01*
X117558057Y-19956457D01*
X117587085Y-19927428D01*
X117645142Y-19898400D01*
X117790285Y-19898400D01*
X117848342Y-19927428D01*
X117877371Y-19956457D01*
X117906400Y-20014514D01*
X117906400Y-20159657D01*
X117877371Y-20217714D01*
X117848342Y-20246742D01*
X117790285Y-20275771D01*
X117645142Y-20275771D01*
X117587085Y-20246742D01*
X117558057Y-20217714D01*
X117296800Y-9666171D02*
X117296800Y-10101600D01*
X117267771Y-10188685D01*
X117209714Y-10246742D01*
X117122628Y-10275771D01*
X117064571Y-10275771D01*
X117848342Y-9869371D02*
X117848342Y-10275771D01*
X117703200Y-9637142D02*
X117558057Y-10072571D01*
X117935428Y-10072571D01*
X117296800Y333828D02*
X117296800Y-101600D01*
X117267771Y-188685D01*
X117209714Y-246742D01*
X117122628Y-275771D01*
X117064571Y-275771D01*
X117529028Y333828D02*
X117906400Y333828D01*
X117703200Y101600D01*
X117790285Y101600D01*
X117848342Y72571D01*
X117877371Y43542D01*
X117906400Y-14514D01*
X117906400Y-159657D01*
X117877371Y-217714D01*
X117848342Y-246742D01*
X117790285Y-275771D01*
X117616114Y-275771D01*
X117558057Y-246742D01*
X117529028Y-217714D01*
X117366800Y10333828D02*
X117366800Y9898400D01*
X117337771Y9811314D01*
X117279714Y9753257D01*
X117192628Y9724228D01*
X117134571Y9724228D01*
X117628057Y10275771D02*
X117657085Y10304800D01*
X117715142Y10333828D01*
X117860285Y10333828D01*
X117918342Y10304800D01*
X117947371Y10275771D01*
X117976400Y10217714D01*
X117976400Y10159657D01*
X117947371Y10072571D01*
X117599028Y9724228D01*
X117976400Y9724228D01*
D11*
X122517142Y32833333D02*
X122564761Y32785714D01*
X122612380Y32642857D01*
X122612380Y32547619D01*
X122564761Y32404761D01*
X122469523Y32309523D01*
X122374285Y32261904D01*
X122183809Y32214285D01*
X122040952Y32214285D01*
X121850476Y32261904D01*
X121755238Y32309523D01*
X121660000Y32404761D01*
X121612380Y32547619D01*
X121612380Y32642857D01*
X121660000Y32785714D01*
X121707619Y32833333D01*
X122612380Y33785714D02*
X122612380Y33214285D01*
X122612380Y33500000D02*
X121612380Y33500000D01*
X121755238Y33404761D01*
X121850476Y33309523D01*
X121898095Y33214285D01*
X114661666Y24947619D02*
X114661666Y24233333D01*
X114614047Y24090476D01*
X114518809Y23995238D01*
X114375952Y23947619D01*
X114280714Y23947619D01*
X115661666Y23947619D02*
X115090238Y23947619D01*
X115375952Y23947619D02*
X115375952Y24947619D01*
X115280714Y24804761D01*
X115185476Y24709523D01*
X115090238Y24661904D01*
X126722380Y42151666D02*
X127436666Y42151666D01*
X127579523Y42104047D01*
X127674761Y42008809D01*
X127722380Y41865952D01*
X127722380Y41770714D01*
X126722380Y43056428D02*
X126722380Y42865952D01*
X126770000Y42770714D01*
X126817619Y42723095D01*
X126960476Y42627857D01*
X127150952Y42580238D01*
X127531904Y42580238D01*
X127627142Y42627857D01*
X127674761Y42675476D01*
X127722380Y42770714D01*
X127722380Y42961190D01*
X127674761Y43056428D01*
X127627142Y43104047D01*
X127531904Y43151666D01*
X127293809Y43151666D01*
X127198571Y43104047D01*
X127150952Y43056428D01*
X127103333Y42961190D01*
X127103333Y42770714D01*
X127150952Y42675476D01*
X127198571Y42627857D01*
X127293809Y42580238D01*
X114022380Y42151666D02*
X114736666Y42151666D01*
X114879523Y42104047D01*
X114974761Y42008809D01*
X115022380Y41865952D01*
X115022380Y41770714D01*
X114022380Y42532619D02*
X114022380Y43199285D01*
X115022380Y42770714D01*
X133115476Y37107619D02*
X133115476Y36393333D01*
X133067857Y36250476D01*
X132972619Y36155238D01*
X132829761Y36107619D01*
X132734523Y36107619D01*
X134115476Y36107619D02*
X133544047Y36107619D01*
X133829761Y36107619D02*
X133829761Y37107619D01*
X133734523Y36964761D01*
X133639285Y36869523D01*
X133544047Y36821904D01*
X134496428Y37012380D02*
X134544047Y37060000D01*
X134639285Y37107619D01*
X134877380Y37107619D01*
X134972619Y37060000D01*
X135020238Y37012380D01*
X135067857Y36917142D01*
X135067857Y36821904D01*
X135020238Y36679047D01*
X134448809Y36107619D01*
X135067857Y36107619D01*
M02*
