G04 #@! TF.GenerationSoftware,KiCad,Pcbnew,(5.1.2-1)-1*
G04 #@! TF.CreationDate,2019-06-03T16:39:24-07:00*
G04 #@! TF.ProjectId,PowerDistribution,506f7765-7244-4697-9374-726962757469,rev?*
G04 #@! TF.SameCoordinates,Original*
G04 #@! TF.FileFunction,Copper,L2,Bot*
G04 #@! TF.FilePolarity,Positive*
%FSLAX46Y46*%
G04 Gerber Fmt 4.6, Leading zero omitted, Abs format (unit mm)*
G04 Created by KiCad (PCBNEW (5.1.2-1)-1) date 2019-06-03 16:39:24*
%MOMM*%
%LPD*%
G04 APERTURE LIST*
%ADD10C,2.032000*%
%ADD11R,2.032000X2.032000*%
%ADD12C,1.600000*%
%ADD13O,1.700000X1.700000*%
%ADD14R,1.700000X1.700000*%
%ADD15C,0.800000*%
%ADD16C,1.000000*%
%ADD17C,0.500000*%
%ADD18C,0.250000*%
%ADD19C,0.254000*%
G04 APERTURE END LIST*
D10*
X129000000Y-19998720D03*
D11*
X129000000Y-15000000D03*
D10*
X129000000Y-9998720D03*
D11*
X129000000Y-5000000D03*
D10*
X129000000Y1280D03*
D11*
X129000000Y5000000D03*
D10*
X129000000Y10001280D03*
D11*
X129000000Y15000000D03*
D10*
X120250000Y-15001280D03*
D11*
X120250000Y-20000000D03*
D10*
X120250000Y-5001280D03*
D11*
X120250000Y-10000000D03*
D10*
X120250000Y4998720D03*
D11*
X120250000Y0D03*
D10*
X120285000Y14998720D03*
D11*
X120285000Y10000000D03*
D12*
X124460000Y34250000D03*
X124460000Y31750000D03*
D13*
X119380000Y34290000D03*
X119380000Y31750000D03*
X119380000Y29210000D03*
D14*
X119380000Y26670000D03*
D13*
X132080000Y38100000D03*
D14*
X129540000Y38100000D03*
D13*
X124460000Y38100000D03*
X121920000Y38100000D03*
X119380000Y38100000D03*
D14*
X116840000Y38100000D03*
D13*
X129540000Y26670000D03*
X129540000Y29210000D03*
X129540000Y31750000D03*
D14*
X129540000Y34290000D03*
D15*
X125730000Y27940000D03*
D16*
X124460000Y30480000D02*
X120650000Y26670000D01*
X120650000Y26670000D02*
X119380000Y26670000D01*
X124460000Y31750000D02*
X124460000Y30480000D01*
D17*
X121920000Y33020000D02*
X123150000Y34250000D01*
X123150000Y34250000D02*
X124460000Y34250000D01*
X121920000Y30480000D02*
X121920000Y33020000D01*
X120650000Y29210000D02*
X121920000Y30480000D01*
X119380000Y29210000D02*
X120650000Y29210000D01*
X130810000Y31750000D02*
X132080000Y33020000D01*
X132080000Y38100000D02*
X132080000Y33020000D01*
X130810000Y31750000D02*
X129540000Y31750000D01*
X125770000Y34250000D02*
X124460000Y34250000D01*
X128270000Y31750000D02*
X125770000Y34250000D01*
X129540000Y31750000D02*
X128270000Y31750000D01*
D18*
X127635000Y29210000D02*
X129540000Y29210000D01*
X126365000Y27940000D02*
X127635000Y29210000D01*
X125730000Y27940000D02*
X126365000Y27940000D01*
D19*
G36*
X138600897Y49034756D02*
G01*
X139178905Y48860245D01*
X139712014Y48576786D01*
X140179911Y48195179D01*
X140564773Y47729960D01*
X140851946Y47198846D01*
X141030486Y46622073D01*
X141098000Y45979726D01*
X141098000Y24488651D01*
X141012445Y24424605D01*
X140777940Y24296556D01*
X140527593Y24203181D01*
X140266504Y24146385D01*
X139995470Y24127000D01*
X109004530Y24127000D01*
X108733496Y24146385D01*
X108472407Y24203181D01*
X108222060Y24296556D01*
X107987555Y24424605D01*
X107902000Y24488651D01*
X107902000Y27520000D01*
X117648757Y27520000D01*
X117648757Y25820000D01*
X117665690Y25648078D01*
X117715838Y25482763D01*
X117797273Y25330408D01*
X117906867Y25196867D01*
X118040408Y25087273D01*
X118192763Y25005838D01*
X118358078Y24955690D01*
X118530000Y24938757D01*
X120230000Y24938757D01*
X120401922Y24955690D01*
X120567237Y25005838D01*
X120719592Y25087273D01*
X120853133Y25196867D01*
X120957806Y25324412D01*
X120977573Y25330408D01*
X121179505Y25391663D01*
X121418721Y25519527D01*
X121628397Y25691603D01*
X121671521Y25744150D01*
X123993145Y28065774D01*
X124453000Y28065774D01*
X124453000Y27814226D01*
X124502074Y27567513D01*
X124598337Y27335114D01*
X124738089Y27125960D01*
X124915960Y26948089D01*
X125125114Y26808337D01*
X125357513Y26712074D01*
X125604226Y26663000D01*
X125855774Y26663000D01*
X126102487Y26712074D01*
X126334886Y26808337D01*
X126544040Y26948089D01*
X126547031Y26951080D01*
X126561426Y26952498D01*
X126750304Y27009794D01*
X126924375Y27102836D01*
X127076949Y27228051D01*
X127108331Y27266290D01*
X128050042Y28208000D01*
X128128198Y28208000D01*
X128312918Y27982918D01*
X128365214Y27940000D01*
X128312918Y27897082D01*
X128097104Y27634112D01*
X127936740Y27334092D01*
X127837988Y27008551D01*
X127804644Y26670000D01*
X127837988Y26331449D01*
X127936740Y26005908D01*
X128097104Y25705888D01*
X128312918Y25442918D01*
X128575888Y25227104D01*
X128875908Y25066740D01*
X129201449Y24967988D01*
X129455159Y24943000D01*
X129624841Y24943000D01*
X129878551Y24967988D01*
X130204092Y25066740D01*
X130504112Y25227104D01*
X130767082Y25442918D01*
X130982896Y25705888D01*
X131143260Y26005908D01*
X131242012Y26331449D01*
X131275356Y26670000D01*
X131242012Y27008551D01*
X131143260Y27334092D01*
X130982896Y27634112D01*
X130767082Y27897082D01*
X130714786Y27940000D01*
X130767082Y27982918D01*
X130982896Y28245888D01*
X131143260Y28545908D01*
X131242012Y28871449D01*
X131275356Y29210000D01*
X131242012Y29548551D01*
X131143260Y29874092D01*
X130982896Y30174112D01*
X130767082Y30437082D01*
X130517746Y30641707D01*
X130637588Y30749731D01*
X130811641Y30983080D01*
X130936825Y31245901D01*
X130981476Y31393110D01*
X130860155Y31623000D01*
X129667000Y31623000D01*
X129667000Y31603000D01*
X129413000Y31603000D01*
X129413000Y31623000D01*
X128219845Y31623000D01*
X128098524Y31393110D01*
X128143175Y31245901D01*
X128268359Y30983080D01*
X128442412Y30749731D01*
X128562254Y30641707D01*
X128312918Y30437082D01*
X128128198Y30212000D01*
X127684215Y30212000D01*
X127634999Y30216847D01*
X127585783Y30212000D01*
X127585777Y30212000D01*
X127458612Y30199476D01*
X127438573Y30197502D01*
X127381277Y30180121D01*
X127249696Y30140206D01*
X127075625Y30047164D01*
X126923051Y29921949D01*
X126891673Y29883715D01*
X126154387Y29146428D01*
X126102487Y29167926D01*
X125855774Y29217000D01*
X125604226Y29217000D01*
X125357513Y29167926D01*
X125125114Y29071663D01*
X124915960Y28931911D01*
X124738089Y28754040D01*
X124598337Y28544886D01*
X124502074Y28312487D01*
X124453000Y28065774D01*
X123993145Y28065774D01*
X125385855Y29458483D01*
X125438397Y29501603D01*
X125610473Y29711279D01*
X125738337Y29950495D01*
X125806170Y30174112D01*
X125817075Y30210060D01*
X125843662Y30480000D01*
X125837000Y30547640D01*
X125837000Y30792306D01*
X125946138Y30955643D01*
X126072554Y31260837D01*
X126137000Y31584830D01*
X126137000Y31915170D01*
X126072554Y32239163D01*
X125946138Y32544357D01*
X125762611Y32819025D01*
X125529025Y33052611D01*
X125264834Y33229137D01*
X125273097Y33257298D01*
X124460000Y34070395D01*
X123646903Y33257298D01*
X123655166Y33229137D01*
X123390975Y33052611D01*
X123157389Y32819025D01*
X122973862Y32544357D01*
X122847446Y32239163D01*
X122783000Y31915170D01*
X122783000Y31584830D01*
X122847446Y31260837D01*
X122973862Y30955643D01*
X122979633Y30947005D01*
X120793498Y28760869D01*
X120821476Y28853110D01*
X120700155Y29083000D01*
X119507000Y29083000D01*
X119507000Y29063000D01*
X119253000Y29063000D01*
X119253000Y29083000D01*
X118059845Y29083000D01*
X117938524Y28853110D01*
X117983175Y28705901D01*
X118108359Y28443080D01*
X118190502Y28332953D01*
X118040408Y28252727D01*
X117906867Y28143133D01*
X117797273Y28009592D01*
X117715838Y27857237D01*
X117665690Y27691922D01*
X117648757Y27520000D01*
X107902000Y27520000D01*
X107902000Y34290000D01*
X117644644Y34290000D01*
X117677988Y33951449D01*
X117776740Y33625908D01*
X117937104Y33325888D01*
X118152918Y33062918D01*
X118205214Y33020000D01*
X118152918Y32977082D01*
X117937104Y32714112D01*
X117776740Y32414092D01*
X117677988Y32088551D01*
X117644644Y31750000D01*
X117677988Y31411449D01*
X117776740Y31085908D01*
X117937104Y30785888D01*
X118152918Y30522918D01*
X118402254Y30318293D01*
X118282412Y30210269D01*
X118108359Y29976920D01*
X117983175Y29714099D01*
X117938524Y29566890D01*
X118059845Y29337000D01*
X119253000Y29337000D01*
X119253000Y29357000D01*
X119507000Y29357000D01*
X119507000Y29337000D01*
X120700155Y29337000D01*
X120821476Y29566890D01*
X120776825Y29714099D01*
X120651641Y29976920D01*
X120477588Y30210269D01*
X120357746Y30318293D01*
X120607082Y30522918D01*
X120822896Y30785888D01*
X120983260Y31085908D01*
X121082012Y31411449D01*
X121115356Y31750000D01*
X121082012Y32088551D01*
X120983260Y32414092D01*
X120822896Y32714112D01*
X120607082Y32977082D01*
X120554786Y33020000D01*
X120607082Y33062918D01*
X120822896Y33325888D01*
X120983260Y33625908D01*
X121082012Y33951449D01*
X121104471Y34179488D01*
X123019783Y34179488D01*
X123061213Y33899870D01*
X123156397Y33633708D01*
X123223329Y33508486D01*
X123467298Y33436903D01*
X124280395Y34250000D01*
X124639605Y34250000D01*
X125452702Y33436903D01*
X125696671Y33508486D01*
X125817571Y33763996D01*
X125886300Y34038184D01*
X125900217Y34320512D01*
X125858787Y34600130D01*
X125763603Y34866292D01*
X125696671Y34991514D01*
X125452702Y35063097D01*
X124639605Y34250000D01*
X124280395Y34250000D01*
X123467298Y35063097D01*
X123223329Y34991514D01*
X123102429Y34736004D01*
X123033700Y34461816D01*
X123019783Y34179488D01*
X121104471Y34179488D01*
X121115356Y34290000D01*
X121082012Y34628551D01*
X120983260Y34954092D01*
X120828995Y35242702D01*
X123646903Y35242702D01*
X124460000Y34429605D01*
X125170395Y35140000D01*
X127808757Y35140000D01*
X127808757Y33440000D01*
X127825690Y33268078D01*
X127875838Y33102763D01*
X127957273Y32950408D01*
X128066867Y32816867D01*
X128200408Y32707273D01*
X128350502Y32627047D01*
X128268359Y32516920D01*
X128143175Y32254099D01*
X128098524Y32106890D01*
X128219845Y31877000D01*
X129413000Y31877000D01*
X129413000Y31897000D01*
X129667000Y31897000D01*
X129667000Y31877000D01*
X130860155Y31877000D01*
X130981476Y32106890D01*
X130936825Y32254099D01*
X130811641Y32516920D01*
X130729498Y32627047D01*
X130879592Y32707273D01*
X131013133Y32816867D01*
X131122727Y32950408D01*
X131204162Y33102763D01*
X131254310Y33268078D01*
X131271243Y33440000D01*
X131271243Y35140000D01*
X131254310Y35311922D01*
X131204162Y35477237D01*
X131122727Y35629592D01*
X131013133Y35763133D01*
X130879592Y35872727D01*
X130727237Y35954162D01*
X130561922Y36004310D01*
X130390000Y36021243D01*
X128690000Y36021243D01*
X128518078Y36004310D01*
X128352763Y35954162D01*
X128200408Y35872727D01*
X128066867Y35763133D01*
X127957273Y35629592D01*
X127875838Y35477237D01*
X127825690Y35311922D01*
X127808757Y35140000D01*
X125170395Y35140000D01*
X125273097Y35242702D01*
X125201514Y35486671D01*
X124946004Y35607571D01*
X124671816Y35676300D01*
X124389488Y35690217D01*
X124109870Y35648787D01*
X123843708Y35553603D01*
X123718486Y35486671D01*
X123646903Y35242702D01*
X120828995Y35242702D01*
X120822896Y35254112D01*
X120607082Y35517082D01*
X120344112Y35732896D01*
X120044092Y35893260D01*
X119718551Y35992012D01*
X119464841Y36017000D01*
X119295159Y36017000D01*
X119041449Y35992012D01*
X118715908Y35893260D01*
X118415888Y35732896D01*
X118152918Y35517082D01*
X117937104Y35254112D01*
X117776740Y34954092D01*
X117677988Y34628551D01*
X117644644Y34290000D01*
X107902000Y34290000D01*
X107902000Y38950000D01*
X115108757Y38950000D01*
X115108757Y37250000D01*
X115125690Y37078078D01*
X115175838Y36912763D01*
X115257273Y36760408D01*
X115366867Y36626867D01*
X115500408Y36517273D01*
X115652763Y36435838D01*
X115818078Y36385690D01*
X115990000Y36368757D01*
X117690000Y36368757D01*
X117861922Y36385690D01*
X118027237Y36435838D01*
X118179592Y36517273D01*
X118313133Y36626867D01*
X118369315Y36695325D01*
X118415888Y36657104D01*
X118715908Y36496740D01*
X119041449Y36397988D01*
X119295159Y36373000D01*
X119464841Y36373000D01*
X119718551Y36397988D01*
X120044092Y36496740D01*
X120344112Y36657104D01*
X120607082Y36872918D01*
X120650000Y36925214D01*
X120692918Y36872918D01*
X120955888Y36657104D01*
X121255908Y36496740D01*
X121581449Y36397988D01*
X121835159Y36373000D01*
X122004841Y36373000D01*
X122258551Y36397988D01*
X122584092Y36496740D01*
X122884112Y36657104D01*
X123147082Y36872918D01*
X123190000Y36925214D01*
X123232918Y36872918D01*
X123495888Y36657104D01*
X123795908Y36496740D01*
X124121449Y36397988D01*
X124375159Y36373000D01*
X124544841Y36373000D01*
X124798551Y36397988D01*
X125124092Y36496740D01*
X125424112Y36657104D01*
X125687082Y36872918D01*
X125902896Y37135888D01*
X126063260Y37435908D01*
X126162012Y37761449D01*
X126195356Y38100000D01*
X126162012Y38438551D01*
X126063260Y38764092D01*
X125963891Y38950000D01*
X127808757Y38950000D01*
X127808757Y37250000D01*
X127825690Y37078078D01*
X127875838Y36912763D01*
X127957273Y36760408D01*
X128066867Y36626867D01*
X128200408Y36517273D01*
X128352763Y36435838D01*
X128518078Y36385690D01*
X128690000Y36368757D01*
X130390000Y36368757D01*
X130561922Y36385690D01*
X130727237Y36435838D01*
X130879592Y36517273D01*
X131013133Y36626867D01*
X131122727Y36760408D01*
X131202953Y36910502D01*
X131313080Y36828359D01*
X131575901Y36703175D01*
X131723110Y36658524D01*
X131953000Y36779845D01*
X131953000Y37973000D01*
X132207000Y37973000D01*
X132207000Y36779845D01*
X132436890Y36658524D01*
X132584099Y36703175D01*
X132846920Y36828359D01*
X133080269Y37002412D01*
X133275178Y37218645D01*
X133424157Y37468748D01*
X133521481Y37743109D01*
X133400814Y37973000D01*
X132207000Y37973000D01*
X131953000Y37973000D01*
X131933000Y37973000D01*
X131933000Y38227000D01*
X131953000Y38227000D01*
X131953000Y39420155D01*
X132207000Y39420155D01*
X132207000Y38227000D01*
X133400814Y38227000D01*
X133521481Y38456891D01*
X133424157Y38731252D01*
X133275178Y38981355D01*
X133080269Y39197588D01*
X132846920Y39371641D01*
X132584099Y39496825D01*
X132436890Y39541476D01*
X132207000Y39420155D01*
X131953000Y39420155D01*
X131723110Y39541476D01*
X131575901Y39496825D01*
X131313080Y39371641D01*
X131202953Y39289498D01*
X131122727Y39439592D01*
X131013133Y39573133D01*
X130879592Y39682727D01*
X130727237Y39764162D01*
X130561922Y39814310D01*
X130390000Y39831243D01*
X128690000Y39831243D01*
X128518078Y39814310D01*
X128352763Y39764162D01*
X128200408Y39682727D01*
X128066867Y39573133D01*
X127957273Y39439592D01*
X127875838Y39287237D01*
X127825690Y39121922D01*
X127808757Y38950000D01*
X125963891Y38950000D01*
X125902896Y39064112D01*
X125687082Y39327082D01*
X125424112Y39542896D01*
X125124092Y39703260D01*
X124798551Y39802012D01*
X124544841Y39827000D01*
X124375159Y39827000D01*
X124121449Y39802012D01*
X123795908Y39703260D01*
X123495888Y39542896D01*
X123232918Y39327082D01*
X123190000Y39274786D01*
X123147082Y39327082D01*
X122884112Y39542896D01*
X122584092Y39703260D01*
X122258551Y39802012D01*
X122004841Y39827000D01*
X121835159Y39827000D01*
X121581449Y39802012D01*
X121255908Y39703260D01*
X120955888Y39542896D01*
X120692918Y39327082D01*
X120650000Y39274786D01*
X120607082Y39327082D01*
X120344112Y39542896D01*
X120044092Y39703260D01*
X119718551Y39802012D01*
X119464841Y39827000D01*
X119295159Y39827000D01*
X119041449Y39802012D01*
X118715908Y39703260D01*
X118415888Y39542896D01*
X118369315Y39504675D01*
X118313133Y39573133D01*
X118179592Y39682727D01*
X118027237Y39764162D01*
X117861922Y39814310D01*
X117690000Y39831243D01*
X115990000Y39831243D01*
X115818078Y39814310D01*
X115652763Y39764162D01*
X115500408Y39682727D01*
X115366867Y39573133D01*
X115257273Y39439592D01*
X115175838Y39287237D01*
X115125690Y39121922D01*
X115108757Y38950000D01*
X107902000Y38950000D01*
X107902000Y45955887D01*
X107930246Y46243963D01*
X108523000Y46243963D01*
X108523000Y45756037D01*
X108618190Y45277486D01*
X108804911Y44826701D01*
X109075989Y44421005D01*
X109421005Y44075989D01*
X109826701Y43804911D01*
X110277486Y43618190D01*
X110756037Y43523000D01*
X111243963Y43523000D01*
X111722514Y43618190D01*
X112173299Y43804911D01*
X112578995Y44075989D01*
X112924011Y44421005D01*
X113195089Y44826701D01*
X113381810Y45277486D01*
X113477000Y45756037D01*
X113477000Y46243963D01*
X135523000Y46243963D01*
X135523000Y45756037D01*
X135618190Y45277486D01*
X135804911Y44826701D01*
X136075989Y44421005D01*
X136421005Y44075989D01*
X136826701Y43804911D01*
X137277486Y43618190D01*
X137756037Y43523000D01*
X138243963Y43523000D01*
X138722514Y43618190D01*
X139173299Y43804911D01*
X139578995Y44075989D01*
X139924011Y44421005D01*
X140195089Y44826701D01*
X140381810Y45277486D01*
X140477000Y45756037D01*
X140477000Y46243963D01*
X140381810Y46722514D01*
X140195089Y47173299D01*
X139924011Y47578995D01*
X139578995Y47924011D01*
X139173299Y48195089D01*
X138722514Y48381810D01*
X138243963Y48477000D01*
X137756037Y48477000D01*
X137277486Y48381810D01*
X136826701Y48195089D01*
X136421005Y47924011D01*
X136075989Y47578995D01*
X135804911Y47173299D01*
X135618190Y46722514D01*
X135523000Y46243963D01*
X113477000Y46243963D01*
X113381810Y46722514D01*
X113195089Y47173299D01*
X112924011Y47578995D01*
X112578995Y47924011D01*
X112173299Y48195089D01*
X111722514Y48381810D01*
X111243963Y48477000D01*
X110756037Y48477000D01*
X110277486Y48381810D01*
X109826701Y48195089D01*
X109421005Y47924011D01*
X109075989Y47578995D01*
X108804911Y47173299D01*
X108618190Y46722514D01*
X108523000Y46243963D01*
X107930246Y46243963D01*
X107965244Y46600897D01*
X108139755Y47178905D01*
X108423214Y47712014D01*
X108804821Y48179911D01*
X109270040Y48564773D01*
X109801154Y48851946D01*
X110377927Y49030486D01*
X111020274Y49098000D01*
X137955887Y49098000D01*
X138600897Y49034756D01*
X138600897Y49034756D01*
G37*
X138600897Y49034756D02*
X139178905Y48860245D01*
X139712014Y48576786D01*
X140179911Y48195179D01*
X140564773Y47729960D01*
X140851946Y47198846D01*
X141030486Y46622073D01*
X141098000Y45979726D01*
X141098000Y24488651D01*
X141012445Y24424605D01*
X140777940Y24296556D01*
X140527593Y24203181D01*
X140266504Y24146385D01*
X139995470Y24127000D01*
X109004530Y24127000D01*
X108733496Y24146385D01*
X108472407Y24203181D01*
X108222060Y24296556D01*
X107987555Y24424605D01*
X107902000Y24488651D01*
X107902000Y27520000D01*
X117648757Y27520000D01*
X117648757Y25820000D01*
X117665690Y25648078D01*
X117715838Y25482763D01*
X117797273Y25330408D01*
X117906867Y25196867D01*
X118040408Y25087273D01*
X118192763Y25005838D01*
X118358078Y24955690D01*
X118530000Y24938757D01*
X120230000Y24938757D01*
X120401922Y24955690D01*
X120567237Y25005838D01*
X120719592Y25087273D01*
X120853133Y25196867D01*
X120957806Y25324412D01*
X120977573Y25330408D01*
X121179505Y25391663D01*
X121418721Y25519527D01*
X121628397Y25691603D01*
X121671521Y25744150D01*
X123993145Y28065774D01*
X124453000Y28065774D01*
X124453000Y27814226D01*
X124502074Y27567513D01*
X124598337Y27335114D01*
X124738089Y27125960D01*
X124915960Y26948089D01*
X125125114Y26808337D01*
X125357513Y26712074D01*
X125604226Y26663000D01*
X125855774Y26663000D01*
X126102487Y26712074D01*
X126334886Y26808337D01*
X126544040Y26948089D01*
X126547031Y26951080D01*
X126561426Y26952498D01*
X126750304Y27009794D01*
X126924375Y27102836D01*
X127076949Y27228051D01*
X127108331Y27266290D01*
X128050042Y28208000D01*
X128128198Y28208000D01*
X128312918Y27982918D01*
X128365214Y27940000D01*
X128312918Y27897082D01*
X128097104Y27634112D01*
X127936740Y27334092D01*
X127837988Y27008551D01*
X127804644Y26670000D01*
X127837988Y26331449D01*
X127936740Y26005908D01*
X128097104Y25705888D01*
X128312918Y25442918D01*
X128575888Y25227104D01*
X128875908Y25066740D01*
X129201449Y24967988D01*
X129455159Y24943000D01*
X129624841Y24943000D01*
X129878551Y24967988D01*
X130204092Y25066740D01*
X130504112Y25227104D01*
X130767082Y25442918D01*
X130982896Y25705888D01*
X131143260Y26005908D01*
X131242012Y26331449D01*
X131275356Y26670000D01*
X131242012Y27008551D01*
X131143260Y27334092D01*
X130982896Y27634112D01*
X130767082Y27897082D01*
X130714786Y27940000D01*
X130767082Y27982918D01*
X130982896Y28245888D01*
X131143260Y28545908D01*
X131242012Y28871449D01*
X131275356Y29210000D01*
X131242012Y29548551D01*
X131143260Y29874092D01*
X130982896Y30174112D01*
X130767082Y30437082D01*
X130517746Y30641707D01*
X130637588Y30749731D01*
X130811641Y30983080D01*
X130936825Y31245901D01*
X130981476Y31393110D01*
X130860155Y31623000D01*
X129667000Y31623000D01*
X129667000Y31603000D01*
X129413000Y31603000D01*
X129413000Y31623000D01*
X128219845Y31623000D01*
X128098524Y31393110D01*
X128143175Y31245901D01*
X128268359Y30983080D01*
X128442412Y30749731D01*
X128562254Y30641707D01*
X128312918Y30437082D01*
X128128198Y30212000D01*
X127684215Y30212000D01*
X127634999Y30216847D01*
X127585783Y30212000D01*
X127585777Y30212000D01*
X127458612Y30199476D01*
X127438573Y30197502D01*
X127381277Y30180121D01*
X127249696Y30140206D01*
X127075625Y30047164D01*
X126923051Y29921949D01*
X126891673Y29883715D01*
X126154387Y29146428D01*
X126102487Y29167926D01*
X125855774Y29217000D01*
X125604226Y29217000D01*
X125357513Y29167926D01*
X125125114Y29071663D01*
X124915960Y28931911D01*
X124738089Y28754040D01*
X124598337Y28544886D01*
X124502074Y28312487D01*
X124453000Y28065774D01*
X123993145Y28065774D01*
X125385855Y29458483D01*
X125438397Y29501603D01*
X125610473Y29711279D01*
X125738337Y29950495D01*
X125806170Y30174112D01*
X125817075Y30210060D01*
X125843662Y30480000D01*
X125837000Y30547640D01*
X125837000Y30792306D01*
X125946138Y30955643D01*
X126072554Y31260837D01*
X126137000Y31584830D01*
X126137000Y31915170D01*
X126072554Y32239163D01*
X125946138Y32544357D01*
X125762611Y32819025D01*
X125529025Y33052611D01*
X125264834Y33229137D01*
X125273097Y33257298D01*
X124460000Y34070395D01*
X123646903Y33257298D01*
X123655166Y33229137D01*
X123390975Y33052611D01*
X123157389Y32819025D01*
X122973862Y32544357D01*
X122847446Y32239163D01*
X122783000Y31915170D01*
X122783000Y31584830D01*
X122847446Y31260837D01*
X122973862Y30955643D01*
X122979633Y30947005D01*
X120793498Y28760869D01*
X120821476Y28853110D01*
X120700155Y29083000D01*
X119507000Y29083000D01*
X119507000Y29063000D01*
X119253000Y29063000D01*
X119253000Y29083000D01*
X118059845Y29083000D01*
X117938524Y28853110D01*
X117983175Y28705901D01*
X118108359Y28443080D01*
X118190502Y28332953D01*
X118040408Y28252727D01*
X117906867Y28143133D01*
X117797273Y28009592D01*
X117715838Y27857237D01*
X117665690Y27691922D01*
X117648757Y27520000D01*
X107902000Y27520000D01*
X107902000Y34290000D01*
X117644644Y34290000D01*
X117677988Y33951449D01*
X117776740Y33625908D01*
X117937104Y33325888D01*
X118152918Y33062918D01*
X118205214Y33020000D01*
X118152918Y32977082D01*
X117937104Y32714112D01*
X117776740Y32414092D01*
X117677988Y32088551D01*
X117644644Y31750000D01*
X117677988Y31411449D01*
X117776740Y31085908D01*
X117937104Y30785888D01*
X118152918Y30522918D01*
X118402254Y30318293D01*
X118282412Y30210269D01*
X118108359Y29976920D01*
X117983175Y29714099D01*
X117938524Y29566890D01*
X118059845Y29337000D01*
X119253000Y29337000D01*
X119253000Y29357000D01*
X119507000Y29357000D01*
X119507000Y29337000D01*
X120700155Y29337000D01*
X120821476Y29566890D01*
X120776825Y29714099D01*
X120651641Y29976920D01*
X120477588Y30210269D01*
X120357746Y30318293D01*
X120607082Y30522918D01*
X120822896Y30785888D01*
X120983260Y31085908D01*
X121082012Y31411449D01*
X121115356Y31750000D01*
X121082012Y32088551D01*
X120983260Y32414092D01*
X120822896Y32714112D01*
X120607082Y32977082D01*
X120554786Y33020000D01*
X120607082Y33062918D01*
X120822896Y33325888D01*
X120983260Y33625908D01*
X121082012Y33951449D01*
X121104471Y34179488D01*
X123019783Y34179488D01*
X123061213Y33899870D01*
X123156397Y33633708D01*
X123223329Y33508486D01*
X123467298Y33436903D01*
X124280395Y34250000D01*
X124639605Y34250000D01*
X125452702Y33436903D01*
X125696671Y33508486D01*
X125817571Y33763996D01*
X125886300Y34038184D01*
X125900217Y34320512D01*
X125858787Y34600130D01*
X125763603Y34866292D01*
X125696671Y34991514D01*
X125452702Y35063097D01*
X124639605Y34250000D01*
X124280395Y34250000D01*
X123467298Y35063097D01*
X123223329Y34991514D01*
X123102429Y34736004D01*
X123033700Y34461816D01*
X123019783Y34179488D01*
X121104471Y34179488D01*
X121115356Y34290000D01*
X121082012Y34628551D01*
X120983260Y34954092D01*
X120828995Y35242702D01*
X123646903Y35242702D01*
X124460000Y34429605D01*
X125170395Y35140000D01*
X127808757Y35140000D01*
X127808757Y33440000D01*
X127825690Y33268078D01*
X127875838Y33102763D01*
X127957273Y32950408D01*
X128066867Y32816867D01*
X128200408Y32707273D01*
X128350502Y32627047D01*
X128268359Y32516920D01*
X128143175Y32254099D01*
X128098524Y32106890D01*
X128219845Y31877000D01*
X129413000Y31877000D01*
X129413000Y31897000D01*
X129667000Y31897000D01*
X129667000Y31877000D01*
X130860155Y31877000D01*
X130981476Y32106890D01*
X130936825Y32254099D01*
X130811641Y32516920D01*
X130729498Y32627047D01*
X130879592Y32707273D01*
X131013133Y32816867D01*
X131122727Y32950408D01*
X131204162Y33102763D01*
X131254310Y33268078D01*
X131271243Y33440000D01*
X131271243Y35140000D01*
X131254310Y35311922D01*
X131204162Y35477237D01*
X131122727Y35629592D01*
X131013133Y35763133D01*
X130879592Y35872727D01*
X130727237Y35954162D01*
X130561922Y36004310D01*
X130390000Y36021243D01*
X128690000Y36021243D01*
X128518078Y36004310D01*
X128352763Y35954162D01*
X128200408Y35872727D01*
X128066867Y35763133D01*
X127957273Y35629592D01*
X127875838Y35477237D01*
X127825690Y35311922D01*
X127808757Y35140000D01*
X125170395Y35140000D01*
X125273097Y35242702D01*
X125201514Y35486671D01*
X124946004Y35607571D01*
X124671816Y35676300D01*
X124389488Y35690217D01*
X124109870Y35648787D01*
X123843708Y35553603D01*
X123718486Y35486671D01*
X123646903Y35242702D01*
X120828995Y35242702D01*
X120822896Y35254112D01*
X120607082Y35517082D01*
X120344112Y35732896D01*
X120044092Y35893260D01*
X119718551Y35992012D01*
X119464841Y36017000D01*
X119295159Y36017000D01*
X119041449Y35992012D01*
X118715908Y35893260D01*
X118415888Y35732896D01*
X118152918Y35517082D01*
X117937104Y35254112D01*
X117776740Y34954092D01*
X117677988Y34628551D01*
X117644644Y34290000D01*
X107902000Y34290000D01*
X107902000Y38950000D01*
X115108757Y38950000D01*
X115108757Y37250000D01*
X115125690Y37078078D01*
X115175838Y36912763D01*
X115257273Y36760408D01*
X115366867Y36626867D01*
X115500408Y36517273D01*
X115652763Y36435838D01*
X115818078Y36385690D01*
X115990000Y36368757D01*
X117690000Y36368757D01*
X117861922Y36385690D01*
X118027237Y36435838D01*
X118179592Y36517273D01*
X118313133Y36626867D01*
X118369315Y36695325D01*
X118415888Y36657104D01*
X118715908Y36496740D01*
X119041449Y36397988D01*
X119295159Y36373000D01*
X119464841Y36373000D01*
X119718551Y36397988D01*
X120044092Y36496740D01*
X120344112Y36657104D01*
X120607082Y36872918D01*
X120650000Y36925214D01*
X120692918Y36872918D01*
X120955888Y36657104D01*
X121255908Y36496740D01*
X121581449Y36397988D01*
X121835159Y36373000D01*
X122004841Y36373000D01*
X122258551Y36397988D01*
X122584092Y36496740D01*
X122884112Y36657104D01*
X123147082Y36872918D01*
X123190000Y36925214D01*
X123232918Y36872918D01*
X123495888Y36657104D01*
X123795908Y36496740D01*
X124121449Y36397988D01*
X124375159Y36373000D01*
X124544841Y36373000D01*
X124798551Y36397988D01*
X125124092Y36496740D01*
X125424112Y36657104D01*
X125687082Y36872918D01*
X125902896Y37135888D01*
X126063260Y37435908D01*
X126162012Y37761449D01*
X126195356Y38100000D01*
X126162012Y38438551D01*
X126063260Y38764092D01*
X125963891Y38950000D01*
X127808757Y38950000D01*
X127808757Y37250000D01*
X127825690Y37078078D01*
X127875838Y36912763D01*
X127957273Y36760408D01*
X128066867Y36626867D01*
X128200408Y36517273D01*
X128352763Y36435838D01*
X128518078Y36385690D01*
X128690000Y36368757D01*
X130390000Y36368757D01*
X130561922Y36385690D01*
X130727237Y36435838D01*
X130879592Y36517273D01*
X131013133Y36626867D01*
X131122727Y36760408D01*
X131202953Y36910502D01*
X131313080Y36828359D01*
X131575901Y36703175D01*
X131723110Y36658524D01*
X131953000Y36779845D01*
X131953000Y37973000D01*
X132207000Y37973000D01*
X132207000Y36779845D01*
X132436890Y36658524D01*
X132584099Y36703175D01*
X132846920Y36828359D01*
X133080269Y37002412D01*
X133275178Y37218645D01*
X133424157Y37468748D01*
X133521481Y37743109D01*
X133400814Y37973000D01*
X132207000Y37973000D01*
X131953000Y37973000D01*
X131933000Y37973000D01*
X131933000Y38227000D01*
X131953000Y38227000D01*
X131953000Y39420155D01*
X132207000Y39420155D01*
X132207000Y38227000D01*
X133400814Y38227000D01*
X133521481Y38456891D01*
X133424157Y38731252D01*
X133275178Y38981355D01*
X133080269Y39197588D01*
X132846920Y39371641D01*
X132584099Y39496825D01*
X132436890Y39541476D01*
X132207000Y39420155D01*
X131953000Y39420155D01*
X131723110Y39541476D01*
X131575901Y39496825D01*
X131313080Y39371641D01*
X131202953Y39289498D01*
X131122727Y39439592D01*
X131013133Y39573133D01*
X130879592Y39682727D01*
X130727237Y39764162D01*
X130561922Y39814310D01*
X130390000Y39831243D01*
X128690000Y39831243D01*
X128518078Y39814310D01*
X128352763Y39764162D01*
X128200408Y39682727D01*
X128066867Y39573133D01*
X127957273Y39439592D01*
X127875838Y39287237D01*
X127825690Y39121922D01*
X127808757Y38950000D01*
X125963891Y38950000D01*
X125902896Y39064112D01*
X125687082Y39327082D01*
X125424112Y39542896D01*
X125124092Y39703260D01*
X124798551Y39802012D01*
X124544841Y39827000D01*
X124375159Y39827000D01*
X124121449Y39802012D01*
X123795908Y39703260D01*
X123495888Y39542896D01*
X123232918Y39327082D01*
X123190000Y39274786D01*
X123147082Y39327082D01*
X122884112Y39542896D01*
X122584092Y39703260D01*
X122258551Y39802012D01*
X122004841Y39827000D01*
X121835159Y39827000D01*
X121581449Y39802012D01*
X121255908Y39703260D01*
X120955888Y39542896D01*
X120692918Y39327082D01*
X120650000Y39274786D01*
X120607082Y39327082D01*
X120344112Y39542896D01*
X120044092Y39703260D01*
X119718551Y39802012D01*
X119464841Y39827000D01*
X119295159Y39827000D01*
X119041449Y39802012D01*
X118715908Y39703260D01*
X118415888Y39542896D01*
X118369315Y39504675D01*
X118313133Y39573133D01*
X118179592Y39682727D01*
X118027237Y39764162D01*
X117861922Y39814310D01*
X117690000Y39831243D01*
X115990000Y39831243D01*
X115818078Y39814310D01*
X115652763Y39764162D01*
X115500408Y39682727D01*
X115366867Y39573133D01*
X115257273Y39439592D01*
X115175838Y39287237D01*
X115125690Y39121922D01*
X115108757Y38950000D01*
X107902000Y38950000D01*
X107902000Y45955887D01*
X107930246Y46243963D01*
X108523000Y46243963D01*
X108523000Y45756037D01*
X108618190Y45277486D01*
X108804911Y44826701D01*
X109075989Y44421005D01*
X109421005Y44075989D01*
X109826701Y43804911D01*
X110277486Y43618190D01*
X110756037Y43523000D01*
X111243963Y43523000D01*
X111722514Y43618190D01*
X112173299Y43804911D01*
X112578995Y44075989D01*
X112924011Y44421005D01*
X113195089Y44826701D01*
X113381810Y45277486D01*
X113477000Y45756037D01*
X113477000Y46243963D01*
X135523000Y46243963D01*
X135523000Y45756037D01*
X135618190Y45277486D01*
X135804911Y44826701D01*
X136075989Y44421005D01*
X136421005Y44075989D01*
X136826701Y43804911D01*
X137277486Y43618190D01*
X137756037Y43523000D01*
X138243963Y43523000D01*
X138722514Y43618190D01*
X139173299Y43804911D01*
X139578995Y44075989D01*
X139924011Y44421005D01*
X140195089Y44826701D01*
X140381810Y45277486D01*
X140477000Y45756037D01*
X140477000Y46243963D01*
X140381810Y46722514D01*
X140195089Y47173299D01*
X139924011Y47578995D01*
X139578995Y47924011D01*
X139173299Y48195089D01*
X138722514Y48381810D01*
X138243963Y48477000D01*
X137756037Y48477000D01*
X137277486Y48381810D01*
X136826701Y48195089D01*
X136421005Y47924011D01*
X136075989Y47578995D01*
X135804911Y47173299D01*
X135618190Y46722514D01*
X135523000Y46243963D01*
X113477000Y46243963D01*
X113381810Y46722514D01*
X113195089Y47173299D01*
X112924011Y47578995D01*
X112578995Y47924011D01*
X112173299Y48195089D01*
X111722514Y48381810D01*
X111243963Y48477000D01*
X110756037Y48477000D01*
X110277486Y48381810D01*
X109826701Y48195089D01*
X109421005Y47924011D01*
X109075989Y47578995D01*
X108804911Y47173299D01*
X108618190Y46722514D01*
X108523000Y46243963D01*
X107930246Y46243963D01*
X107965244Y46600897D01*
X108139755Y47178905D01*
X108423214Y47712014D01*
X108804821Y48179911D01*
X109270040Y48564773D01*
X109801154Y48851946D01*
X110377927Y49030486D01*
X111020274Y49098000D01*
X137955887Y49098000D01*
X138600897Y49034756D01*
G36*
X134873000Y-23873000D02*
G01*
X125127000Y-23873000D01*
X125127000Y-21145543D01*
X128032782Y-21145543D01*
X128130478Y-21411580D01*
X128422821Y-21554068D01*
X128737344Y-21636784D01*
X129061962Y-21656551D01*
X129384198Y-21612608D01*
X129691670Y-21506644D01*
X129869522Y-21411580D01*
X129967218Y-21145543D01*
X129000000Y-20178325D01*
X128032782Y-21145543D01*
X125127000Y-21145543D01*
X125127000Y-20060682D01*
X127342169Y-20060682D01*
X127386112Y-20382918D01*
X127492076Y-20690390D01*
X127587140Y-20868242D01*
X127853177Y-20965938D01*
X128820395Y-19998720D01*
X129179605Y-19998720D01*
X130146823Y-20965938D01*
X130412860Y-20868242D01*
X130555348Y-20575899D01*
X130638064Y-20261376D01*
X130657831Y-19936758D01*
X130613888Y-19614522D01*
X130507924Y-19307050D01*
X130412860Y-19129198D01*
X130146823Y-19031502D01*
X129179605Y-19998720D01*
X128820395Y-19998720D01*
X127853177Y-19031502D01*
X127587140Y-19129198D01*
X127444652Y-19421541D01*
X127361936Y-19736064D01*
X127342169Y-20060682D01*
X125127000Y-20060682D01*
X125127000Y-18851897D01*
X128032782Y-18851897D01*
X129000000Y-19819115D01*
X129967218Y-18851897D01*
X129869522Y-18585860D01*
X129577179Y-18443372D01*
X129262656Y-18360656D01*
X128938038Y-18340889D01*
X128615802Y-18384832D01*
X128308330Y-18490796D01*
X128130478Y-18585860D01*
X128032782Y-18851897D01*
X125127000Y-18851897D01*
X125127000Y-13984000D01*
X127102757Y-13984000D01*
X127102757Y-16016000D01*
X127119690Y-16187922D01*
X127169838Y-16353237D01*
X127251273Y-16505592D01*
X127360867Y-16639133D01*
X127494408Y-16748727D01*
X127646763Y-16830162D01*
X127812078Y-16880310D01*
X127984000Y-16897243D01*
X130016000Y-16897243D01*
X130187922Y-16880310D01*
X130353237Y-16830162D01*
X130505592Y-16748727D01*
X130639133Y-16639133D01*
X130748727Y-16505592D01*
X130830162Y-16353237D01*
X130880310Y-16187922D01*
X130897243Y-16016000D01*
X130897243Y-13984000D01*
X130880310Y-13812078D01*
X130830162Y-13646763D01*
X130748727Y-13494408D01*
X130639133Y-13360867D01*
X130505592Y-13251273D01*
X130353237Y-13169838D01*
X130187922Y-13119690D01*
X130016000Y-13102757D01*
X127984000Y-13102757D01*
X127812078Y-13119690D01*
X127646763Y-13169838D01*
X127494408Y-13251273D01*
X127360867Y-13360867D01*
X127251273Y-13494408D01*
X127169838Y-13646763D01*
X127119690Y-13812078D01*
X127102757Y-13984000D01*
X125127000Y-13984000D01*
X125127000Y-11145543D01*
X128032782Y-11145543D01*
X128130478Y-11411580D01*
X128422821Y-11554068D01*
X128737344Y-11636784D01*
X129061962Y-11656551D01*
X129384198Y-11612608D01*
X129691670Y-11506644D01*
X129869522Y-11411580D01*
X129967218Y-11145543D01*
X129000000Y-10178325D01*
X128032782Y-11145543D01*
X125127000Y-11145543D01*
X125127000Y-10060682D01*
X127342169Y-10060682D01*
X127386112Y-10382918D01*
X127492076Y-10690390D01*
X127587140Y-10868242D01*
X127853177Y-10965938D01*
X128820395Y-9998720D01*
X129179605Y-9998720D01*
X130146823Y-10965938D01*
X130412860Y-10868242D01*
X130555348Y-10575899D01*
X130638064Y-10261376D01*
X130657831Y-9936758D01*
X130613888Y-9614522D01*
X130507924Y-9307050D01*
X130412860Y-9129198D01*
X130146823Y-9031502D01*
X129179605Y-9998720D01*
X128820395Y-9998720D01*
X127853177Y-9031502D01*
X127587140Y-9129198D01*
X127444652Y-9421541D01*
X127361936Y-9736064D01*
X127342169Y-10060682D01*
X125127000Y-10060682D01*
X125127000Y-8851897D01*
X128032782Y-8851897D01*
X129000000Y-9819115D01*
X129967218Y-8851897D01*
X129869522Y-8585860D01*
X129577179Y-8443372D01*
X129262656Y-8360656D01*
X128938038Y-8340889D01*
X128615802Y-8384832D01*
X128308330Y-8490796D01*
X128130478Y-8585860D01*
X128032782Y-8851897D01*
X125127000Y-8851897D01*
X125127000Y-3984000D01*
X127102757Y-3984000D01*
X127102757Y-6016000D01*
X127119690Y-6187922D01*
X127169838Y-6353237D01*
X127251273Y-6505592D01*
X127360867Y-6639133D01*
X127494408Y-6748727D01*
X127646763Y-6830162D01*
X127812078Y-6880310D01*
X127984000Y-6897243D01*
X130016000Y-6897243D01*
X130187922Y-6880310D01*
X130353237Y-6830162D01*
X130505592Y-6748727D01*
X130639133Y-6639133D01*
X130748727Y-6505592D01*
X130830162Y-6353237D01*
X130880310Y-6187922D01*
X130897243Y-6016000D01*
X130897243Y-3984000D01*
X130880310Y-3812078D01*
X130830162Y-3646763D01*
X130748727Y-3494408D01*
X130639133Y-3360867D01*
X130505592Y-3251273D01*
X130353237Y-3169838D01*
X130187922Y-3119690D01*
X130016000Y-3102757D01*
X127984000Y-3102757D01*
X127812078Y-3119690D01*
X127646763Y-3169838D01*
X127494408Y-3251273D01*
X127360867Y-3360867D01*
X127251273Y-3494408D01*
X127169838Y-3646763D01*
X127119690Y-3812078D01*
X127102757Y-3984000D01*
X125127000Y-3984000D01*
X125127000Y-1145543D01*
X128032782Y-1145543D01*
X128130478Y-1411580D01*
X128422821Y-1554068D01*
X128737344Y-1636784D01*
X129061962Y-1656551D01*
X129384198Y-1612608D01*
X129691670Y-1506644D01*
X129869522Y-1411580D01*
X129967218Y-1145543D01*
X129000000Y-178325D01*
X128032782Y-1145543D01*
X125127000Y-1145543D01*
X125127000Y-60682D01*
X127342169Y-60682D01*
X127386112Y-382918D01*
X127492076Y-690390D01*
X127587140Y-868242D01*
X127853177Y-965938D01*
X128820395Y1280D01*
X129179605Y1280D01*
X130146823Y-965938D01*
X130412860Y-868242D01*
X130555348Y-575899D01*
X130638064Y-261376D01*
X130657831Y63242D01*
X130613888Y385478D01*
X130507924Y692950D01*
X130412860Y870802D01*
X130146823Y968498D01*
X129179605Y1280D01*
X128820395Y1280D01*
X127853177Y968498D01*
X127587140Y870802D01*
X127444652Y578459D01*
X127361936Y263936D01*
X127342169Y-60682D01*
X125127000Y-60682D01*
X125127000Y1148103D01*
X128032782Y1148103D01*
X129000000Y180885D01*
X129967218Y1148103D01*
X129869522Y1414140D01*
X129577179Y1556628D01*
X129262656Y1639344D01*
X128938038Y1659111D01*
X128615802Y1615168D01*
X128308330Y1509204D01*
X128130478Y1414140D01*
X128032782Y1148103D01*
X125127000Y1148103D01*
X125127000Y6016000D01*
X127102757Y6016000D01*
X127102757Y3984000D01*
X127119690Y3812078D01*
X127169838Y3646763D01*
X127251273Y3494408D01*
X127360867Y3360867D01*
X127494408Y3251273D01*
X127646763Y3169838D01*
X127812078Y3119690D01*
X127984000Y3102757D01*
X130016000Y3102757D01*
X130187922Y3119690D01*
X130353237Y3169838D01*
X130505592Y3251273D01*
X130639133Y3360867D01*
X130748727Y3494408D01*
X130830162Y3646763D01*
X130880310Y3812078D01*
X130897243Y3984000D01*
X130897243Y6016000D01*
X130880310Y6187922D01*
X130830162Y6353237D01*
X130748727Y6505592D01*
X130639133Y6639133D01*
X130505592Y6748727D01*
X130353237Y6830162D01*
X130187922Y6880310D01*
X130016000Y6897243D01*
X127984000Y6897243D01*
X127812078Y6880310D01*
X127646763Y6830162D01*
X127494408Y6748727D01*
X127360867Y6639133D01*
X127251273Y6505592D01*
X127169838Y6353237D01*
X127119690Y6187922D01*
X127102757Y6016000D01*
X125127000Y6016000D01*
X125127000Y8854457D01*
X128032782Y8854457D01*
X128130478Y8588420D01*
X128422821Y8445932D01*
X128737344Y8363216D01*
X129061962Y8343449D01*
X129384198Y8387392D01*
X129691670Y8493356D01*
X129869522Y8588420D01*
X129967218Y8854457D01*
X129000000Y9821675D01*
X128032782Y8854457D01*
X125127000Y8854457D01*
X125127000Y9939318D01*
X127342169Y9939318D01*
X127386112Y9617082D01*
X127492076Y9309610D01*
X127587140Y9131758D01*
X127853177Y9034062D01*
X128820395Y10001280D01*
X129179605Y10001280D01*
X130146823Y9034062D01*
X130412860Y9131758D01*
X130555348Y9424101D01*
X130638064Y9738624D01*
X130657831Y10063242D01*
X130613888Y10385478D01*
X130507924Y10692950D01*
X130412860Y10870802D01*
X130146823Y10968498D01*
X129179605Y10001280D01*
X128820395Y10001280D01*
X127853177Y10968498D01*
X127587140Y10870802D01*
X127444652Y10578459D01*
X127361936Y10263936D01*
X127342169Y9939318D01*
X125127000Y9939318D01*
X125127000Y11148103D01*
X128032782Y11148103D01*
X129000000Y10180885D01*
X129967218Y11148103D01*
X129869522Y11414140D01*
X129577179Y11556628D01*
X129262656Y11639344D01*
X128938038Y11659111D01*
X128615802Y11615168D01*
X128308330Y11509204D01*
X128130478Y11414140D01*
X128032782Y11148103D01*
X125127000Y11148103D01*
X125127000Y16016000D01*
X127102757Y16016000D01*
X127102757Y13984000D01*
X127119690Y13812078D01*
X127169838Y13646763D01*
X127251273Y13494408D01*
X127360867Y13360867D01*
X127494408Y13251273D01*
X127646763Y13169838D01*
X127812078Y13119690D01*
X127984000Y13102757D01*
X130016000Y13102757D01*
X130187922Y13119690D01*
X130353237Y13169838D01*
X130505592Y13251273D01*
X130639133Y13360867D01*
X130748727Y13494408D01*
X130830162Y13646763D01*
X130880310Y13812078D01*
X130897243Y13984000D01*
X130897243Y16016000D01*
X130880310Y16187922D01*
X130830162Y16353237D01*
X130748727Y16505592D01*
X130639133Y16639133D01*
X130505592Y16748727D01*
X130353237Y16830162D01*
X130187922Y16880310D01*
X130016000Y16897243D01*
X127984000Y16897243D01*
X127812078Y16880310D01*
X127646763Y16830162D01*
X127494408Y16748727D01*
X127360867Y16639133D01*
X127251273Y16505592D01*
X127169838Y16353237D01*
X127119690Y16187922D01*
X127102757Y16016000D01*
X125127000Y16016000D01*
X125127000Y18873000D01*
X134873000Y18873000D01*
X134873000Y-23873000D01*
X134873000Y-23873000D01*
G37*
X134873000Y-23873000D02*
X125127000Y-23873000D01*
X125127000Y-21145543D01*
X128032782Y-21145543D01*
X128130478Y-21411580D01*
X128422821Y-21554068D01*
X128737344Y-21636784D01*
X129061962Y-21656551D01*
X129384198Y-21612608D01*
X129691670Y-21506644D01*
X129869522Y-21411580D01*
X129967218Y-21145543D01*
X129000000Y-20178325D01*
X128032782Y-21145543D01*
X125127000Y-21145543D01*
X125127000Y-20060682D01*
X127342169Y-20060682D01*
X127386112Y-20382918D01*
X127492076Y-20690390D01*
X127587140Y-20868242D01*
X127853177Y-20965938D01*
X128820395Y-19998720D01*
X129179605Y-19998720D01*
X130146823Y-20965938D01*
X130412860Y-20868242D01*
X130555348Y-20575899D01*
X130638064Y-20261376D01*
X130657831Y-19936758D01*
X130613888Y-19614522D01*
X130507924Y-19307050D01*
X130412860Y-19129198D01*
X130146823Y-19031502D01*
X129179605Y-19998720D01*
X128820395Y-19998720D01*
X127853177Y-19031502D01*
X127587140Y-19129198D01*
X127444652Y-19421541D01*
X127361936Y-19736064D01*
X127342169Y-20060682D01*
X125127000Y-20060682D01*
X125127000Y-18851897D01*
X128032782Y-18851897D01*
X129000000Y-19819115D01*
X129967218Y-18851897D01*
X129869522Y-18585860D01*
X129577179Y-18443372D01*
X129262656Y-18360656D01*
X128938038Y-18340889D01*
X128615802Y-18384832D01*
X128308330Y-18490796D01*
X128130478Y-18585860D01*
X128032782Y-18851897D01*
X125127000Y-18851897D01*
X125127000Y-13984000D01*
X127102757Y-13984000D01*
X127102757Y-16016000D01*
X127119690Y-16187922D01*
X127169838Y-16353237D01*
X127251273Y-16505592D01*
X127360867Y-16639133D01*
X127494408Y-16748727D01*
X127646763Y-16830162D01*
X127812078Y-16880310D01*
X127984000Y-16897243D01*
X130016000Y-16897243D01*
X130187922Y-16880310D01*
X130353237Y-16830162D01*
X130505592Y-16748727D01*
X130639133Y-16639133D01*
X130748727Y-16505592D01*
X130830162Y-16353237D01*
X130880310Y-16187922D01*
X130897243Y-16016000D01*
X130897243Y-13984000D01*
X130880310Y-13812078D01*
X130830162Y-13646763D01*
X130748727Y-13494408D01*
X130639133Y-13360867D01*
X130505592Y-13251273D01*
X130353237Y-13169838D01*
X130187922Y-13119690D01*
X130016000Y-13102757D01*
X127984000Y-13102757D01*
X127812078Y-13119690D01*
X127646763Y-13169838D01*
X127494408Y-13251273D01*
X127360867Y-13360867D01*
X127251273Y-13494408D01*
X127169838Y-13646763D01*
X127119690Y-13812078D01*
X127102757Y-13984000D01*
X125127000Y-13984000D01*
X125127000Y-11145543D01*
X128032782Y-11145543D01*
X128130478Y-11411580D01*
X128422821Y-11554068D01*
X128737344Y-11636784D01*
X129061962Y-11656551D01*
X129384198Y-11612608D01*
X129691670Y-11506644D01*
X129869522Y-11411580D01*
X129967218Y-11145543D01*
X129000000Y-10178325D01*
X128032782Y-11145543D01*
X125127000Y-11145543D01*
X125127000Y-10060682D01*
X127342169Y-10060682D01*
X127386112Y-10382918D01*
X127492076Y-10690390D01*
X127587140Y-10868242D01*
X127853177Y-10965938D01*
X128820395Y-9998720D01*
X129179605Y-9998720D01*
X130146823Y-10965938D01*
X130412860Y-10868242D01*
X130555348Y-10575899D01*
X130638064Y-10261376D01*
X130657831Y-9936758D01*
X130613888Y-9614522D01*
X130507924Y-9307050D01*
X130412860Y-9129198D01*
X130146823Y-9031502D01*
X129179605Y-9998720D01*
X128820395Y-9998720D01*
X127853177Y-9031502D01*
X127587140Y-9129198D01*
X127444652Y-9421541D01*
X127361936Y-9736064D01*
X127342169Y-10060682D01*
X125127000Y-10060682D01*
X125127000Y-8851897D01*
X128032782Y-8851897D01*
X129000000Y-9819115D01*
X129967218Y-8851897D01*
X129869522Y-8585860D01*
X129577179Y-8443372D01*
X129262656Y-8360656D01*
X128938038Y-8340889D01*
X128615802Y-8384832D01*
X128308330Y-8490796D01*
X128130478Y-8585860D01*
X128032782Y-8851897D01*
X125127000Y-8851897D01*
X125127000Y-3984000D01*
X127102757Y-3984000D01*
X127102757Y-6016000D01*
X127119690Y-6187922D01*
X127169838Y-6353237D01*
X127251273Y-6505592D01*
X127360867Y-6639133D01*
X127494408Y-6748727D01*
X127646763Y-6830162D01*
X127812078Y-6880310D01*
X127984000Y-6897243D01*
X130016000Y-6897243D01*
X130187922Y-6880310D01*
X130353237Y-6830162D01*
X130505592Y-6748727D01*
X130639133Y-6639133D01*
X130748727Y-6505592D01*
X130830162Y-6353237D01*
X130880310Y-6187922D01*
X130897243Y-6016000D01*
X130897243Y-3984000D01*
X130880310Y-3812078D01*
X130830162Y-3646763D01*
X130748727Y-3494408D01*
X130639133Y-3360867D01*
X130505592Y-3251273D01*
X130353237Y-3169838D01*
X130187922Y-3119690D01*
X130016000Y-3102757D01*
X127984000Y-3102757D01*
X127812078Y-3119690D01*
X127646763Y-3169838D01*
X127494408Y-3251273D01*
X127360867Y-3360867D01*
X127251273Y-3494408D01*
X127169838Y-3646763D01*
X127119690Y-3812078D01*
X127102757Y-3984000D01*
X125127000Y-3984000D01*
X125127000Y-1145543D01*
X128032782Y-1145543D01*
X128130478Y-1411580D01*
X128422821Y-1554068D01*
X128737344Y-1636784D01*
X129061962Y-1656551D01*
X129384198Y-1612608D01*
X129691670Y-1506644D01*
X129869522Y-1411580D01*
X129967218Y-1145543D01*
X129000000Y-178325D01*
X128032782Y-1145543D01*
X125127000Y-1145543D01*
X125127000Y-60682D01*
X127342169Y-60682D01*
X127386112Y-382918D01*
X127492076Y-690390D01*
X127587140Y-868242D01*
X127853177Y-965938D01*
X128820395Y1280D01*
X129179605Y1280D01*
X130146823Y-965938D01*
X130412860Y-868242D01*
X130555348Y-575899D01*
X130638064Y-261376D01*
X130657831Y63242D01*
X130613888Y385478D01*
X130507924Y692950D01*
X130412860Y870802D01*
X130146823Y968498D01*
X129179605Y1280D01*
X128820395Y1280D01*
X127853177Y968498D01*
X127587140Y870802D01*
X127444652Y578459D01*
X127361936Y263936D01*
X127342169Y-60682D01*
X125127000Y-60682D01*
X125127000Y1148103D01*
X128032782Y1148103D01*
X129000000Y180885D01*
X129967218Y1148103D01*
X129869522Y1414140D01*
X129577179Y1556628D01*
X129262656Y1639344D01*
X128938038Y1659111D01*
X128615802Y1615168D01*
X128308330Y1509204D01*
X128130478Y1414140D01*
X128032782Y1148103D01*
X125127000Y1148103D01*
X125127000Y6016000D01*
X127102757Y6016000D01*
X127102757Y3984000D01*
X127119690Y3812078D01*
X127169838Y3646763D01*
X127251273Y3494408D01*
X127360867Y3360867D01*
X127494408Y3251273D01*
X127646763Y3169838D01*
X127812078Y3119690D01*
X127984000Y3102757D01*
X130016000Y3102757D01*
X130187922Y3119690D01*
X130353237Y3169838D01*
X130505592Y3251273D01*
X130639133Y3360867D01*
X130748727Y3494408D01*
X130830162Y3646763D01*
X130880310Y3812078D01*
X130897243Y3984000D01*
X130897243Y6016000D01*
X130880310Y6187922D01*
X130830162Y6353237D01*
X130748727Y6505592D01*
X130639133Y6639133D01*
X130505592Y6748727D01*
X130353237Y6830162D01*
X130187922Y6880310D01*
X130016000Y6897243D01*
X127984000Y6897243D01*
X127812078Y6880310D01*
X127646763Y6830162D01*
X127494408Y6748727D01*
X127360867Y6639133D01*
X127251273Y6505592D01*
X127169838Y6353237D01*
X127119690Y6187922D01*
X127102757Y6016000D01*
X125127000Y6016000D01*
X125127000Y8854457D01*
X128032782Y8854457D01*
X128130478Y8588420D01*
X128422821Y8445932D01*
X128737344Y8363216D01*
X129061962Y8343449D01*
X129384198Y8387392D01*
X129691670Y8493356D01*
X129869522Y8588420D01*
X129967218Y8854457D01*
X129000000Y9821675D01*
X128032782Y8854457D01*
X125127000Y8854457D01*
X125127000Y9939318D01*
X127342169Y9939318D01*
X127386112Y9617082D01*
X127492076Y9309610D01*
X127587140Y9131758D01*
X127853177Y9034062D01*
X128820395Y10001280D01*
X129179605Y10001280D01*
X130146823Y9034062D01*
X130412860Y9131758D01*
X130555348Y9424101D01*
X130638064Y9738624D01*
X130657831Y10063242D01*
X130613888Y10385478D01*
X130507924Y10692950D01*
X130412860Y10870802D01*
X130146823Y10968498D01*
X129179605Y10001280D01*
X128820395Y10001280D01*
X127853177Y10968498D01*
X127587140Y10870802D01*
X127444652Y10578459D01*
X127361936Y10263936D01*
X127342169Y9939318D01*
X125127000Y9939318D01*
X125127000Y11148103D01*
X128032782Y11148103D01*
X129000000Y10180885D01*
X129967218Y11148103D01*
X129869522Y11414140D01*
X129577179Y11556628D01*
X129262656Y11639344D01*
X128938038Y11659111D01*
X128615802Y11615168D01*
X128308330Y11509204D01*
X128130478Y11414140D01*
X128032782Y11148103D01*
X125127000Y11148103D01*
X125127000Y16016000D01*
X127102757Y16016000D01*
X127102757Y13984000D01*
X127119690Y13812078D01*
X127169838Y13646763D01*
X127251273Y13494408D01*
X127360867Y13360867D01*
X127494408Y13251273D01*
X127646763Y13169838D01*
X127812078Y13119690D01*
X127984000Y13102757D01*
X130016000Y13102757D01*
X130187922Y13119690D01*
X130353237Y13169838D01*
X130505592Y13251273D01*
X130639133Y13360867D01*
X130748727Y13494408D01*
X130830162Y13646763D01*
X130880310Y13812078D01*
X130897243Y13984000D01*
X130897243Y16016000D01*
X130880310Y16187922D01*
X130830162Y16353237D01*
X130748727Y16505592D01*
X130639133Y16639133D01*
X130505592Y16748727D01*
X130353237Y16830162D01*
X130187922Y16880310D01*
X130016000Y16897243D01*
X127984000Y16897243D01*
X127812078Y16880310D01*
X127646763Y16830162D01*
X127494408Y16748727D01*
X127360867Y16639133D01*
X127251273Y16505592D01*
X127169838Y16353237D01*
X127119690Y16187922D01*
X127102757Y16016000D01*
X125127000Y16016000D01*
X125127000Y18873000D01*
X134873000Y18873000D01*
X134873000Y-23873000D01*
G36*
X123873000Y-23873000D02*
G01*
X114127000Y-23873000D01*
X114127000Y-21016000D01*
X118595928Y-21016000D01*
X118608188Y-21140482D01*
X118644498Y-21260180D01*
X118703463Y-21370494D01*
X118782815Y-21467185D01*
X118879506Y-21546537D01*
X118989820Y-21605502D01*
X119109518Y-21641812D01*
X119234000Y-21654072D01*
X119964250Y-21651000D01*
X120123000Y-21492250D01*
X120123000Y-20127000D01*
X120377000Y-20127000D01*
X120377000Y-21492250D01*
X120535750Y-21651000D01*
X121266000Y-21654072D01*
X121390482Y-21641812D01*
X121510180Y-21605502D01*
X121620494Y-21546537D01*
X121717185Y-21467185D01*
X121796537Y-21370494D01*
X121855502Y-21260180D01*
X121891812Y-21140482D01*
X121904072Y-21016000D01*
X121901000Y-20285750D01*
X121742250Y-20127000D01*
X120377000Y-20127000D01*
X120123000Y-20127000D01*
X118757750Y-20127000D01*
X118599000Y-20285750D01*
X118595928Y-21016000D01*
X114127000Y-21016000D01*
X114127000Y-18984000D01*
X118595928Y-18984000D01*
X118599000Y-19714250D01*
X118757750Y-19873000D01*
X120123000Y-19873000D01*
X120123000Y-18507750D01*
X120377000Y-18507750D01*
X120377000Y-19873000D01*
X121742250Y-19873000D01*
X121901000Y-19714250D01*
X121904072Y-18984000D01*
X121891812Y-18859518D01*
X121855502Y-18739820D01*
X121796537Y-18629506D01*
X121717185Y-18532815D01*
X121620494Y-18453463D01*
X121510180Y-18394498D01*
X121390482Y-18358188D01*
X121266000Y-18345928D01*
X120535750Y-18349000D01*
X120377000Y-18507750D01*
X120123000Y-18507750D01*
X119964250Y-18349000D01*
X119234000Y-18345928D01*
X119109518Y-18358188D01*
X118989820Y-18394498D01*
X118879506Y-18453463D01*
X118782815Y-18532815D01*
X118703463Y-18629506D01*
X118644498Y-18739820D01*
X118608188Y-18859518D01*
X118595928Y-18984000D01*
X114127000Y-18984000D01*
X114127000Y-14814836D01*
X118357000Y-14814836D01*
X118357000Y-15187724D01*
X118429747Y-15553448D01*
X118572446Y-15897952D01*
X118779611Y-16207997D01*
X119043283Y-16471669D01*
X119353328Y-16678834D01*
X119697832Y-16821533D01*
X120063556Y-16894280D01*
X120436444Y-16894280D01*
X120802168Y-16821533D01*
X121146672Y-16678834D01*
X121456717Y-16471669D01*
X121720389Y-16207997D01*
X121927554Y-15897952D01*
X122070253Y-15553448D01*
X122143000Y-15187724D01*
X122143000Y-14814836D01*
X122070253Y-14449112D01*
X121927554Y-14104608D01*
X121720389Y-13794563D01*
X121456717Y-13530891D01*
X121146672Y-13323726D01*
X120802168Y-13181027D01*
X120436444Y-13108280D01*
X120063556Y-13108280D01*
X119697832Y-13181027D01*
X119353328Y-13323726D01*
X119043283Y-13530891D01*
X118779611Y-13794563D01*
X118572446Y-14104608D01*
X118429747Y-14449112D01*
X118357000Y-14814836D01*
X114127000Y-14814836D01*
X114127000Y-11016000D01*
X118595928Y-11016000D01*
X118608188Y-11140482D01*
X118644498Y-11260180D01*
X118703463Y-11370494D01*
X118782815Y-11467185D01*
X118879506Y-11546537D01*
X118989820Y-11605502D01*
X119109518Y-11641812D01*
X119234000Y-11654072D01*
X119964250Y-11651000D01*
X120123000Y-11492250D01*
X120123000Y-10127000D01*
X120377000Y-10127000D01*
X120377000Y-11492250D01*
X120535750Y-11651000D01*
X121266000Y-11654072D01*
X121390482Y-11641812D01*
X121510180Y-11605502D01*
X121620494Y-11546537D01*
X121717185Y-11467185D01*
X121796537Y-11370494D01*
X121855502Y-11260180D01*
X121891812Y-11140482D01*
X121904072Y-11016000D01*
X121901000Y-10285750D01*
X121742250Y-10127000D01*
X120377000Y-10127000D01*
X120123000Y-10127000D01*
X118757750Y-10127000D01*
X118599000Y-10285750D01*
X118595928Y-11016000D01*
X114127000Y-11016000D01*
X114127000Y-8984000D01*
X118595928Y-8984000D01*
X118599000Y-9714250D01*
X118757750Y-9873000D01*
X120123000Y-9873000D01*
X120123000Y-8507750D01*
X120377000Y-8507750D01*
X120377000Y-9873000D01*
X121742250Y-9873000D01*
X121901000Y-9714250D01*
X121904072Y-8984000D01*
X121891812Y-8859518D01*
X121855502Y-8739820D01*
X121796537Y-8629506D01*
X121717185Y-8532815D01*
X121620494Y-8453463D01*
X121510180Y-8394498D01*
X121390482Y-8358188D01*
X121266000Y-8345928D01*
X120535750Y-8349000D01*
X120377000Y-8507750D01*
X120123000Y-8507750D01*
X119964250Y-8349000D01*
X119234000Y-8345928D01*
X119109518Y-8358188D01*
X118989820Y-8394498D01*
X118879506Y-8453463D01*
X118782815Y-8532815D01*
X118703463Y-8629506D01*
X118644498Y-8739820D01*
X118608188Y-8859518D01*
X118595928Y-8984000D01*
X114127000Y-8984000D01*
X114127000Y-4814836D01*
X118357000Y-4814836D01*
X118357000Y-5187724D01*
X118429747Y-5553448D01*
X118572446Y-5897952D01*
X118779611Y-6207997D01*
X119043283Y-6471669D01*
X119353328Y-6678834D01*
X119697832Y-6821533D01*
X120063556Y-6894280D01*
X120436444Y-6894280D01*
X120802168Y-6821533D01*
X121146672Y-6678834D01*
X121456717Y-6471669D01*
X121720389Y-6207997D01*
X121927554Y-5897952D01*
X122070253Y-5553448D01*
X122143000Y-5187724D01*
X122143000Y-4814836D01*
X122070253Y-4449112D01*
X121927554Y-4104608D01*
X121720389Y-3794563D01*
X121456717Y-3530891D01*
X121146672Y-3323726D01*
X120802168Y-3181027D01*
X120436444Y-3108280D01*
X120063556Y-3108280D01*
X119697832Y-3181027D01*
X119353328Y-3323726D01*
X119043283Y-3530891D01*
X118779611Y-3794563D01*
X118572446Y-4104608D01*
X118429747Y-4449112D01*
X118357000Y-4814836D01*
X114127000Y-4814836D01*
X114127000Y-1016000D01*
X118595928Y-1016000D01*
X118608188Y-1140482D01*
X118644498Y-1260180D01*
X118703463Y-1370494D01*
X118782815Y-1467185D01*
X118879506Y-1546537D01*
X118989820Y-1605502D01*
X119109518Y-1641812D01*
X119234000Y-1654072D01*
X119964250Y-1651000D01*
X120123000Y-1492250D01*
X120123000Y-127000D01*
X120377000Y-127000D01*
X120377000Y-1492250D01*
X120535750Y-1651000D01*
X121266000Y-1654072D01*
X121390482Y-1641812D01*
X121510180Y-1605502D01*
X121620494Y-1546537D01*
X121717185Y-1467185D01*
X121796537Y-1370494D01*
X121855502Y-1260180D01*
X121891812Y-1140482D01*
X121904072Y-1016000D01*
X121901000Y-285750D01*
X121742250Y-127000D01*
X120377000Y-127000D01*
X120123000Y-127000D01*
X118757750Y-127000D01*
X118599000Y-285750D01*
X118595928Y-1016000D01*
X114127000Y-1016000D01*
X114127000Y1016000D01*
X118595928Y1016000D01*
X118599000Y285750D01*
X118757750Y127000D01*
X120123000Y127000D01*
X120123000Y1492250D01*
X120377000Y1492250D01*
X120377000Y127000D01*
X121742250Y127000D01*
X121901000Y285750D01*
X121904072Y1016000D01*
X121891812Y1140482D01*
X121855502Y1260180D01*
X121796537Y1370494D01*
X121717185Y1467185D01*
X121620494Y1546537D01*
X121510180Y1605502D01*
X121390482Y1641812D01*
X121266000Y1654072D01*
X120535750Y1651000D01*
X120377000Y1492250D01*
X120123000Y1492250D01*
X119964250Y1651000D01*
X119234000Y1654072D01*
X119109518Y1641812D01*
X118989820Y1605502D01*
X118879506Y1546537D01*
X118782815Y1467185D01*
X118703463Y1370494D01*
X118644498Y1260180D01*
X118608188Y1140482D01*
X118595928Y1016000D01*
X114127000Y1016000D01*
X114127000Y5185164D01*
X118357000Y5185164D01*
X118357000Y4812276D01*
X118429747Y4446552D01*
X118572446Y4102048D01*
X118779611Y3792003D01*
X119043283Y3528331D01*
X119353328Y3321166D01*
X119697832Y3178467D01*
X120063556Y3105720D01*
X120436444Y3105720D01*
X120802168Y3178467D01*
X121146672Y3321166D01*
X121456717Y3528331D01*
X121720389Y3792003D01*
X121927554Y4102048D01*
X122070253Y4446552D01*
X122143000Y4812276D01*
X122143000Y5185164D01*
X122070253Y5550888D01*
X121927554Y5895392D01*
X121720389Y6205437D01*
X121456717Y6469109D01*
X121146672Y6676274D01*
X120802168Y6818973D01*
X120436444Y6891720D01*
X120063556Y6891720D01*
X119697832Y6818973D01*
X119353328Y6676274D01*
X119043283Y6469109D01*
X118779611Y6205437D01*
X118572446Y5895392D01*
X118429747Y5550888D01*
X118357000Y5185164D01*
X114127000Y5185164D01*
X114127000Y8984000D01*
X118630928Y8984000D01*
X118643188Y8859518D01*
X118679498Y8739820D01*
X118738463Y8629506D01*
X118817815Y8532815D01*
X118914506Y8453463D01*
X119024820Y8394498D01*
X119144518Y8358188D01*
X119269000Y8345928D01*
X119999250Y8349000D01*
X120158000Y8507750D01*
X120158000Y9873000D01*
X120412000Y9873000D01*
X120412000Y8507750D01*
X120570750Y8349000D01*
X121301000Y8345928D01*
X121425482Y8358188D01*
X121545180Y8394498D01*
X121655494Y8453463D01*
X121752185Y8532815D01*
X121831537Y8629506D01*
X121890502Y8739820D01*
X121926812Y8859518D01*
X121939072Y8984000D01*
X121936000Y9714250D01*
X121777250Y9873000D01*
X120412000Y9873000D01*
X120158000Y9873000D01*
X118792750Y9873000D01*
X118634000Y9714250D01*
X118630928Y8984000D01*
X114127000Y8984000D01*
X114127000Y11016000D01*
X118630928Y11016000D01*
X118634000Y10285750D01*
X118792750Y10127000D01*
X120158000Y10127000D01*
X120158000Y11492250D01*
X120412000Y11492250D01*
X120412000Y10127000D01*
X121777250Y10127000D01*
X121936000Y10285750D01*
X121939072Y11016000D01*
X121926812Y11140482D01*
X121890502Y11260180D01*
X121831537Y11370494D01*
X121752185Y11467185D01*
X121655494Y11546537D01*
X121545180Y11605502D01*
X121425482Y11641812D01*
X121301000Y11654072D01*
X120570750Y11651000D01*
X120412000Y11492250D01*
X120158000Y11492250D01*
X119999250Y11651000D01*
X119269000Y11654072D01*
X119144518Y11641812D01*
X119024820Y11605502D01*
X118914506Y11546537D01*
X118817815Y11467185D01*
X118738463Y11370494D01*
X118679498Y11260180D01*
X118643188Y11140482D01*
X118630928Y11016000D01*
X114127000Y11016000D01*
X114127000Y15185164D01*
X118392000Y15185164D01*
X118392000Y14812276D01*
X118464747Y14446552D01*
X118607446Y14102048D01*
X118814611Y13792003D01*
X119078283Y13528331D01*
X119388328Y13321166D01*
X119732832Y13178467D01*
X120098556Y13105720D01*
X120471444Y13105720D01*
X120837168Y13178467D01*
X121181672Y13321166D01*
X121491717Y13528331D01*
X121755389Y13792003D01*
X121962554Y14102048D01*
X122105253Y14446552D01*
X122178000Y14812276D01*
X122178000Y15185164D01*
X122105253Y15550888D01*
X121962554Y15895392D01*
X121755389Y16205437D01*
X121491717Y16469109D01*
X121181672Y16676274D01*
X120837168Y16818973D01*
X120471444Y16891720D01*
X120098556Y16891720D01*
X119732832Y16818973D01*
X119388328Y16676274D01*
X119078283Y16469109D01*
X118814611Y16205437D01*
X118607446Y15895392D01*
X118464747Y15550888D01*
X118392000Y15185164D01*
X114127000Y15185164D01*
X114127000Y18873000D01*
X123873000Y18873000D01*
X123873000Y-23873000D01*
X123873000Y-23873000D01*
G37*
X123873000Y-23873000D02*
X114127000Y-23873000D01*
X114127000Y-21016000D01*
X118595928Y-21016000D01*
X118608188Y-21140482D01*
X118644498Y-21260180D01*
X118703463Y-21370494D01*
X118782815Y-21467185D01*
X118879506Y-21546537D01*
X118989820Y-21605502D01*
X119109518Y-21641812D01*
X119234000Y-21654072D01*
X119964250Y-21651000D01*
X120123000Y-21492250D01*
X120123000Y-20127000D01*
X120377000Y-20127000D01*
X120377000Y-21492250D01*
X120535750Y-21651000D01*
X121266000Y-21654072D01*
X121390482Y-21641812D01*
X121510180Y-21605502D01*
X121620494Y-21546537D01*
X121717185Y-21467185D01*
X121796537Y-21370494D01*
X121855502Y-21260180D01*
X121891812Y-21140482D01*
X121904072Y-21016000D01*
X121901000Y-20285750D01*
X121742250Y-20127000D01*
X120377000Y-20127000D01*
X120123000Y-20127000D01*
X118757750Y-20127000D01*
X118599000Y-20285750D01*
X118595928Y-21016000D01*
X114127000Y-21016000D01*
X114127000Y-18984000D01*
X118595928Y-18984000D01*
X118599000Y-19714250D01*
X118757750Y-19873000D01*
X120123000Y-19873000D01*
X120123000Y-18507750D01*
X120377000Y-18507750D01*
X120377000Y-19873000D01*
X121742250Y-19873000D01*
X121901000Y-19714250D01*
X121904072Y-18984000D01*
X121891812Y-18859518D01*
X121855502Y-18739820D01*
X121796537Y-18629506D01*
X121717185Y-18532815D01*
X121620494Y-18453463D01*
X121510180Y-18394498D01*
X121390482Y-18358188D01*
X121266000Y-18345928D01*
X120535750Y-18349000D01*
X120377000Y-18507750D01*
X120123000Y-18507750D01*
X119964250Y-18349000D01*
X119234000Y-18345928D01*
X119109518Y-18358188D01*
X118989820Y-18394498D01*
X118879506Y-18453463D01*
X118782815Y-18532815D01*
X118703463Y-18629506D01*
X118644498Y-18739820D01*
X118608188Y-18859518D01*
X118595928Y-18984000D01*
X114127000Y-18984000D01*
X114127000Y-14814836D01*
X118357000Y-14814836D01*
X118357000Y-15187724D01*
X118429747Y-15553448D01*
X118572446Y-15897952D01*
X118779611Y-16207997D01*
X119043283Y-16471669D01*
X119353328Y-16678834D01*
X119697832Y-16821533D01*
X120063556Y-16894280D01*
X120436444Y-16894280D01*
X120802168Y-16821533D01*
X121146672Y-16678834D01*
X121456717Y-16471669D01*
X121720389Y-16207997D01*
X121927554Y-15897952D01*
X122070253Y-15553448D01*
X122143000Y-15187724D01*
X122143000Y-14814836D01*
X122070253Y-14449112D01*
X121927554Y-14104608D01*
X121720389Y-13794563D01*
X121456717Y-13530891D01*
X121146672Y-13323726D01*
X120802168Y-13181027D01*
X120436444Y-13108280D01*
X120063556Y-13108280D01*
X119697832Y-13181027D01*
X119353328Y-13323726D01*
X119043283Y-13530891D01*
X118779611Y-13794563D01*
X118572446Y-14104608D01*
X118429747Y-14449112D01*
X118357000Y-14814836D01*
X114127000Y-14814836D01*
X114127000Y-11016000D01*
X118595928Y-11016000D01*
X118608188Y-11140482D01*
X118644498Y-11260180D01*
X118703463Y-11370494D01*
X118782815Y-11467185D01*
X118879506Y-11546537D01*
X118989820Y-11605502D01*
X119109518Y-11641812D01*
X119234000Y-11654072D01*
X119964250Y-11651000D01*
X120123000Y-11492250D01*
X120123000Y-10127000D01*
X120377000Y-10127000D01*
X120377000Y-11492250D01*
X120535750Y-11651000D01*
X121266000Y-11654072D01*
X121390482Y-11641812D01*
X121510180Y-11605502D01*
X121620494Y-11546537D01*
X121717185Y-11467185D01*
X121796537Y-11370494D01*
X121855502Y-11260180D01*
X121891812Y-11140482D01*
X121904072Y-11016000D01*
X121901000Y-10285750D01*
X121742250Y-10127000D01*
X120377000Y-10127000D01*
X120123000Y-10127000D01*
X118757750Y-10127000D01*
X118599000Y-10285750D01*
X118595928Y-11016000D01*
X114127000Y-11016000D01*
X114127000Y-8984000D01*
X118595928Y-8984000D01*
X118599000Y-9714250D01*
X118757750Y-9873000D01*
X120123000Y-9873000D01*
X120123000Y-8507750D01*
X120377000Y-8507750D01*
X120377000Y-9873000D01*
X121742250Y-9873000D01*
X121901000Y-9714250D01*
X121904072Y-8984000D01*
X121891812Y-8859518D01*
X121855502Y-8739820D01*
X121796537Y-8629506D01*
X121717185Y-8532815D01*
X121620494Y-8453463D01*
X121510180Y-8394498D01*
X121390482Y-8358188D01*
X121266000Y-8345928D01*
X120535750Y-8349000D01*
X120377000Y-8507750D01*
X120123000Y-8507750D01*
X119964250Y-8349000D01*
X119234000Y-8345928D01*
X119109518Y-8358188D01*
X118989820Y-8394498D01*
X118879506Y-8453463D01*
X118782815Y-8532815D01*
X118703463Y-8629506D01*
X118644498Y-8739820D01*
X118608188Y-8859518D01*
X118595928Y-8984000D01*
X114127000Y-8984000D01*
X114127000Y-4814836D01*
X118357000Y-4814836D01*
X118357000Y-5187724D01*
X118429747Y-5553448D01*
X118572446Y-5897952D01*
X118779611Y-6207997D01*
X119043283Y-6471669D01*
X119353328Y-6678834D01*
X119697832Y-6821533D01*
X120063556Y-6894280D01*
X120436444Y-6894280D01*
X120802168Y-6821533D01*
X121146672Y-6678834D01*
X121456717Y-6471669D01*
X121720389Y-6207997D01*
X121927554Y-5897952D01*
X122070253Y-5553448D01*
X122143000Y-5187724D01*
X122143000Y-4814836D01*
X122070253Y-4449112D01*
X121927554Y-4104608D01*
X121720389Y-3794563D01*
X121456717Y-3530891D01*
X121146672Y-3323726D01*
X120802168Y-3181027D01*
X120436444Y-3108280D01*
X120063556Y-3108280D01*
X119697832Y-3181027D01*
X119353328Y-3323726D01*
X119043283Y-3530891D01*
X118779611Y-3794563D01*
X118572446Y-4104608D01*
X118429747Y-4449112D01*
X118357000Y-4814836D01*
X114127000Y-4814836D01*
X114127000Y-1016000D01*
X118595928Y-1016000D01*
X118608188Y-1140482D01*
X118644498Y-1260180D01*
X118703463Y-1370494D01*
X118782815Y-1467185D01*
X118879506Y-1546537D01*
X118989820Y-1605502D01*
X119109518Y-1641812D01*
X119234000Y-1654072D01*
X119964250Y-1651000D01*
X120123000Y-1492250D01*
X120123000Y-127000D01*
X120377000Y-127000D01*
X120377000Y-1492250D01*
X120535750Y-1651000D01*
X121266000Y-1654072D01*
X121390482Y-1641812D01*
X121510180Y-1605502D01*
X121620494Y-1546537D01*
X121717185Y-1467185D01*
X121796537Y-1370494D01*
X121855502Y-1260180D01*
X121891812Y-1140482D01*
X121904072Y-1016000D01*
X121901000Y-285750D01*
X121742250Y-127000D01*
X120377000Y-127000D01*
X120123000Y-127000D01*
X118757750Y-127000D01*
X118599000Y-285750D01*
X118595928Y-1016000D01*
X114127000Y-1016000D01*
X114127000Y1016000D01*
X118595928Y1016000D01*
X118599000Y285750D01*
X118757750Y127000D01*
X120123000Y127000D01*
X120123000Y1492250D01*
X120377000Y1492250D01*
X120377000Y127000D01*
X121742250Y127000D01*
X121901000Y285750D01*
X121904072Y1016000D01*
X121891812Y1140482D01*
X121855502Y1260180D01*
X121796537Y1370494D01*
X121717185Y1467185D01*
X121620494Y1546537D01*
X121510180Y1605502D01*
X121390482Y1641812D01*
X121266000Y1654072D01*
X120535750Y1651000D01*
X120377000Y1492250D01*
X120123000Y1492250D01*
X119964250Y1651000D01*
X119234000Y1654072D01*
X119109518Y1641812D01*
X118989820Y1605502D01*
X118879506Y1546537D01*
X118782815Y1467185D01*
X118703463Y1370494D01*
X118644498Y1260180D01*
X118608188Y1140482D01*
X118595928Y1016000D01*
X114127000Y1016000D01*
X114127000Y5185164D01*
X118357000Y5185164D01*
X118357000Y4812276D01*
X118429747Y4446552D01*
X118572446Y4102048D01*
X118779611Y3792003D01*
X119043283Y3528331D01*
X119353328Y3321166D01*
X119697832Y3178467D01*
X120063556Y3105720D01*
X120436444Y3105720D01*
X120802168Y3178467D01*
X121146672Y3321166D01*
X121456717Y3528331D01*
X121720389Y3792003D01*
X121927554Y4102048D01*
X122070253Y4446552D01*
X122143000Y4812276D01*
X122143000Y5185164D01*
X122070253Y5550888D01*
X121927554Y5895392D01*
X121720389Y6205437D01*
X121456717Y6469109D01*
X121146672Y6676274D01*
X120802168Y6818973D01*
X120436444Y6891720D01*
X120063556Y6891720D01*
X119697832Y6818973D01*
X119353328Y6676274D01*
X119043283Y6469109D01*
X118779611Y6205437D01*
X118572446Y5895392D01*
X118429747Y5550888D01*
X118357000Y5185164D01*
X114127000Y5185164D01*
X114127000Y8984000D01*
X118630928Y8984000D01*
X118643188Y8859518D01*
X118679498Y8739820D01*
X118738463Y8629506D01*
X118817815Y8532815D01*
X118914506Y8453463D01*
X119024820Y8394498D01*
X119144518Y8358188D01*
X119269000Y8345928D01*
X119999250Y8349000D01*
X120158000Y8507750D01*
X120158000Y9873000D01*
X120412000Y9873000D01*
X120412000Y8507750D01*
X120570750Y8349000D01*
X121301000Y8345928D01*
X121425482Y8358188D01*
X121545180Y8394498D01*
X121655494Y8453463D01*
X121752185Y8532815D01*
X121831537Y8629506D01*
X121890502Y8739820D01*
X121926812Y8859518D01*
X121939072Y8984000D01*
X121936000Y9714250D01*
X121777250Y9873000D01*
X120412000Y9873000D01*
X120158000Y9873000D01*
X118792750Y9873000D01*
X118634000Y9714250D01*
X118630928Y8984000D01*
X114127000Y8984000D01*
X114127000Y11016000D01*
X118630928Y11016000D01*
X118634000Y10285750D01*
X118792750Y10127000D01*
X120158000Y10127000D01*
X120158000Y11492250D01*
X120412000Y11492250D01*
X120412000Y10127000D01*
X121777250Y10127000D01*
X121936000Y10285750D01*
X121939072Y11016000D01*
X121926812Y11140482D01*
X121890502Y11260180D01*
X121831537Y11370494D01*
X121752185Y11467185D01*
X121655494Y11546537D01*
X121545180Y11605502D01*
X121425482Y11641812D01*
X121301000Y11654072D01*
X120570750Y11651000D01*
X120412000Y11492250D01*
X120158000Y11492250D01*
X119999250Y11651000D01*
X119269000Y11654072D01*
X119144518Y11641812D01*
X119024820Y11605502D01*
X118914506Y11546537D01*
X118817815Y11467185D01*
X118738463Y11370494D01*
X118679498Y11260180D01*
X118643188Y11140482D01*
X118630928Y11016000D01*
X114127000Y11016000D01*
X114127000Y15185164D01*
X118392000Y15185164D01*
X118392000Y14812276D01*
X118464747Y14446552D01*
X118607446Y14102048D01*
X118814611Y13792003D01*
X119078283Y13528331D01*
X119388328Y13321166D01*
X119732832Y13178467D01*
X120098556Y13105720D01*
X120471444Y13105720D01*
X120837168Y13178467D01*
X121181672Y13321166D01*
X121491717Y13528331D01*
X121755389Y13792003D01*
X121962554Y14102048D01*
X122105253Y14446552D01*
X122178000Y14812276D01*
X122178000Y15185164D01*
X122105253Y15550888D01*
X121962554Y15895392D01*
X121755389Y16205437D01*
X121491717Y16469109D01*
X121181672Y16676274D01*
X120837168Y16818973D01*
X120471444Y16891720D01*
X120098556Y16891720D01*
X119732832Y16818973D01*
X119388328Y16676274D01*
X119078283Y16469109D01*
X118814611Y16205437D01*
X118607446Y15895392D01*
X118464747Y15550888D01*
X118392000Y15185164D01*
X114127000Y15185164D01*
X114127000Y18873000D01*
X123873000Y18873000D01*
X123873000Y-23873000D01*
M02*
